<svg id="Calque_1" data-name="Calque 1" xmlns="http://www.w3.org/2000/svg" viewBox="0 0 289.36 49.92"><defs><style>.cls-1{fill:#f15a24;}.cls-1,.cls-2{stroke:#262626;stroke-linecap:round;stroke-linejoin:round;stroke-width:2.39px;}.cls-2{fill:#ff9750;}.cls-3{fill:#f17346;}</style></defs><title>cond-1</title><g id="_Groupe_" data-name="&lt;Groupe&gt;"><ellipse id="_Ellipse_" data-name="&lt;Ellipse&gt;" class="cls-1" cx="60.66" cy="28.01" rx="28.05" ry="12.7"/><ellipse id="_Ellipse_2" data-name="&lt;Ellipse&gt;" class="cls-1" cx="116.76" cy="28.01" rx="28.05" ry="12.7"/><ellipse id="_Ellipse_3" data-name="&lt;Ellipse&gt;" class="cls-1" cx="172.85" cy="28.01" rx="28.05" ry="12.7"/><ellipse id="_Ellipse_4" data-name="&lt;Ellipse&gt;" class="cls-1" cx="228.95" cy="28.01" rx="28.05" ry="12.7"/><ellipse id="_Ellipse_5" data-name="&lt;Ellipse&gt;" class="cls-1" cx="60.66" cy="21.91" rx="28.05" ry="12.7"/><ellipse id="_Ellipse_6" data-name="&lt;Ellipse&gt;" class="cls-1" cx="116.76" cy="21.91" rx="28.05" ry="12.7"/><ellipse id="_Ellipse_7" data-name="&lt;Ellipse&gt;" class="cls-1" cx="172.85" cy="21.91" rx="28.05" ry="12.7"/><ellipse id="_Ellipse_8" data-name="&lt;Ellipse&gt;" class="cls-1" cx="228.95" cy="21.91" rx="28.05" ry="12.7"/><line id="_Tracé_" data-name="&lt;Tracé&gt;" class="cls-2" x1="32.36" y1="21.28" x2="32.36" y2="27.92"/><polygon id="_Tracé_2" data-name="&lt;Tracé&gt;" class="cls-3" points="60.68 21.91 60.68 21.91 60.68 21.91 60.68 21.91"/><polygon id="_Tracé_3" data-name="&lt;Tracé&gt;" class="cls-3" points="60.68 21.91 60.68 21.91 60.68 21.91 60.68 21.91"/><g id="_Groupe_2" data-name="&lt;Groupe&gt;"><g id="_Groupe_3" data-name="&lt;Groupe&gt;"><path id="_Tracé_4" data-name="&lt;Tracé&gt;" class="cls-3" d="M82.85,19.82a7.49,7.49,0,0,0-3.19-3.2,6,6,0,0,0-4.52-.15l-6.45,2.68c-1.87.78-.55,2.11,2.1,2.11h9.11C81.75,21.27,83.18,20.58,82.85,19.82Z"/><path id="_Tracé_5" data-name="&lt;Tracé&gt;" class="cls-3" d="M73.37,14a38.21,38.21,0,0,0-7.7-1.32c-1.8-.13-3.45.46-3.45,1.22v3.79c0,1.1,3.2,1.65,5.08.87l6.44-2.68C75.05,15.36,74.89,14.45,73.37,14Z"/><path id="_Tracé_6" data-name="&lt;Tracé&gt;" class="cls-3" d="M55.65,12.7A38.09,38.09,0,0,0,48,14c-1.5.44-1.65,1.34-.36,1.88L54,18.58c1.87.78,5.08.23,5.08-.87V13.92C59.13,13.15,57.46,12.56,55.65,12.7Z"/><path id="_Tracé_7" data-name="&lt;Tracé&gt;" class="cls-3" d="M41.68,16.64a7.42,7.42,0,0,0-3.18,3.2c-.32.75,1.11,1.43,2.94,1.43h9.12c2.65,0,4-1.33,2.1-2.11l-6.44-2.68A6.05,6.05,0,0,0,41.68,16.64Z"/><path id="_Tracé_8" data-name="&lt;Tracé&gt;" class="cls-3" d="M38.5,24a7.49,7.49,0,0,0,3.19,3.2,6,6,0,0,0,4.52.15l6.45-2.68c1.87-.78.55-2.11-2.1-2.11H41.44C39.6,22.56,38.17,23.25,38.5,24Z"/><path id="_Tracé_9" data-name="&lt;Tracé&gt;" class="cls-3" d="M48,29.81a38.21,38.21,0,0,0,7.7,1.32c1.8.13,3.45-.46,3.45-1.22V26.12c0-1.1-3.2-1.65-5.08-.87L47.6,27.92C46.3,28.46,46.47,29.37,48,29.81Z"/><path id="_Tracé_10" data-name="&lt;Tracé&gt;" class="cls-3" d="M65.7,31.13A38.09,38.09,0,0,0,73.4,29.8c1.5-.44,1.65-1.34.36-1.88l-6.45-2.68c-1.87-.78-5.08-.23-5.08.87V29.9C62.23,30.67,63.89,31.26,65.7,31.13Z"/><path id="_Tracé_11" data-name="&lt;Tracé&gt;" class="cls-3" d="M79.68,27.19A7.42,7.42,0,0,0,82.86,24c.32-.75-1.11-1.43-2.94-1.43H70.8c-2.65,0-4,1.33-2.1,2.11l6.44,2.68A6.05,6.05,0,0,0,79.68,27.19Z"/></g><ellipse id="_Ellipse_9" data-name="&lt;Ellipse&gt;" class="cls-3" cx="60.68" cy="21.91" rx="3.7" ry="1.31"/></g><g id="_Groupe_4" data-name="&lt;Groupe&gt;"><g id="_Groupe_5" data-name="&lt;Groupe&gt;"><path id="_Tracé_12" data-name="&lt;Tracé&gt;" class="cls-3" d="M138.93,19.82a7.49,7.49,0,0,0-3.19-3.2,6,6,0,0,0-4.52-.15l-6.45,2.68c-1.87.78-.55,2.11,2.1,2.11H136C137.83,21.27,139.26,20.58,138.93,19.82Z"/><path id="_Tracé_13" data-name="&lt;Tracé&gt;" class="cls-3" d="M129.45,14a38.21,38.21,0,0,0-7.7-1.32c-1.8-.13-3.45.46-3.45,1.22v3.79c0,1.1,3.2,1.65,5.08.87l6.44-2.68C131.13,15.36,131,14.45,129.45,14Z"/><path id="_Tracé_14" data-name="&lt;Tracé&gt;" class="cls-3" d="M111.73,12.7A38.09,38.09,0,0,0,104,14c-1.5.44-1.65,1.34-.36,1.88l6.45,2.68c1.87.78,5.08.23,5.08-.87V13.92C115.21,13.15,113.54,12.56,111.73,12.7Z"/><path id="_Tracé_15" data-name="&lt;Tracé&gt;" class="cls-3" d="M97.76,16.64a7.42,7.42,0,0,0-3.18,3.2c-.32.75,1.11,1.43,2.94,1.43h9.12c2.65,0,4-1.33,2.1-2.11l-6.44-2.68A6.05,6.05,0,0,0,97.76,16.64Z"/><path id="_Tracé_16" data-name="&lt;Tracé&gt;" class="cls-3" d="M94.58,24a7.49,7.49,0,0,0,3.19,3.2,6,6,0,0,0,4.52.15l6.45-2.68c1.87-.78.55-2.11-2.1-2.11H97.52C95.68,22.56,94.26,23.25,94.58,24Z"/><path id="_Tracé_17" data-name="&lt;Tracé&gt;" class="cls-3" d="M104.06,29.81a38.21,38.21,0,0,0,7.7,1.32c1.8.13,3.45-.46,3.45-1.22V26.12c0-1.1-3.2-1.65-5.08-.87l-6.44,2.68C102.38,28.46,102.55,29.37,104.06,29.81Z"/><path id="_Tracé_18" data-name="&lt;Tracé&gt;" class="cls-3" d="M121.78,31.13a38.09,38.09,0,0,0,7.69-1.33c1.5-.44,1.65-1.34.36-1.88l-6.45-2.68c-1.87-.78-5.08-.23-5.08.87V29.9C118.31,30.67,120,31.26,121.78,31.13Z"/><path id="_Tracé_19" data-name="&lt;Tracé&gt;" class="cls-3" d="M135.76,27.19a7.42,7.42,0,0,0,3.18-3.2c.32-.75-1.11-1.43-2.94-1.43h-9.12c-2.65,0-4,1.33-2.1,2.11l6.44,2.68A6.05,6.05,0,0,0,135.76,27.19Z"/></g><ellipse id="_Ellipse_10" data-name="&lt;Ellipse&gt;" class="cls-3" cx="116.76" cy="21.91" rx="3.7" ry="1.31"/></g><g id="_Groupe_6" data-name="&lt;Groupe&gt;"><g id="_Groupe_7" data-name="&lt;Groupe&gt;"><path id="_Tracé_20" data-name="&lt;Tracé&gt;" class="cls-3" d="M195,19.82a7.49,7.49,0,0,0-3.19-3.2,6,6,0,0,0-4.52-.15l-6.45,2.68c-1.87.78-.55,2.11,2.1,2.11h9.11C193.91,21.27,195.34,20.58,195,19.82Z"/><path id="_Tracé_21" data-name="&lt;Tracé&gt;" class="cls-3" d="M185.53,14a38.21,38.21,0,0,0-7.7-1.32c-1.8-.13-3.45.46-3.45,1.22v3.79c0,1.1,3.2,1.65,5.08.87l6.44-2.68C187.21,15.36,187,14.45,185.53,14Z"/><path id="_Tracé_22" data-name="&lt;Tracé&gt;" class="cls-3" d="M167.81,12.7A38.09,38.09,0,0,0,160.12,14c-1.5.44-1.65,1.34-.36,1.88l6.45,2.68c1.87.78,5.08.23,5.08-.87V13.92C171.29,13.15,169.62,12.56,167.81,12.7Z"/><path id="_Tracé_23" data-name="&lt;Tracé&gt;" class="cls-3" d="M153.84,16.64a7.42,7.42,0,0,0-3.18,3.2c-.32.75,1.11,1.43,2.94,1.43h9.12c2.65,0,4-1.33,2.1-2.11l-6.44-2.68A6.05,6.05,0,0,0,153.84,16.64Z"/><path id="_Tracé_24" data-name="&lt;Tracé&gt;" class="cls-3" d="M150.66,24a7.49,7.49,0,0,0,3.19,3.2,6,6,0,0,0,4.52.15l6.45-2.68c1.87-.78.55-2.11-2.1-2.11H153.6C151.76,22.56,150.34,23.25,150.66,24Z"/><path id="_Tracé_25" data-name="&lt;Tracé&gt;" class="cls-3" d="M160.14,29.81a38.21,38.21,0,0,0,7.7,1.32c1.8.13,3.45-.46,3.45-1.22V26.12c0-1.1-3.2-1.65-5.08-.87l-6.44,2.68C158.46,28.46,158.63,29.37,160.14,29.81Z"/><path id="_Tracé_26" data-name="&lt;Tracé&gt;" class="cls-3" d="M177.86,31.13a38.09,38.09,0,0,0,7.69-1.33c1.5-.44,1.65-1.34.36-1.88l-6.45-2.68c-1.87-.78-5.08-.23-5.08.87V29.9C174.39,30.67,176.05,31.26,177.86,31.13Z"/><path id="_Tracé_27" data-name="&lt;Tracé&gt;" class="cls-3" d="M191.84,27.19A7.42,7.42,0,0,0,195,24c.32-.75-1.11-1.43-2.94-1.43H183c-2.65,0-4,1.33-2.1,2.11l6.44,2.68A6.05,6.05,0,0,0,191.84,27.19Z"/></g><ellipse id="_Ellipse_11" data-name="&lt;Ellipse&gt;" class="cls-3" cx="172.84" cy="21.91" rx="3.7" ry="1.31"/></g><g id="_Groupe_8" data-name="&lt;Groupe&gt;"><g id="_Groupe_9" data-name="&lt;Groupe&gt;"><path id="_Tracé_28" data-name="&lt;Tracé&gt;" class="cls-3" d="M251.09,19.82a7.49,7.49,0,0,0-3.19-3.2,6,6,0,0,0-4.52-.15l-6.45,2.68c-1.87.78-.55,2.11,2.1,2.11h9.11C250,21.27,251.42,20.58,251.09,19.82Z"/><path id="_Tracé_29" data-name="&lt;Tracé&gt;" class="cls-3" d="M241.61,14a38.21,38.21,0,0,0-7.7-1.32c-1.8-.13-3.45.46-3.45,1.22v3.79c0,1.1,3.2,1.65,5.08.87L242,15.9C243.29,15.36,243.13,14.45,241.61,14Z"/><path id="_Tracé_30" data-name="&lt;Tracé&gt;" class="cls-3" d="M223.89,12.7A38.09,38.09,0,0,0,216.2,14c-1.5.44-1.65,1.34-.36,1.88l6.45,2.68c1.87.78,5.08.23,5.08-.87V13.92C227.37,13.15,225.7,12.56,223.89,12.7Z"/><path id="_Tracé_31" data-name="&lt;Tracé&gt;" class="cls-3" d="M209.92,16.64a7.42,7.42,0,0,0-3.18,3.2c-.32.75,1.11,1.43,2.94,1.43h9.12c2.65,0,4-1.33,2.1-2.11l-6.44-2.68A6.05,6.05,0,0,0,209.92,16.64Z"/><path id="_Tracé_32" data-name="&lt;Tracé&gt;" class="cls-3" d="M206.74,24a7.49,7.49,0,0,0,3.19,3.2,6,6,0,0,0,4.52.15l6.45-2.68c1.87-.78.55-2.11-2.1-2.11h-9.11C207.84,22.56,206.42,23.25,206.74,24Z"/><path id="_Tracé_33" data-name="&lt;Tracé&gt;" class="cls-3" d="M216.22,29.81a38.21,38.21,0,0,0,7.7,1.32c1.8.13,3.45-.46,3.45-1.22V26.12c0-1.1-3.2-1.65-5.08-.87l-6.44,2.68C214.54,28.46,214.71,29.37,216.22,29.81Z"/><path id="_Tracé_34" data-name="&lt;Tracé&gt;" class="cls-3" d="M233.94,31.13a38.09,38.09,0,0,0,7.69-1.33c1.5-.44,1.65-1.34.36-1.88l-6.45-2.68c-1.87-.78-5.08-.23-5.08.87V29.9C230.47,30.67,232.13,31.26,233.94,31.13Z"/><path id="_Tracé_35" data-name="&lt;Tracé&gt;" class="cls-3" d="M247.92,27.19A7.42,7.42,0,0,0,251.1,24c.32-.75-1.11-1.43-2.94-1.43H239c-2.65,0-4,1.33-2.1,2.11l6.44,2.68A6.05,6.05,0,0,0,247.92,27.19Z"/></g><ellipse id="_Ellipse_12" data-name="&lt;Ellipse&gt;" class="cls-3" cx="228.92" cy="21.91" rx="3.7" ry="1.31"/></g><line id="_Tracé_36" data-name="&lt;Tracé&gt;" class="cls-2" x1="257" y1="21.91" x2="257" y2="28.56"/></g></svg>