<svg id="Calque_1" data-name="Calque 1" xmlns="http://www.w3.org/2000/svg" viewBox="0 0 289.36 49.92"><defs><style>.cls-1{fill:#bcaa9f;}.cls-2{fill:#d8cd9e;}</style></defs><title>cond-8</title><g id="_Groupe_" data-name="&lt;Groupe&gt;"><g id="_Groupe_2" data-name="&lt;Groupe&gt;"><g id="_Groupe_3" data-name="&lt;Groupe&gt;"><path id="_Tracé_" data-name="&lt;Tracé&gt;" class="cls-1" d="M55.43,30.74c3.09-1.86,11.35-7.69-.09-14.92s-22.28-3-25.78-1.43-4.14,3.2-2.54,5.83,7.2,1.19,8.07-.14-1.37-1.72-2.23-2c1-1.21,7.31-.53,7.52,0s-3,2.12-7.31,3.76-8.32,3.5-9.22,4.84S26.55,29,28.25,30s3,3.23,5.4,2.84,6-2.51,9.22-4.84,6.3-4,7.18-3.85,1.46,3.88-.71,4.31C49,28,48.49,26.67,46.12,27s-5.38,3.46-1,4.62S52.34,32.6,55.43,30.74Z"/><path id="_Tracé_transparent_" data-name="&lt;Tracé transparent&gt;" d="M33.07,33.68a6,6,0,0,1-3.9-2,11.26,11.26,0,0,0-1.32-1,16.26,16.26,0,0,0-1.72-.87c-1.53-.7-2.84-1.31-3.13-2.32a1.43,1.43,0,0,1,.22-1.22c.7-1,2.87-2.35,6.44-3.87a4.06,4.06,0,0,1-3.29-1.8,4.45,4.45,0,0,1-.8-3.67c.38-1.24,1.51-2.24,3.67-3.22,5.23-2.39,15.63-5.39,26.5,1.48C59.9,17.81,62,20.59,62,23.43s-2.16,5.56-6.14,8c-3.22,1.94-6.27,2.22-10.88,1-2.52-.66-2.84-2-2.8-2.68a2,2,0,0,1,0-.25c-2.66,1.83-6,3.77-8.4,4.17A4.3,4.3,0,0,1,33.07,33.68Zm2.9-17a22.07,22.07,0,0,1,2.76.19c1.91.26,2.19.58,2.34.94a.92.92,0,0,1,0,.72c-.47,1.08-4.46,2.79-7.73,4-4.88,1.85-8.19,3.56-8.87,4.56.11.34,1.53,1,2.29,1.34a17.11,17.11,0,0,1,1.89,1,12.43,12.43,0,0,1,1.51,1.19c1.08.95,2,1.76,3.37,1.54,2-.32,5.13-2,8.91-4.71,1.41-1,6.13-4.3,7.76-4,1,.19,1.39,1.54,1.39,2.73a2.82,2.82,0,0,1-2.1,3.06l-.48.1-.28-.4-.16-.25c-.34-.55-.72-1.17-2.33-.91-1.2.19-2.56,1.24-2.6,2,0,.44.61.87,1.69,1.15,4.23,1.11,6.86.89,9.73-.84h0c2.45-1.48,5.39-3.84,5.42-6.69,0-2.29-1.83-4.63-5.52-7C44.68,10,34.83,12.8,29.87,15.07c-1.69.77-2.62,1.52-2.86,2.3a3.13,3.13,0,0,0,.65,2.45,3,3,0,0,0,2.61,1.11c2,0,3.9-.81,4.2-1.27a.43.43,0,0,0,.07-.15A4.58,4.58,0,0,0,33,18.91l-.37-.1-1.06-.32.68-.87C32.87,16.86,34.49,16.67,36,16.67Zm11,9.56a3,3,0,0,1,2.62,1.34,1.28,1.28,0,0,0,.37-.63,3,3,0,0,0-.18-2A10.46,10.46,0,0,0,47,26.23ZM35.24,18.18a1.77,1.77,0,0,1,.7.83,1.43,1.43,0,0,1,.05.84,29.1,29.1,0,0,0,3-1.46A20.35,20.35,0,0,0,35.24,18.18Z"/></g><g id="_Groupe_4" data-name="&lt;Groupe&gt;"><path id="_Tracé_2" data-name="&lt;Tracé&gt;" class="cls-2" d="M55.43,28.42c3.09-1.86,11.35-7.69-.09-14.92s-22.28-3-25.78-1.43-4.14,3.2-2.54,5.83,7.2,1.19,8.07-.14-1.37-1.72-2.23-2c1-1.21,7.31-.53,7.52,0s-3,2.12-7.31,3.76-8.32,3.5-9.22,4.84,2.71,2.28,4.41,3.36,3,3.23,5.4,2.84,6-2.51,9.22-4.84,6.3-4,7.18-3.85,1.46,3.88-.71,4.31c-.37-.52-.85-1.84-3.22-1.46s-5.38,3.46-1,4.62S52.34,30.28,55.43,28.42Z"/><path id="_Tracé_transparent_2" data-name="&lt;Tracé transparent&gt;" d="M33.07,31.36a6,6,0,0,1-3.9-2,11.26,11.26,0,0,0-1.32-1,16.18,16.18,0,0,0-1.72-.87c-1.53-.7-2.84-1.31-3.13-2.32a1.43,1.43,0,0,1,.22-1.22c.7-1,2.87-2.35,6.44-3.87a4.06,4.06,0,0,1-3.29-1.8,4.45,4.45,0,0,1-.8-3.67c.38-1.24,1.51-2.24,3.67-3.22C34.48,9,44.88,6,55.74,12.86,59.9,15.49,62,18.26,62,21.1s-2.16,5.56-6.14,8c-3.22,1.94-6.27,2.22-10.88,1-2.52-.66-2.84-2-2.8-2.68a2,2,0,0,1,0-.25c-2.66,1.83-6,3.77-8.4,4.17A4.29,4.29,0,0,1,33.07,31.36Zm2.9-17a22,22,0,0,1,2.76.19c1.91.26,2.19.58,2.34.94a.92.92,0,0,1,0,.72c-.47,1.08-4.46,2.79-7.73,4-4.88,1.85-8.19,3.56-8.87,4.56.11.34,1.53,1,2.29,1.34a17,17,0,0,1,1.89,1,12.42,12.42,0,0,1,1.51,1.19c1.08.95,2,1.76,3.37,1.54,2-.32,5.13-2,8.91-4.71,1.41-1,6.11-4.3,7.76-4,1,.19,1.39,1.54,1.39,2.73a2.82,2.82,0,0,1-2.1,3.06L49,27l-.28-.4-.16-.25c-.34-.55-.72-1.16-2.33-.91-1.2.19-2.56,1.24-2.6,2,0,.44.61.87,1.69,1.15,4.23,1.11,6.86.89,9.73-.84h0c2.45-1.48,5.39-3.83,5.42-6.69,0-2.29-1.83-4.63-5.52-7-10.27-6.49-20.11-3.65-25.07-1.38-1.69.77-2.62,1.52-2.86,2.3a3.13,3.13,0,0,0,.65,2.45,3,3,0,0,0,2.61,1.11c2,0,3.9-.81,4.2-1.27a.43.43,0,0,0,.07-.15A4.56,4.56,0,0,0,33,16.59l-.37-.1-1.06-.32.68-.87C32.87,14.54,34.49,14.34,36,14.34ZM47,23.9a3,3,0,0,1,2.61,1.34,1.28,1.28,0,0,0,.37-.63,3,3,0,0,0-.18-2A10.46,10.46,0,0,0,47,23.9ZM35.24,15.85a1.77,1.77,0,0,1,.71.83,1.43,1.43,0,0,1,.05.84,29.12,29.12,0,0,0,3-1.46A20.17,20.17,0,0,0,35.24,15.85Z"/></g></g><g id="_Groupe_5" data-name="&lt;Groupe&gt;"><g id="_Groupe_6" data-name="&lt;Groupe&gt;"><path id="_Tracé_3" data-name="&lt;Tracé&gt;" class="cls-1" d="M93.92,37.19c3.09-1.86,11.35-7.69-.09-14.92s-22.28-3-25.78-1.43-4.14,3.2-2.54,5.83,7.2,1.19,8.07-.14-1.37-1.72-2.23-2c1-1.21,7.31-.53,7.52,0s-3,2.12-7.31,3.76-8.32,3.5-9.22,4.84,2.71,2.28,4.41,3.36,3,3.23,5.4,2.84,6-2.51,9.22-4.84,6.3-4,7.18-3.85S90,34.52,87.82,35c-.37-.52-.85-1.84-3.22-1.46s-5.38,3.46-1,4.62S90.83,39,93.92,37.19Z"/><path id="_Tracé_transparent_3" data-name="&lt;Tracé transparent&gt;" d="M71.56,40.13a6,6,0,0,1-3.9-2,11.09,11.09,0,0,0-1.32-1,16.26,16.26,0,0,0-1.72-.87c-1.53-.7-2.84-1.31-3.13-2.32a1.43,1.43,0,0,1,.22-1.22c.7-1,2.87-2.35,6.44-3.87A4.06,4.06,0,0,1,64.87,27a4.45,4.45,0,0,1-.8-3.67c.38-1.24,1.51-2.24,3.67-3.22,5.23-2.39,15.63-5.39,26.5,1.48,4.16,2.63,6.25,5.4,6.22,8.24s-2.16,5.56-6.14,8h0c-3.22,1.94-6.27,2.22-10.88,1-2.52-.66-2.84-2-2.8-2.68a2.25,2.25,0,0,1,0-.25c-2.66,1.83-6,3.77-8.4,4.17A4.3,4.3,0,0,1,71.56,40.13Zm2.89-17a22.12,22.12,0,0,1,2.78.19c1.9.26,2.18.58,2.33.94a.92.92,0,0,1,0,.72c-.47,1.08-4.46,2.79-7.73,4-7.23,2.75-8.61,4.18-8.87,4.56.11.34,1.53,1,2.29,1.34a17.11,17.11,0,0,1,1.89,1A12.48,12.48,0,0,1,68.65,37c1.08.95,2,1.77,3.37,1.54,2-.32,5.13-2,8.9-4.71,1.41-1,6.15-4.31,7.76-4,1,.19,1.39,1.54,1.39,2.73A2.82,2.82,0,0,1,88,35.69l-.48.1-.28-.4-.16-.25c-.34-.55-.72-1.17-2.33-.91-1.2.19-2.56,1.24-2.6,2,0,.44.61.87,1.69,1.15,4.22,1.11,6.86.89,9.73-.84h0C96,35.07,98.92,32.71,99,29.86c0-2.29-1.83-4.63-5.52-7-10.27-6.49-20.11-3.65-25.07-1.38-1.69.77-2.62,1.52-2.86,2.3a3.13,3.13,0,0,0,.65,2.45,3,3,0,0,0,2.6,1.11c2.07,0,3.9-.81,4.2-1.27A.43.43,0,0,0,73,26a4.57,4.57,0,0,0-1.52-.59l-.37-.1-1.06-.32.68-.87C71.36,23.31,73,23.11,74.45,23.11Zm11,9.56A3,3,0,0,1,88.11,34a1.28,1.28,0,0,0,.37-.63,3,3,0,0,0-.17-2A10.49,10.49,0,0,0,85.49,32.67ZM73.73,24.62a1.77,1.77,0,0,1,.71.83,1.42,1.42,0,0,1,.05.84,29.33,29.33,0,0,0,3-1.46A20,20,0,0,0,73.73,24.62Z"/></g><g id="_Groupe_7" data-name="&lt;Groupe&gt;"><path id="_Tracé_4" data-name="&lt;Tracé&gt;" class="cls-2" d="M93.92,34.86C97,33,105.27,27.17,93.83,19.94s-22.28-3-25.78-1.43-4.14,3.2-2.54,5.83,7.2,1.19,8.07-.14-1.37-1.72-2.23-2c1-1.21,7.31-.53,7.52,0s-3,2.12-7.31,3.76-8.32,3.5-9.22,4.84,2.71,2.28,4.41,3.36,3,3.23,5.4,2.84,6-2.51,9.22-4.84,6.3-4,7.18-3.85,1.46,3.88-.71,4.31c-.37-.52-.85-1.84-3.22-1.46s-5.38,3.46-1,4.62S90.83,36.72,93.92,34.86Z"/><path id="_Tracé_transparent_4" data-name="&lt;Tracé transparent&gt;" d="M71.56,37.8a6,6,0,0,1-3.9-2,11.17,11.17,0,0,0-1.32-1,16.26,16.26,0,0,0-1.72-.87c-1.53-.7-2.84-1.31-3.13-2.32a1.43,1.43,0,0,1,.22-1.22c.7-1,2.87-2.35,6.44-3.87a4.07,4.07,0,0,1-3.29-1.8,4.45,4.45,0,0,1-.8-3.67c.38-1.24,1.51-2.24,3.67-3.22,5.23-2.39,15.63-5.39,26.5,1.48,4.16,2.63,6.25,5.4,6.22,8.24s-2.16,5.56-6.14,8c-3.22,1.94-6.27,2.22-10.88,1-2.52-.66-2.84-2-2.8-2.68a2.25,2.25,0,0,1,0-.26c-2.66,1.83-6,3.77-8.4,4.17A4.3,4.3,0,0,1,71.56,37.8Zm2.89-17a22.06,22.06,0,0,1,2.78.19c1.9.26,2.18.58,2.33.94a.92.92,0,0,1,0,.72c-.47,1.08-4.46,2.79-7.73,4-4.88,1.85-8.19,3.56-8.87,4.56.11.34,1.53,1,2.29,1.34a17.11,17.11,0,0,1,1.89,1,12.43,12.43,0,0,1,1.51,1.19c1.08.95,2,1.77,3.37,1.54,2-.32,5.13-2,8.9-4.71,1.41-1,6.13-4.31,7.76-4,1,.19,1.39,1.54,1.39,2.73A2.82,2.82,0,0,1,88,33.36l-.48.1-.28-.4-.16-.25c-.34-.55-.73-1.17-2.33-.91-1.2.19-2.56,1.24-2.6,2,0,.44.61.87,1.69,1.15,4.23,1.11,6.86.89,9.73-.84C96,32.74,98.92,30.38,99,27.53c0-2.29-1.83-4.63-5.52-7-10.27-6.49-20.11-3.65-25.07-1.38-1.69.77-2.62,1.52-2.86,2.3a3.13,3.13,0,0,0,.65,2.45,3,3,0,0,0,2.61,1.11h.13A6.28,6.28,0,0,0,73,23.78a.43.43,0,0,0,.07-.15A4.57,4.57,0,0,0,71.5,23l-.37-.1-1.06-.32.68-.87C71.36,21,73,20.79,74.45,20.79Zm11,9.56a3,3,0,0,1,2.62,1.34,1.28,1.28,0,0,0,.37-.63,3,3,0,0,0-.17-2A10.45,10.45,0,0,0,85.49,30.35ZM73.73,22.3a1.77,1.77,0,0,1,.7.83,1.43,1.43,0,0,1,.05.84,29.1,29.1,0,0,0,3-1.46A20.34,20.34,0,0,0,73.73,22.3Z"/></g></g><g id="_Groupe_8" data-name="&lt;Groupe&gt;"><g id="_Groupe_9" data-name="&lt;Groupe&gt;"><path id="_Tracé_5" data-name="&lt;Tracé&gt;" class="cls-1" d="M135.41,30.74c3.09-1.86,11.35-7.69-.09-14.92s-22.28-3-25.78-1.43-4.14,3.2-2.54,5.83,7.2,1.19,8.07-.14-1.37-1.72-2.23-2c1-1.21,7.31-.53,7.52,0s-3,2.12-7.31,3.76-8.32,3.5-9.22,4.84S106.53,29,108.23,30s3,3.23,5.4,2.84,6-2.51,9.22-4.84,6.3-4,7.18-3.85,1.46,3.88-.71,4.31c-.37-.52-.85-1.84-3.22-1.46s-5.38,3.46-1,4.62S132.32,32.6,135.41,30.74Z"/><path id="_Tracé_transparent_5" data-name="&lt;Tracé transparent&gt;" d="M113.05,33.68a6,6,0,0,1-3.9-2,11.26,11.26,0,0,0-1.32-1,16.23,16.23,0,0,0-1.72-.87c-1.53-.7-2.84-1.31-3.13-2.32a1.43,1.43,0,0,1,.22-1.22c.71-1,2.87-2.35,6.44-3.87a4.06,4.06,0,0,1-3.29-1.8,4.45,4.45,0,0,1-.8-3.67c.38-1.24,1.51-2.24,3.67-3.22,5.23-2.39,15.63-5.39,26.5,1.48,4.16,2.63,6.25,5.4,6.22,8.24s-2.16,5.56-6.14,8h0c-3.22,1.94-6.27,2.22-10.88,1-2.52-.66-2.84-2-2.8-2.68a2.05,2.05,0,0,1,0-.26c-2.66,1.83-6,3.77-8.4,4.17A4.3,4.3,0,0,1,113.05,33.68Zm2.9-17a22.07,22.07,0,0,1,2.76.19c1.92.26,2.2.58,2.35.94a.92.92,0,0,1,0,.72c-.47,1.08-4.46,2.79-7.73,4-4.88,1.85-8.19,3.56-8.87,4.56.11.34,1.53,1,2.29,1.34a17.2,17.2,0,0,1,1.89,1,12.43,12.43,0,0,1,1.51,1.19c1.08.95,2,1.76,3.37,1.54,2-.32,5.13-2,8.91-4.71,1.41-1,6.13-4.3,7.76-4,1,.19,1.39,1.54,1.39,2.73a2.82,2.82,0,0,1-2.1,3.06l-.48.1-.28-.4-.16-.25c-.34-.55-.72-1.17-2.33-.91-1.2.19-2.56,1.24-2.6,2,0,.44.61.87,1.69,1.15,4.23,1.11,6.86.89,9.73-.84,2.45-1.48,5.39-3.84,5.42-6.69,0-2.29-1.83-4.63-5.52-7-10.26-6.49-20.11-3.65-25.07-1.38-1.69.77-2.62,1.52-2.86,2.3a3.14,3.14,0,0,0,.65,2.45,3,3,0,0,0,2.61,1.11c2,0,3.9-.81,4.2-1.27a.43.43,0,0,0,.07-.15,4.57,4.57,0,0,0-1.52-.59l-.37-.1-1.06-.32.68-.87C112.85,16.86,114.48,16.67,115.95,16.67Zm11,9.56a3,3,0,0,1,2.62,1.34,1.28,1.28,0,0,0,.37-.63,3,3,0,0,0-.18-2A10.46,10.46,0,0,0,127,26.23Zm-11.77-8.05a1.77,1.77,0,0,1,.71.83,1.42,1.42,0,0,1,.05.84,29,29,0,0,0,3-1.46A20.2,20.2,0,0,0,115.22,18.18Z"/></g><g id="_Groupe_10" data-name="&lt;Groupe&gt;"><path id="_Tracé_6" data-name="&lt;Tracé&gt;" class="cls-2" d="M135.41,28.42c3.09-1.86,11.35-7.69-.09-14.92s-22.28-3-25.78-1.43-4.14,3.2-2.54,5.83,7.2,1.19,8.07-.14-1.37-1.72-2.23-2c1-1.21,7.31-.53,7.52,0s-3,2.12-7.31,3.76-8.32,3.5-9.22,4.84,2.71,2.28,4.41,3.36,3,3.23,5.4,2.84,6-2.51,9.22-4.84,6.3-4,7.18-3.85,1.46,3.88-.71,4.31c-.37-.52-.85-1.84-3.22-1.46s-5.38,3.46-1,4.62S132.32,30.28,135.41,28.42Z"/><path id="_Tracé_transparent_6" data-name="&lt;Tracé transparent&gt;" d="M113.05,31.36a6,6,0,0,1-3.9-2,11.26,11.26,0,0,0-1.32-1,16.25,16.25,0,0,0-1.72-.87c-1.53-.7-2.84-1.31-3.13-2.32a1.43,1.43,0,0,1,.22-1.22c.7-1,2.87-2.35,6.44-3.87a4.06,4.06,0,0,1-3.29-1.8,4.45,4.45,0,0,1-.8-3.67c.38-1.24,1.51-2.24,3.67-3.22C114.46,9,124.86,6,135.72,12.86c4.16,2.63,6.25,5.4,6.22,8.24s-2.16,5.56-6.14,8h0c-3.22,1.94-6.27,2.22-10.88,1-2.52-.66-2.84-2-2.8-2.68a2,2,0,0,1,0-.25c-2.66,1.83-6,3.77-8.4,4.17A4.29,4.29,0,0,1,113.05,31.36Zm2.9-17a22,22,0,0,1,2.76.19c1.92.26,2.19.58,2.34.94a.92.92,0,0,1,0,.72c-.47,1.08-4.46,2.79-7.73,4-4.88,1.85-8.19,3.56-8.87,4.56.11.34,1.53,1,2.29,1.34a17,17,0,0,1,1.89,1,12.42,12.42,0,0,1,1.51,1.19c1.08.95,2,1.76,3.37,1.54,2-.32,5.13-2,8.91-4.71,1.41-1,6.11-4.3,7.76-4,1,.19,1.39,1.54,1.39,2.73a2.82,2.82,0,0,1-2.1,3.06L129,27l-.28-.4-.16-.25c-.34-.55-.72-1.16-2.33-.91-1.2.19-2.56,1.24-2.6,2,0,.44.61.87,1.69,1.15,4.22,1.11,6.86.89,9.73-.84,2.45-1.48,5.39-3.84,5.42-6.69,0-2.29-1.83-4.63-5.52-7-10.27-6.49-20.11-3.65-25.07-1.38-1.69.77-2.62,1.52-2.86,2.3a3.14,3.14,0,0,0,.65,2.45,3,3,0,0,0,2.6,1.11c2.07,0,3.9-.81,4.2-1.27a.43.43,0,0,0,.07-.15,4.55,4.55,0,0,0-1.52-.59l-.37-.1-1.05-.32.68-.87C112.85,14.54,114.48,14.34,115.95,14.34Zm11,9.56a3,3,0,0,1,2.61,1.34,1.28,1.28,0,0,0,.37-.63,3,3,0,0,0-.18-2A10.46,10.46,0,0,0,127,23.9Zm-11.77-8.05a1.77,1.77,0,0,1,.71.83,1.42,1.42,0,0,1,.05.84,29.1,29.1,0,0,0,3-1.46A20.18,20.18,0,0,0,115.22,15.85Z"/></g></g><g id="_Groupe_11" data-name="&lt;Groupe&gt;"><g id="_Groupe_12" data-name="&lt;Groupe&gt;"><path id="_Tracé_7" data-name="&lt;Tracé&gt;" class="cls-1" d="M176.9,37.19c3.09-1.86,11.35-7.69-.09-14.92s-22.28-3-25.78-1.43-4.14,3.2-2.54,5.83,7.2,1.19,8.07-.14-1.37-1.72-2.23-2c1-1.21,7.31-.53,7.52,0s-3,2.12-7.31,3.76-8.32,3.5-9.22,4.84,2.71,2.28,4.41,3.36,3,3.23,5.4,2.84,6-2.51,9.22-4.84,6.3-4,7.18-3.85S173,34.52,170.8,35c-.37-.52-.85-1.84-3.22-1.46s-5.38,3.46-1,4.62S173.81,39,176.9,37.19Z"/><path id="_Tracé_transparent_7" data-name="&lt;Tracé transparent&gt;" d="M154.54,40.13a6,6,0,0,1-3.9-2,11.09,11.09,0,0,0-1.32-1,16.26,16.26,0,0,0-1.72-.87c-1.53-.7-2.84-1.31-3.13-2.32a1.43,1.43,0,0,1,.22-1.22c.7-1,2.87-2.35,6.44-3.87a4.06,4.06,0,0,1-3.29-1.8,4.45,4.45,0,0,1-.8-3.67c.38-1.24,1.51-2.24,3.67-3.22,5.23-2.39,15.63-5.39,26.5,1.48,4.16,2.63,6.25,5.4,6.22,8.24s-2.16,5.56-6.14,8c-3.22,1.94-6.27,2.22-10.88,1-2.52-.66-2.84-2-2.8-2.68a2.26,2.26,0,0,1,0-.25c-2.66,1.83-6,3.77-8.4,4.17A4.3,4.3,0,0,1,154.54,40.13Zm2.89-17a22.12,22.12,0,0,1,2.78.19c1.9.26,2.18.58,2.33.94a.92.92,0,0,1,0,.72c-.47,1.08-4.46,2.79-7.73,4-4.88,1.85-8.19,3.56-8.87,4.56.11.34,1.53,1,2.29,1.34a17.11,17.11,0,0,1,1.89,1A12.48,12.48,0,0,1,151.63,37c1.08.95,2,1.77,3.37,1.54,2-.32,5.13-2,8.9-4.71,1.41-1,6.15-4.31,7.76-4,1,.19,1.39,1.54,1.39,2.73a2.82,2.82,0,0,1-2.1,3.06l-.48.1-.28-.4-.16-.25c-.34-.55-.72-1.17-2.33-.91-1.2.19-2.56,1.24-2.6,2,0,.44.61.87,1.69,1.15,4.23,1.11,6.86.89,9.73-.84h0c2.45-1.48,5.39-3.84,5.42-6.69,0-2.29-1.83-4.63-5.52-7-10.26-6.49-20.11-3.65-25.07-1.38-1.69.77-2.62,1.52-2.86,2.3a3.13,3.13,0,0,0,.65,2.45,3,3,0,0,0,2.6,1.11c2.07,0,3.9-.81,4.2-1.27A.43.43,0,0,0,156,26a4.57,4.57,0,0,0-1.52-.59l-.37-.1-1.06-.32.68-.87C154.34,23.31,156,23.11,157.43,23.11Zm11,9.56A3,3,0,0,1,171.09,34a1.28,1.28,0,0,0,.37-.63,3,3,0,0,0-.18-2A10.49,10.49,0,0,0,168.47,32.67Zm-11.77-8.05a1.77,1.77,0,0,1,.71.83,1.42,1.42,0,0,1,.05.84,29.33,29.33,0,0,0,3-1.46A20,20,0,0,0,156.71,24.62Z"/></g><g id="_Groupe_13" data-name="&lt;Groupe&gt;"><path id="_Tracé_8" data-name="&lt;Tracé&gt;" class="cls-2" d="M176.9,34.86c3.09-1.86,11.35-7.69-.09-14.92s-22.28-3-25.78-1.43-4.14,3.2-2.54,5.83,7.2,1.19,8.07-.14-1.37-1.72-2.23-2c1-1.21,7.31-.53,7.52,0s-3,2.12-7.31,3.76-8.32,3.5-9.22,4.84,2.71,2.28,4.41,3.36,3,3.23,5.4,2.84,6-2.51,9.22-4.84,6.3-4,7.18-3.85,1.46,3.88-.71,4.31c-.37-.52-.85-1.84-3.22-1.46s-5.38,3.46-1,4.62S173.81,36.72,176.9,34.86Z"/><path id="_Tracé_transparent_8" data-name="&lt;Tracé transparent&gt;" d="M154.54,37.8a6,6,0,0,1-3.9-2,11.17,11.17,0,0,0-1.32-1,16.26,16.26,0,0,0-1.72-.87c-1.53-.7-2.84-1.31-3.13-2.32a1.43,1.43,0,0,1,.22-1.22c.7-1,2.87-2.35,6.44-3.87a4.07,4.07,0,0,1-3.29-1.8,4.45,4.45,0,0,1-.8-3.67c.38-1.24,1.51-2.24,3.67-3.22,5.23-2.39,15.63-5.39,26.5,1.48,4.16,2.63,6.25,5.4,6.22,8.24s-2.16,5.56-6.14,8c-3.22,1.94-6.27,2.22-10.88,1-2.52-.66-2.84-2-2.8-2.68a2.26,2.26,0,0,1,0-.26c-2.66,1.83-6,3.77-8.4,4.17A4.3,4.3,0,0,1,154.54,37.8Zm2.89-17a22.06,22.06,0,0,1,2.78.19c1.9.26,2.18.58,2.33.94a.92.92,0,0,1,0,.72c-.47,1.08-4.46,2.79-7.73,4-4.88,1.85-8.19,3.56-8.87,4.56.11.34,1.53,1,2.29,1.34a17.11,17.11,0,0,1,1.89,1,12.43,12.43,0,0,1,1.51,1.19c1.08.95,2,1.77,3.37,1.54,2-.32,5.13-2,8.9-4.71,1.41-1,6.13-4.31,7.76-4,1,.19,1.39,1.54,1.39,2.73a2.82,2.82,0,0,1-2.1,3.06l-.48.1-.28-.4-.16-.25c-.34-.55-.73-1.17-2.33-.91-1.2.19-2.56,1.24-2.6,2,0,.44.61.87,1.69,1.15,4.22,1.11,6.86.89,9.73-.84h0c2.45-1.48,5.39-3.84,5.42-6.69,0-2.29-1.83-4.63-5.52-7-10.26-6.49-20.11-3.65-25.07-1.38-1.69.77-2.62,1.52-2.86,2.3a3.13,3.13,0,0,0,.65,2.45,3,3,0,0,0,2.61,1.11h.13a6.28,6.28,0,0,0,4.07-1.27.43.43,0,0,0,.07-.15,4.57,4.57,0,0,0-1.53-.59l-.37-.1-1.06-.32.68-.87C154.34,21,156,20.79,157.43,20.79Zm11,9.56a3,3,0,0,1,2.62,1.34,1.28,1.28,0,0,0,.37-.63,3,3,0,0,0-.18-2A10.45,10.45,0,0,0,168.47,30.35ZM156.71,22.3a1.77,1.77,0,0,1,.7.83,1.43,1.43,0,0,1,.05.84,29.1,29.1,0,0,0,3-1.46A20.34,20.34,0,0,0,156.71,22.3Z"/></g></g><g id="_Groupe_14" data-name="&lt;Groupe&gt;"><g id="_Groupe_15" data-name="&lt;Groupe&gt;"><path id="_Tracé_9" data-name="&lt;Tracé&gt;" class="cls-1" d="M259.88,38.35c3.09-1.86,11.35-7.69-.09-14.92S237.51,20.4,234,22s-4.14,3.2-2.54,5.83,7.2,1.19,8.07-.14-1.37-1.72-2.23-2c1-1.21,7.31-.53,7.52,0s-3,2.12-7.31,3.76-8.32,3.5-9.22,4.84,2.71,2.28,4.41,3.36,3,3.23,5.4,2.84,6-2.51,9.22-4.84,6.3-4,7.18-3.85,1.46,3.88-.71,4.31c-.37-.52-.85-1.84-3.22-1.46s-5.38,3.46-1,4.62S256.79,40.21,259.88,38.35Z"/><path id="_Tracé_transparent_9" data-name="&lt;Tracé transparent&gt;" d="M237.52,41.29a6,6,0,0,1-3.9-2,11.17,11.17,0,0,0-1.32-1,16.26,16.26,0,0,0-1.72-.87c-1.53-.7-2.84-1.31-3.13-2.32a1.43,1.43,0,0,1,.22-1.22c.7-1,2.87-2.35,6.44-3.87a4.06,4.06,0,0,1-3.29-1.8,4.45,4.45,0,0,1-.8-3.67c.38-1.24,1.51-2.24,3.67-3.22,5.23-2.39,15.63-5.39,26.5,1.48,4.16,2.63,6.25,5.4,6.22,8.24s-2.16,5.56-6.14,8c-3.22,1.94-6.27,2.22-10.88,1-2.52-.66-2.84-2-2.8-2.68a2,2,0,0,1,0-.25c-2.66,1.83-6,3.77-8.4,4.17A4.3,4.3,0,0,1,237.52,41.29Zm2.9-17a22.07,22.07,0,0,1,2.76.19c1.91.26,2.19.58,2.34.94a.92.92,0,0,1,0,.72c-.47,1.08-4.46,2.79-7.73,4-4.88,1.85-8.19,3.56-8.87,4.56.11.34,1.53,1,2.29,1.34a17.11,17.11,0,0,1,1.89,1,12.39,12.39,0,0,1,1.51,1.19c1.08.95,2,1.76,3.37,1.54,2-.32,5.13-2,8.91-4.71,1.41-1,6.14-4.29,7.76-4,1,.19,1.39,1.54,1.39,2.73a2.82,2.82,0,0,1-2.1,3.06l-.48.1-.28-.4L253,36.3c-.34-.55-.72-1.17-2.33-.91-1.2.19-2.56,1.24-2.6,2,0,.44.61.87,1.69,1.15,4.22,1.11,6.86.89,9.73-.84h0c2.45-1.48,5.39-3.84,5.42-6.69,0-2.29-1.83-4.63-5.52-7-10.26-6.49-20.11-3.65-25.07-1.38-1.69.77-2.62,1.52-2.86,2.3a3.13,3.13,0,0,0,.65,2.45,3,3,0,0,0,2.61,1.11c2,0,3.89-.81,4.2-1.27a.43.43,0,0,0,.07-.15,4.58,4.58,0,0,0-1.53-.59l-.37-.1L236,26.1l.68-.87C237.32,24.47,238.94,24.27,240.42,24.27Zm11,9.56a3,3,0,0,1,2.62,1.34,1.28,1.28,0,0,0,.37-.63,3,3,0,0,0-.18-2A10.46,10.46,0,0,0,251.45,33.84Zm-11.77-8.05a1.77,1.77,0,0,1,.7.83,1.43,1.43,0,0,1,.05.84,29,29,0,0,0,3-1.46A20.33,20.33,0,0,0,239.69,25.78Z"/></g><g id="_Groupe_16" data-name="&lt;Groupe&gt;"><path id="_Tracé_10" data-name="&lt;Tracé&gt;" class="cls-2" d="M259.88,36c3.09-1.86,11.35-7.69-.09-14.92s-22.28-3-25.78-1.43-4.14,3.2-2.54,5.83,7.2,1.19,8.07-.14-1.37-1.72-2.23-2c1-1.21,7.31-.53,7.52,0s-3,2.12-7.31,3.76-8.32,3.5-9.22,4.84,2.71,2.28,4.41,3.36,3,3.23,5.4,2.84,6-2.51,9.22-4.84,6.3-4,7.18-3.85,1.46,3.88-.71,4.31c-.37-.52-.85-1.84-3.22-1.46s-5.38,3.46-1,4.62S256.79,37.88,259.88,36Z"/><path id="_Tracé_transparent_10" data-name="&lt;Tracé transparent&gt;" d="M237.52,39a6,6,0,0,1-3.9-2,11.26,11.26,0,0,0-1.32-1,16.18,16.18,0,0,0-1.72-.87c-1.53-.7-2.84-1.31-3.13-2.32a1.43,1.43,0,0,1,.22-1.22c.7-1,2.87-2.35,6.44-3.87a4.06,4.06,0,0,1-3.29-1.8,4.45,4.45,0,0,1-.8-3.67C230.41,21,231.54,20,233.7,19c5.23-2.39,15.63-5.39,26.5,1.48,4.16,2.63,6.25,5.4,6.22,8.24s-2.16,5.56-6.14,8c-3.22,1.94-6.27,2.22-10.88,1-2.52-.66-2.84-2-2.8-2.68a2,2,0,0,1,0-.25c-2.66,1.83-6,3.77-8.4,4.17A4.29,4.29,0,0,1,237.52,39Zm2.9-17a22,22,0,0,1,2.76.19c1.91.26,2.19.58,2.34.94a.92.92,0,0,1,0,.72c-.47,1.08-4.46,2.79-7.73,4-4.88,1.85-8.19,3.56-8.87,4.56.11.34,1.53,1,2.29,1.34a17,17,0,0,1,1.89,1,12.42,12.42,0,0,1,1.51,1.19c1.08.95,2,1.77,3.37,1.54,2-.32,5.13-2,8.91-4.71,1.41-1,6.11-4.3,7.76-4,1,.19,1.39,1.54,1.39,2.73a2.82,2.82,0,0,1-2.1,3.06l-.48.1-.28-.4L253,34c-.34-.55-.72-1.17-2.33-.91-1.2.19-2.56,1.24-2.6,2,0,.44.61.87,1.69,1.15,4.22,1.11,6.86.89,9.73-.84h0c2.45-1.48,5.39-3.83,5.42-6.69,0-2.29-1.83-4.63-5.52-7-10.27-6.49-20.11-3.65-25.07-1.38-1.69.77-2.62,1.52-2.86,2.3a3.13,3.13,0,0,0,.65,2.45,3,3,0,0,0,2.61,1.11h.13a6.28,6.28,0,0,0,4.07-1.27.43.43,0,0,0,.07-.15,4.57,4.57,0,0,0-1.52-.59l-.37-.1L236,23.78l.68-.87C237.32,22.14,238.94,21.95,240.42,21.95Zm11,9.56a3,3,0,0,1,2.61,1.34,1.28,1.28,0,0,0,.37-.63,3,3,0,0,0-.18-2A10.46,10.46,0,0,0,251.45,31.51Zm-11.77-8.05a1.77,1.77,0,0,1,.71.83,1.42,1.42,0,0,1,.05.84,29.22,29.22,0,0,0,3-1.46A20.14,20.14,0,0,0,239.69,23.46Z"/></g></g><g id="_Groupe_17" data-name="&lt;Groupe&gt;"><g id="_Groupe_18" data-name="&lt;Groupe&gt;"><path id="_Tracé_11" data-name="&lt;Tracé&gt;" class="cls-1" d="M218.39,30.74c3.09-1.86,11.35-7.69-.09-14.92s-22.28-3-25.78-1.43-4.14,3.2-2.54,5.83,7.2,1.19,8.07-.14-1.37-1.72-2.23-2c1-1.21,7.31-.53,7.52,0s-3,2.12-7.31,3.76-8.32,3.5-9.22,4.84S189.51,29,191.21,30s3,3.23,5.4,2.84,6-2.51,9.22-4.84,6.3-4,7.18-3.85,1.46,3.88-.71,4.31c-.37-.52-.85-1.84-3.22-1.46s-5.38,3.46-1,4.62S215.3,32.6,218.39,30.74Z"/><path id="_Tracé_transparent_11" data-name="&lt;Tracé transparent&gt;" d="M196,33.68a6,6,0,0,1-3.9-2,11.26,11.26,0,0,0-1.32-1,16.23,16.23,0,0,0-1.72-.87c-1.53-.7-2.84-1.31-3.13-2.32a1.43,1.43,0,0,1,.22-1.22c.71-1,2.87-2.35,6.44-3.87a4.07,4.07,0,0,1-3.29-1.8,4.45,4.45,0,0,1-.8-3.67c.38-1.24,1.51-2.24,3.67-3.23,5.23-2.39,15.63-5.39,26.5,1.48,4.16,2.63,6.25,5.4,6.22,8.24s-2.16,5.56-6.14,8h0c-3.22,1.94-6.27,2.22-10.88,1-2.52-.66-2.84-2-2.8-2.68a2.25,2.25,0,0,1,0-.26c-2.66,1.83-6,3.77-8.4,4.17A4.3,4.3,0,0,1,196,33.68Zm2.9-17a22.07,22.07,0,0,1,2.76.19c1.92.26,2.2.58,2.35.94a.92.92,0,0,1,0,.72c-.47,1.08-4.46,2.79-7.73,4-4.88,1.85-8.19,3.56-8.87,4.56.11.34,1.53,1,2.29,1.34a17.2,17.2,0,0,1,1.89,1,12.43,12.43,0,0,1,1.51,1.19c1.08.95,2,1.76,3.37,1.54,2-.32,5.13-2,8.91-4.71,1.41-1,6.13-4.3,7.76-4,1,.19,1.39,1.54,1.39,2.73a2.82,2.82,0,0,1-2.1,3.06l-.48.1-.28-.4-.16-.25c-.34-.55-.73-1.17-2.33-.91-1.2.19-2.56,1.24-2.6,2,0,.44.61.87,1.69,1.15,4.22,1.11,6.86.89,9.73-.84,2.45-1.48,5.39-3.84,5.42-6.69,0-2.29-1.83-4.63-5.52-7-10.26-6.49-20.11-3.65-25.07-1.38-1.69.77-2.62,1.52-2.86,2.3a3.13,3.13,0,0,0,.65,2.45,3,3,0,0,0,2.61,1.11c2,0,3.9-.81,4.2-1.27a.43.43,0,0,0,.07-.15,4.57,4.57,0,0,0-1.52-.59l-.37-.1-1.06-.32.68-.87C195.83,16.86,197.46,16.67,198.93,16.67Zm11,9.56a3,3,0,0,1,2.62,1.34,1.28,1.28,0,0,0,.37-.63,3,3,0,0,0-.17-2A10.46,10.46,0,0,0,210,26.23ZM198.2,18.18a1.77,1.77,0,0,1,.71.83,1.43,1.43,0,0,1,.05.84,29.2,29.2,0,0,0,3-1.46A20.2,20.2,0,0,0,198.2,18.18Z"/></g><g id="_Groupe_19" data-name="&lt;Groupe&gt;"><path id="_Tracé_12" data-name="&lt;Tracé&gt;" class="cls-2" d="M218.39,28.42c3.09-1.86,11.35-7.69-.09-14.92s-22.28-3-25.78-1.43-4.14,3.2-2.54,5.83,7.2,1.19,8.07-.14-1.37-1.72-2.23-2c1-1.21,7.31-.53,7.52,0s-3,2.12-7.31,3.76-8.32,3.5-9.22,4.84,2.71,2.28,4.41,3.36,3,3.23,5.4,2.84,6-2.51,9.22-4.84,6.3-4,7.18-3.85,1.46,3.88-.71,4.31c-.37-.52-.85-1.84-3.22-1.46s-5.38,3.46-1,4.62S215.3,30.28,218.39,28.42Z"/><path id="_Tracé_transparent_12" data-name="&lt;Tracé transparent&gt;" d="M196,31.36a6,6,0,0,1-3.9-2,11.26,11.26,0,0,0-1.32-1,16.25,16.25,0,0,0-1.72-.87c-1.53-.7-2.84-1.31-3.13-2.32a1.43,1.43,0,0,1,.22-1.22c.7-1,2.87-2.35,6.44-3.87a4.06,4.06,0,0,1-3.29-1.8,4.45,4.45,0,0,1-.8-3.67c.38-1.24,1.51-2.24,3.67-3.23C197.44,9,207.84,6,218.7,12.86c4.16,2.63,6.25,5.4,6.22,8.24s-2.16,5.56-6.14,8h0c-3.22,1.94-6.27,2.22-10.88,1-2.52-.66-2.84-2-2.8-2.68a2.24,2.24,0,0,1,0-.25c-2.66,1.83-6,3.77-8.4,4.17A4.29,4.29,0,0,1,196,31.36Zm2.9-17a22,22,0,0,1,2.76.19c1.92.26,2.19.58,2.34.94a.92.92,0,0,1,0,.72c-.47,1.08-4.46,2.79-7.73,4-4.88,1.85-8.19,3.56-8.87,4.56.11.34,1.53,1,2.29,1.34a17,17,0,0,1,1.89,1,12.42,12.42,0,0,1,1.51,1.19c1.08.95,2,1.76,3.37,1.54,2-.32,5.13-2,8.91-4.71,1.41-1,6.11-4.3,7.76-4,1,.19,1.39,1.54,1.39,2.73a2.82,2.82,0,0,1-2.1,3.06L212,27l-.28-.4-.16-.25c-.34-.55-.72-1.16-2.33-.91-1.2.19-2.56,1.24-2.6,2,0,.44.61.87,1.69,1.15,4.22,1.11,6.86.89,9.73-.84,2.45-1.48,5.39-3.84,5.42-6.69,0-2.29-1.83-4.63-5.52-7-10.27-6.49-20.12-3.65-25.07-1.38-1.69.77-2.62,1.52-2.86,2.3a3.13,3.13,0,0,0,.65,2.45,3,3,0,0,0,2.6,1.11c2.07,0,3.9-.81,4.2-1.27a.43.43,0,0,0,.07-.15,4.55,4.55,0,0,0-1.52-.59l-.37-.1-1.05-.32.68-.87C195.83,14.54,197.45,14.34,198.93,14.34Zm11,9.56a3,3,0,0,1,2.62,1.34,1.29,1.29,0,0,0,.37-.63,3,3,0,0,0-.18-2A10.45,10.45,0,0,0,210,23.9ZM198.2,15.85a1.77,1.77,0,0,1,.71.83,1.43,1.43,0,0,1,.05.84,29.33,29.33,0,0,0,3-1.46A20.23,20.23,0,0,0,198.2,15.85Z"/></g></g></g></svg>