<svg id="Calque_1" data-name="Calque 1" xmlns="http://www.w3.org/2000/svg" viewBox="0 0 289.36 49.92"><defs><style>.cls-1{fill:#71c843;stroke:#262626;stroke-linecap:round;stroke-linejoin:round;stroke-width:2.39px;}</style></defs><title>cond-4</title><path id="_Tracé_" data-name="&lt;Tracé&gt;" class="cls-1" d="M25.33,26.42a5.32,5.32,0,0,0,1,7c1.33,1.25,2.51,2.66,5.14,2.66,4.74,0,4.74-4.57,9.49-4.57s4.75,4.57,9.49,4.57,4.75-4.57,9.49-4.57,4.75,4.57,9.49,4.57,4.75-4.57,9.49-4.57,4.75,4.57,9.5,4.57,4.75-4.57,9.49-4.57,4.75,4.57,9.5,4.57,4.75-4.57,9.49-4.57,4.75,4.57,9.5,4.57,4.75-4.57,9.49-4.57,4.75,4.57,9.5,4.57,4.75-4.57,9.5-4.57,4.75,4.57,9.5,4.57,4.75-4.57,9.5-4.57,4.75,4.57,9.5,4.57,4.74-4.57,9.49-4.57,4.75,4.57,9.5,4.57,4.75-4.57,9.49-4.57,4.75,4.57,9.5,4.57,4.75-4.57,9.5-4.57,4.75,4.57,9.5,4.57,4.75-4.57,9.5-4.57,4.75,4.57,9.5,4.57a5.4,5.4,0,0,0,3.06-.86c3.28-2.12,3.28-2.12.51-8.83-5.19-12.54-5.24-12.52-5.24-12.52H34.51c-3.8,0-7.3,9.74-9.18,12.57Z"/></svg>