<svg id="Calque_1" data-name="Calque 1" xmlns="http://www.w3.org/2000/svg" viewBox="0 0 289.36 49.92"><defs><style>.cls-1{fill:#cc1919;}.cls-2{fill:#262626;}.cls-3{fill:#ea1f1f;}</style></defs><title>cond-9</title><g id="_Groupe_" data-name="&lt;Groupe&gt;"><g id="_Groupe_2" data-name="&lt;Groupe&gt;"><g id="_Groupe_3" data-name="&lt;Groupe&gt;"><path id="_Tracé_transparent_" data-name="&lt;Tracé transparent&gt;" class="cls-1" d="M128.95,48.39c9.74,2,27,1.46,36.46,1,5.55-.29,12-.29,15.24-2.69,2.92-2.14,1.2-5.79,3.06-8.21,1.15-1.49,3-2,3.71-3.95,1.37-3.57,2.3-7.75-.86-11.52-5.35-6.39-10.67-13.64-25.28-15.37-7.56-.89-8.5-2.34-15.36-4-8-1.89-12.57,1.44-18.21,3.31-6.61,2.19-18.46,6.51-23,10-2.7,2.06-3.27,5.94-3.92,8.52-1,4.06,1.83,4.17,5.41,7.61,3.34,3.22,2,6.07,6.7,9.13C116.52,44.52,123.61,47.28,128.95,48.39ZM117.76,36.3c-.13-1.93,3.39-3.52,6.17-4.44.73-.25,8-1.58,8.2-1.86,2.87-4.72-9.94-1.61-13.53-1.4-10.57.61-9.22-2-7.8-5.91.57-1.55-1.15-3,.63-4.48s6.26-1.58,8.62-2.55c5.37-2.21,10.42-6.41,17.57-7.39,6.69-.91,12.24,3,10.63,6.07-.5.95-10,5.89-.66,6.25,4.65.18,4.15-5.74,8.32-6.91,9.75-2.72,11.18,2.12,13.35,5.83,1.43,2.44,1.34,1.52,3.88,3.39,2.28,1.68,3.85.37,4.19,2.69.16,1.06-3.66,3.09-4.36,4.19-1.58,2.48,2.29,3.11-3.13,3.19-3.2,0-15.77-6.29-16.37-2.52-.41,2.57,11,3.39,12.13,7.23,1.42,4.63-7.28,4.12-13.84,4.54S118.27,43.78,117.76,36.3Z"/><path id="_Tracé_transparent_2" data-name="&lt;Tracé transparent&gt;" class="cls-2" d="M106.45,14.6c6.27-3.46,16.84-7.09,20.36-8.26,1.21-.4,2.41-.89,3.57-1.36,4.2-1.7,9-3.63,15.94-2a60.8,60.8,0,0,1,6.39,1.9,34.79,34.79,0,0,0,8.66,2c14.7,1.74,20.52,8.73,25.65,14.9l.82,1c3.36,4,2.37,8.29,1,12a6.16,6.16,0,0,1-2.32,2.71A7.58,7.58,0,0,0,185,38.81a6.45,6.45,0,0,0-1,3.44c-.18,1.74-.36,3.55-2.2,4.89-3.19,2.34-9,2.6-14.11,2.83l-2,.1c-11.74.62-27.72,1-37.16-1h0c-5.57-1.16-12.92-4-16.73-6.5a10.54,10.54,0,0,1-4.44-5.46A10.35,10.35,0,0,0,105,33.3,25.23,25.23,0,0,0,102.25,31c-2.11-1.54-3.63-2.66-2.82-5.82.09-.34.17-.71.26-1.09.61-2.58,1.36-5.78,3.85-7.69A24,24,0,0,1,106.45,14.6Zm72.33,32a6.27,6.27,0,0,0,.67-.43c1.45-1.07,1.61-2.61,1.78-4.25a7.1,7.1,0,0,1,1.16-3.84,8.67,8.67,0,0,1,1.68-1.56,5.2,5.2,0,0,0,2-2.28c1.33-3.45,2.27-7.47-.75-11.08l-.82-1c-5-6.06-10.25-12.33-23.28-13.87a40,40,0,0,1-9.76-2.26,55.75,55.75,0,0,0-5.92-1.76c-5.41-1.28-9,.18-13.18,1.87-1.2.49-2.44,1-3.74,1.42-4.07,1.35-17.74,6.05-22.64,9.79-2.18,1.67-2.9,4.71-3.47,7.15-.09.39-.18.76-.27,1.1-.66,2.59.31,3.3,2.25,4.72a27.45,27.45,0,0,1,3,2.44A11.51,11.51,0,0,1,110.18,37a9.12,9.12,0,0,0,3.8,4.77,53.48,53.48,0,0,0,15.3,5.94h0c6.91,1.44,19.61,1.76,35.76.9l2-.1C171.48,48.33,176.06,48.12,178.78,46.61Zm-67.93-29.3a18.23,18.23,0,0,1,4.86-1.41,20.41,20.41,0,0,0,3.36-.84,54.25,54.25,0,0,0,5.21-2.61c3.78-2.06,7.68-4.19,12.78-4.88A16,16,0,0,1,146.34,9c2.93,1.51,4.25,3.78,3.27,5.64a5.89,5.89,0,0,1-1.51,1.3c-1.05.78-3.85,2.84-3.09,3.53a5.44,5.44,0,0,0,2.46.41c1.55.06,2.51-1.53,3.35-2.93,1-1.6,2-3.26,4.28-3.91a16.54,16.54,0,0,1,8.58-.51c3.65.95,5,3.4,6.3,5.78.2.37.41.74.62,1.1.82,1.4,1,1.51,1.63,1.85a16.69,16.69,0,0,1,2,1.29,3.73,3.73,0,0,0,1.71.71c1.66.35,2.55.82,2.78,2.38.13.85-1.2,1.85-2.61,2.9a9.74,9.74,0,0,0-1.81,1.55,1.83,1.83,0,0,0-.18,1.84c.5,1.44-.84,1.71-4,1.75-1.5,0-3.54-.63-6.73-1.71-2.66-.9-6.69-2.25-8-2a.68.68,0,0,0-.52.62c-.11.7,1.52,1.3,4.19,2.21,3.21,1.09,7.2,2.45,7.93,4.85,1.4,4.58-5.88,4.87-11.74,5.11-1.05,0-2.1.08-3.09.15-5.42.35-23.71,1.19-31.85-2.47-2.49-1.12-3.82-2.55-3.93-4.25h0c-.15-2.22,3.55-3.93,6.68-5,.34-.11,1.14-.28,3.16-.69,1.5-.31,3.91-.8,4.67-1,.43-.78.25-1.14.08-1.23-1-.54-6.37.26-8.38.57-1.45.22-2.71.41-3.6.46-4.55.26-7.33,0-9-.94-2.28-1.25-1.59-3.14-.71-5.52l.15-.4a2.78,2.78,0,0,0-.05-1.6,2.65,2.65,0,0,1,.83-3.09A4.11,4.11,0,0,1,110.85,17.31Zm39.91,3.37a5.71,5.71,0,0,1-3.06.63c-2.54-.1-4.25-.53-5.09-1.3-1.67-1.52,1.08-3.55,3.09-5a10,10,0,0,0,1.18-.94c.71-1.36-.24-3-2.38-4.12a10.64,10.64,0,0,0-6.34-1c-4.47.61-8.15,2.62-11.71,4.56A55.92,55.92,0,0,1,121,16.24a22.89,22.89,0,0,1-3.95,1c-1.79.36-3.63.72-4.42,1.38s-.7,1.4-.51,2.26a3.45,3.45,0,0,1,0,2l-.15.41c-.67,1.81-1.3,3.52-.16,4.14.58.32,2.15.64,6.35.4.67,0,1.89-.22,3.18-.42,4.22-.63,9-1.35,11.39-.1a1.84,1.84,0,0,1,.68,2.95c-.23.38-.65.51-5.89,1.58-1.12.23-2.52.52-2.78.59-3.67,1.22-5.73,2.65-5.65,3.91h0c.09,1.25,1,2.24,2.77,3,5.65,2.55,19.38,2.7,29.42,2.06,1-.07,2.12-.11,3.21-.15,6.59-.26,10.57-.58,9.63-3.68C163.69,36,160.68,35,157.77,34s-6-2-5.72-3.72c.13-.84.78-1.39,1.93-1.62,2.6-.53,6.68.84,10.62,2.17a32.79,32.79,0,0,0,5,1.43,18.29,18.29,0,0,0,1.86-.09l-.06-.2a2.57,2.57,0,0,1,.26-2.51,9.71,9.71,0,0,1,2.1-1.85c.85-.63,2.26-1.69,2.21-2.08-.1-.69-.3-.85-.32-.86l-.35-.07A7.87,7.87,0,0,1,172,23.24a13.94,13.94,0,0,0-1.71-1.1,5.15,5.15,0,0,1-2.4-2.53c-.22-.37-.42-.75-.63-1.13-1.05-1.92-2.25-4.09-4.53-4.68a12.34,12.34,0,0,0-6,.54c-1.52.43-2.42,1.92-3.21,3.24A7.81,7.81,0,0,1,150.77,20.68Z"/></g><g id="_Groupe_4" data-name="&lt;Groupe&gt;"><path id="_Tracé_transparent_3" data-name="&lt;Tracé transparent&gt;" class="cls-3" d="M128.95,45.39c9.74,2,27,1.46,36.46,1,5.55-.29,12-.29,15.24-2.69,2.92-2.14,1.2-5.79,3.06-8.21,1.15-1.49,3-2,3.71-3.95,1.37-3.57,2.3-7.75-.86-11.52-5.35-6.39-10.67-13.64-25.28-15.37-7.56-.89-8.5-2.34-15.36-4-8-1.89-12.57,1.44-18.21,3.31-6.61,2.19-18.46,6.51-23,10-2.7,2.06-3.27,5.94-3.92,8.52-1,4.06,1.83,4.17,5.41,7.61,3.34,3.22,2,6.07,6.7,9.13C116.52,41.52,123.61,44.28,128.95,45.39ZM117.76,33.3c-.13-1.93,3.39-3.52,6.17-4.44.73-.25,8-1.58,8.2-1.86,2.87-4.72-9.94-1.61-13.53-1.4-10.57.61-9.22-2-7.8-5.91.57-1.55-1.15-3,.63-4.48s6.26-1.58,8.62-2.55c5.37-2.21,10.42-6.41,17.57-7.39,6.69-.91,12.24,3,10.63,6.07-.5.95-10,5.89-.66,6.25,4.65.18,4.15-5.74,8.32-6.91,9.75-2.72,11.18,2.12,13.35,5.83,1.43,2.44,1.34,1.52,3.88,3.39,2.28,1.68,3.85.37,4.19,2.69.16,1.06-3.66,3.09-4.36,4.19-1.58,2.48,2.29,3.11-3.13,3.19-3.2,0-15.77-6.29-16.37-2.52-.41,2.57,11,3.39,12.13,7.23,1.42,4.63-7.28,4.12-13.84,4.54S118.27,40.78,117.76,33.3Z"/><path id="_Tracé_transparent_4" data-name="&lt;Tracé transparent&gt;" class="cls-2" d="M106.45,11.6c6.27-3.46,16.84-7.09,20.36-8.26,1.21-.4,2.41-.89,3.57-1.36,4.2-1.7,9-3.63,15.94-2a60.8,60.8,0,0,1,6.39,1.9,34.79,34.79,0,0,0,8.66,2c14.7,1.74,20.52,8.73,25.65,14.9l.82,1c3.36,4,2.37,8.29,1,12a6.16,6.16,0,0,1-2.32,2.71A7.58,7.58,0,0,0,185,35.81a6.45,6.45,0,0,0-1,3.44c-.18,1.74-.36,3.55-2.2,4.89-3.19,2.34-9,2.6-14.11,2.83l-2,.1c-11.74.62-27.72,1-37.16-1h0c-5.57-1.16-12.92-4-16.73-6.5a10.54,10.54,0,0,1-4.44-5.46A10.35,10.35,0,0,0,105,30.3,25.23,25.23,0,0,0,102.25,28c-2.11-1.54-3.63-2.66-2.82-5.82.09-.34.17-.71.26-1.09.61-2.58,1.36-5.78,3.85-7.69A24,24,0,0,1,106.45,11.6Zm72.33,32a6.27,6.27,0,0,0,.67-.43c1.45-1.07,1.61-2.61,1.78-4.25a7.1,7.1,0,0,1,1.16-3.84,8.67,8.67,0,0,1,1.68-1.56,5.2,5.2,0,0,0,2-2.28c1.33-3.45,2.27-7.47-.75-11.08l-.82-1c-5-6.06-10.25-12.33-23.28-13.87a40,40,0,0,1-9.76-2.26,55.75,55.75,0,0,0-5.92-1.76c-5.41-1.28-9,.18-13.18,1.87-1.2.49-2.44,1-3.74,1.42-4.07,1.35-17.74,6.05-22.64,9.79-2.18,1.67-2.9,4.71-3.47,7.15-.09.39-.18.76-.27,1.1-.66,2.59.31,3.3,2.25,4.72a27.45,27.45,0,0,1,3,2.44A11.51,11.51,0,0,1,110.18,34a9.12,9.12,0,0,0,3.8,4.77,53.48,53.48,0,0,0,15.3,5.94h0c6.91,1.44,19.61,1.76,35.76.9l2-.1C171.48,45.33,176.06,45.12,178.78,43.61Zm-67.93-29.3a18.23,18.23,0,0,1,4.86-1.41,20.41,20.41,0,0,0,3.36-.84,54.25,54.25,0,0,0,5.21-2.61c3.78-2.06,7.68-4.19,12.78-4.88A16,16,0,0,1,146.34,6c2.93,1.51,4.25,3.78,3.27,5.64a5.89,5.89,0,0,1-1.51,1.3c-1.05.78-3.85,2.84-3.09,3.53a5.44,5.44,0,0,0,2.46.41c1.55.06,2.51-1.53,3.35-2.93,1-1.6,2-3.26,4.28-3.91a16.54,16.54,0,0,1,8.58-.51c3.65.95,5,3.4,6.3,5.78.2.37.41.74.62,1.1.82,1.4,1,1.51,1.63,1.85a16.69,16.69,0,0,1,2,1.29,3.73,3.73,0,0,0,1.71.71c1.66.35,2.55.82,2.78,2.38.13.85-1.2,1.85-2.61,2.9a9.74,9.74,0,0,0-1.81,1.55,1.83,1.83,0,0,0-.18,1.84c.5,1.44-.84,1.71-4,1.75-1.5,0-3.54-.63-6.73-1.71-2.66-.9-6.69-2.25-8-2a.68.68,0,0,0-.52.62c-.11.7,1.52,1.3,4.19,2.21,3.21,1.09,7.2,2.45,7.93,4.85,1.4,4.58-5.88,4.87-11.74,5.11-1.05,0-2.1.08-3.09.15-5.42.35-23.71,1.19-31.85-2.47-2.49-1.12-3.82-2.55-3.93-4.25h0c-.15-2.22,3.55-3.93,6.68-5,.34-.11,1.14-.28,3.16-.69,1.5-.31,3.91-.8,4.67-1,.43-.78.25-1.14.08-1.23-1-.54-6.37.26-8.38.57-1.45.22-2.71.41-3.6.46-4.55.26-7.33,0-9-.94-2.28-1.25-1.59-3.14-.71-5.52l.15-.4a2.78,2.78,0,0,0-.05-1.6,2.65,2.65,0,0,1,.83-3.09A4.11,4.11,0,0,1,110.85,14.31Zm39.91,3.37a5.71,5.71,0,0,1-3.06.63c-2.54-.1-4.25-.53-5.09-1.3-1.67-1.52,1.08-3.55,3.09-5a10,10,0,0,0,1.18-.94c.71-1.36-.24-3-2.38-4.12a10.64,10.64,0,0,0-6.34-1c-4.47.61-8.15,2.62-11.71,4.56A55.92,55.92,0,0,1,121,13.24a22.89,22.89,0,0,1-3.95,1c-1.79.36-3.63.72-4.42,1.38s-.7,1.4-.51,2.26a3.45,3.45,0,0,1,0,2l-.15.41c-.67,1.81-1.3,3.52-.16,4.14.58.32,2.15.64,6.35.4.67,0,1.89-.22,3.18-.42,4.22-.63,9-1.35,11.39-.1a1.84,1.84,0,0,1,.68,2.95c-.23.38-.65.51-5.89,1.58-1.12.23-2.52.52-2.78.59-3.67,1.22-5.73,2.65-5.65,3.91h0c.09,1.25,1,2.24,2.77,3,5.65,2.55,19.38,2.7,29.42,2.06,1-.07,2.12-.11,3.21-.15,6.59-.26,10.57-.58,9.63-3.68C163.69,33,160.68,32,157.77,31s-6-2-5.72-3.72c.13-.84.78-1.39,1.93-1.62,2.6-.53,6.68.84,10.62,2.17a32.79,32.79,0,0,0,5,1.43,18.29,18.29,0,0,0,1.86-.09l-.06-.2a2.57,2.57,0,0,1,.26-2.51,9.71,9.71,0,0,1,2.1-1.85c.85-.63,2.26-1.69,2.21-2.08-.1-.69-.3-.85-.32-.86l-.35-.07A7.87,7.87,0,0,1,172,20.24a13.94,13.94,0,0,0-1.71-1.1,5.15,5.15,0,0,1-2.4-2.53c-.22-.37-.42-.75-.63-1.13-1.05-1.92-2.25-4.09-4.53-4.68a12.34,12.34,0,0,0-6,.54c-1.52.43-2.42,1.92-3.21,3.24A7.81,7.81,0,0,1,150.77,17.68Z"/></g></g><g id="_Groupe_5" data-name="&lt;Groupe&gt;"><g id="_Groupe_6" data-name="&lt;Groupe&gt;"><path id="_Tracé_transparent_5" data-name="&lt;Tracé transparent&gt;" class="cls-1" d="M229.82,48.39c9.74,2,27,1.46,36.46,1,5.55-.29,12-.29,15.24-2.69,2.92-2.14,1.2-5.79,3.06-8.21,1.15-1.49,3-2,3.71-3.95,1.37-3.57,2.3-7.75-.86-11.52-5.35-6.39-10.67-13.64-25.28-15.37-7.56-.89-8.5-2.34-15.36-4-8-1.89-12.57,1.44-18.21,3.31-6.61,2.19-18.46,6.51-23,10-2.7,2.06-3.27,5.94-3.92,8.52-1,4.06,1.83,4.17,5.41,7.61,3.34,3.22,2,6.07,6.7,9.13C217.39,44.52,224.48,47.28,229.82,48.39ZM218.63,36.3c-.13-1.93,3.39-3.52,6.17-4.44.73-.25,8-1.58,8.2-1.86,2.87-4.72-9.94-1.61-13.53-1.4-10.57.61-9.22-2-7.8-5.91.57-1.55-1.15-3,.63-4.48s6.26-1.58,8.62-2.55c5.37-2.21,10.42-6.41,17.57-7.39,6.69-.91,12.24,3,10.63,6.07-.5.95-10,5.89-.66,6.25,4.65.18,4.15-5.74,8.32-6.91,9.75-2.72,11.18,2.12,13.35,5.83,1.43,2.44,1.34,1.52,3.88,3.39,2.28,1.68,3.85.37,4.19,2.69.16,1.06-3.66,3.09-4.36,4.19-1.58,2.48,2.29,3.11-3.13,3.19-3.2,0-15.77-6.29-16.37-2.52-.41,2.57,11,3.39,12.13,7.23,1.42,4.63-7.28,4.12-13.84,4.54S219.15,43.78,218.63,36.3Z"/><path id="_Tracé_transparent_6" data-name="&lt;Tracé transparent&gt;" class="cls-2" d="M207.32,14.6c6.27-3.46,16.84-7.09,20.36-8.26,1.21-.4,2.41-.89,3.57-1.36,4.2-1.7,9-3.63,15.94-2a60.8,60.8,0,0,1,6.39,1.9,34.79,34.79,0,0,0,8.66,2c14.7,1.74,20.52,8.73,25.65,14.9l.82,1c3.36,4,2.37,8.29,1,12a6.16,6.16,0,0,1-2.32,2.71,7.58,7.58,0,0,0-1.46,1.34,6.45,6.45,0,0,0-1,3.44c-.18,1.74-.36,3.55-2.2,4.89-3.19,2.34-9,2.6-14.11,2.83l-2,.1c-11.74.62-27.72,1-37.16-1h0c-5.57-1.16-12.92-4-16.73-6.5a10.54,10.54,0,0,1-4.44-5.46,10.35,10.35,0,0,0-2.42-3.8A25.23,25.23,0,0,0,203.13,31c-2.11-1.54-3.63-2.66-2.82-5.82.09-.34.17-.71.26-1.09.61-2.58,1.36-5.78,3.85-7.69A24,24,0,0,1,207.32,14.6Zm72.33,32a6.27,6.27,0,0,0,.67-.43c1.45-1.07,1.61-2.61,1.78-4.25a7.1,7.1,0,0,1,1.16-3.84,8.67,8.67,0,0,1,1.68-1.56,5.2,5.2,0,0,0,2-2.28c1.33-3.45,2.27-7.47-.75-11.08l-.82-1c-5-6.06-10.25-12.33-23.28-13.87a40,40,0,0,1-9.76-2.26,55.75,55.75,0,0,0-5.92-1.76c-5.41-1.28-9,.18-13.18,1.87-1.2.49-2.44,1-3.74,1.42-4.07,1.35-17.74,6.05-22.64,9.79-2.18,1.67-2.9,4.71-3.47,7.15-.09.39-.18.76-.27,1.1-.66,2.59.31,3.3,2.25,4.72a27.45,27.45,0,0,1,3,2.44A11.51,11.51,0,0,1,211,37a9.12,9.12,0,0,0,3.8,4.77,53.48,53.48,0,0,0,15.3,5.94h0c6.91,1.44,19.61,1.76,35.76.9l2-.1C272.35,48.33,276.93,48.12,279.66,46.61Zm-67.93-29.3a18.23,18.23,0,0,1,4.86-1.41,20.41,20.41,0,0,0,3.36-.84,54.25,54.25,0,0,0,5.21-2.61c3.78-2.06,7.68-4.19,12.78-4.88A16,16,0,0,1,247.21,9c2.93,1.51,4.25,3.78,3.27,5.64a5.89,5.89,0,0,1-1.51,1.3c-1.05.78-3.85,2.84-3.09,3.53a5.44,5.44,0,0,0,2.46.41c1.55.06,2.51-1.53,3.35-2.93,1-1.6,2-3.26,4.28-3.91a16.54,16.54,0,0,1,8.58-.51c3.65.95,5,3.4,6.3,5.78.2.37.41.74.62,1.1.82,1.4,1,1.51,1.63,1.85a16.69,16.69,0,0,1,2,1.29,3.73,3.73,0,0,0,1.71.71c1.66.35,2.55.82,2.78,2.38.13.85-1.2,1.85-2.61,2.9a9.74,9.74,0,0,0-1.81,1.55,1.83,1.83,0,0,0-.18,1.84c.5,1.44-.84,1.71-4,1.75-1.5,0-3.54-.63-6.73-1.71-2.66-.9-6.69-2.25-8-2a.68.68,0,0,0-.52.62c-.11.7,1.52,1.3,4.19,2.21,3.21,1.09,7.2,2.45,7.93,4.85,1.4,4.58-5.88,4.87-11.74,5.11-1.05,0-2.1.08-3.09.15-5.42.35-23.71,1.19-31.85-2.47-2.49-1.12-3.82-2.55-3.93-4.25h0c-.15-2.22,3.55-3.93,6.68-5,.34-.11,1.14-.28,3.16-.69,1.5-.31,3.91-.8,4.67-1,.43-.78.25-1.14.08-1.23-1-.54-6.37.26-8.38.57-1.45.22-2.71.41-3.6.46-4.55.26-7.33,0-9-.94-2.28-1.25-1.59-3.14-.71-5.52l.15-.4a2.78,2.78,0,0,0-.05-1.6,2.65,2.65,0,0,1,.83-3.09A4.11,4.11,0,0,1,211.73,17.31Zm39.91,3.37a5.71,5.71,0,0,1-3.06.63c-2.54-.1-4.25-.53-5.09-1.3-1.67-1.52,1.08-3.55,3.09-5a10,10,0,0,0,1.18-.94c.71-1.36-.24-3-2.38-4.12a10.64,10.64,0,0,0-6.34-1c-4.47.61-8.15,2.62-11.71,4.56a55.92,55.92,0,0,1-5.44,2.72,22.89,22.89,0,0,1-3.95,1c-1.79.36-3.63.72-4.42,1.38s-.7,1.4-.51,2.26a3.45,3.45,0,0,1,0,2l-.15.41c-.67,1.81-1.3,3.52-.16,4.14.58.32,2.15.64,6.35.4.67,0,1.89-.22,3.18-.42,4.22-.63,9-1.35,11.39-.1a1.84,1.84,0,0,1,.68,2.95c-.23.38-.65.51-5.89,1.58-1.12.23-2.52.52-2.78.59C222,33.7,220,35.13,220,36.39h0c.09,1.25,1,2.24,2.77,3,5.65,2.55,19.38,2.7,29.42,2.06,1-.07,2.12-.11,3.21-.15,6.59-.26,10.57-.58,9.63-3.68C264.56,36,261.55,35,258.64,34s-6-2-5.72-3.72c.13-.84.78-1.39,1.93-1.62,2.6-.53,6.68.84,10.62,2.17a32.79,32.79,0,0,0,5,1.43,18.29,18.29,0,0,0,1.86-.09l-.06-.2a2.57,2.57,0,0,1,.26-2.51,9.71,9.71,0,0,1,2.1-1.85c.85-.63,2.26-1.69,2.21-2.08-.1-.69-.3-.85-.32-.86l-.35-.07a7.87,7.87,0,0,1-3.24-1.35,13.94,13.94,0,0,0-1.71-1.1,5.15,5.15,0,0,1-2.4-2.53c-.22-.37-.42-.75-.63-1.13-1.05-1.92-2.25-4.09-4.53-4.68a12.34,12.34,0,0,0-6,.54c-1.52.43-2.42,1.92-3.21,3.24A7.81,7.81,0,0,1,251.64,20.68Z"/></g><g id="_Groupe_7" data-name="&lt;Groupe&gt;"><path id="_Tracé_transparent_7" data-name="&lt;Tracé transparent&gt;" class="cls-3" d="M229.82,45.39c9.74,2,27,1.46,36.46,1,5.55-.29,12-.29,15.24-2.69,2.92-2.14,1.2-5.79,3.06-8.21,1.15-1.49,3-2,3.71-3.95,1.37-3.57,2.3-7.75-.86-11.52-5.35-6.39-10.67-13.64-25.28-15.37-7.56-.89-8.5-2.34-15.36-4-8-1.89-12.57,1.44-18.21,3.31-6.61,2.19-18.46,6.51-23,10-2.7,2.06-3.27,5.94-3.92,8.52-1,4.06,1.83,4.17,5.41,7.61,3.34,3.22,2,6.07,6.7,9.13C217.39,41.52,224.48,44.28,229.82,45.39ZM218.63,33.3c-.13-1.93,3.39-3.52,6.17-4.44.73-.25,8-1.58,8.2-1.86,2.87-4.72-9.94-1.61-13.53-1.4-10.57.61-9.22-2-7.8-5.91.57-1.55-1.15-3,.63-4.48s6.26-1.58,8.62-2.55c5.37-2.21,10.42-6.41,17.57-7.39,6.69-.91,12.24,3,10.63,6.07-.5.95-10,5.89-.66,6.25,4.65.18,4.15-5.74,8.32-6.91C266.52,8,268,12.81,270.12,16.51c1.43,2.44,1.34,1.52,3.88,3.39,2.28,1.68,3.85.37,4.19,2.69.16,1.06-3.66,3.09-4.36,4.19-1.58,2.48,2.29,3.11-3.13,3.19-3.2,0-15.77-6.29-16.37-2.52-.41,2.57,11,3.39,12.13,7.23,1.42,4.63-7.28,4.12-13.84,4.54S219.15,40.78,218.63,33.3Z"/><path id="_Tracé_transparent_8" data-name="&lt;Tracé transparent&gt;" class="cls-2" d="M207.32,11.6c6.27-3.46,16.84-7.09,20.36-8.26,1.21-.4,2.41-.89,3.57-1.36,4.2-1.7,9-3.63,15.94-2a60.8,60.8,0,0,1,6.39,1.9,34.79,34.79,0,0,0,8.66,2c14.7,1.74,20.52,8.73,25.65,14.9l.82,1c3.36,4,2.37,8.29,1,12a6.16,6.16,0,0,1-2.32,2.71,7.58,7.58,0,0,0-1.46,1.34,6.45,6.45,0,0,0-1,3.44c-.18,1.74-.36,3.55-2.2,4.89-3.19,2.34-9,2.6-14.11,2.83l-2,.1c-11.74.62-27.72,1-37.16-1h0c-5.57-1.16-12.92-4-16.73-6.5a10.54,10.54,0,0,1-4.44-5.46,10.35,10.35,0,0,0-2.42-3.8A25.23,25.23,0,0,0,203.13,28c-2.11-1.54-3.63-2.66-2.82-5.82.09-.34.17-.71.26-1.09.61-2.58,1.36-5.78,3.85-7.69A24,24,0,0,1,207.32,11.6Zm72.33,32a6.27,6.27,0,0,0,.67-.43c1.45-1.07,1.61-2.61,1.78-4.25a7.1,7.1,0,0,1,1.16-3.84,8.67,8.67,0,0,1,1.68-1.56,5.2,5.2,0,0,0,2-2.28c1.33-3.45,2.27-7.47-.75-11.08l-.82-1c-5-6.06-10.25-12.33-23.28-13.87a40,40,0,0,1-9.76-2.26,55.75,55.75,0,0,0-5.92-1.76c-5.41-1.28-9,.18-13.18,1.87-1.2.49-2.44,1-3.74,1.42-4.07,1.35-17.74,6.05-22.64,9.79-2.18,1.67-2.9,4.71-3.47,7.15-.09.39-.18.76-.27,1.1-.66,2.59.31,3.3,2.25,4.72a27.45,27.45,0,0,1,3,2.44A11.51,11.51,0,0,1,211,34a9.12,9.12,0,0,0,3.8,4.77,53.48,53.48,0,0,0,15.3,5.94h0c6.91,1.44,19.61,1.76,35.76.9l2-.1C272.35,45.33,276.93,45.12,279.66,43.61Zm-67.93-29.3a18.23,18.23,0,0,1,4.86-1.41,20.41,20.41,0,0,0,3.36-.84,54.25,54.25,0,0,0,5.21-2.61c3.78-2.06,7.68-4.19,12.78-4.88A16,16,0,0,1,247.21,6c2.93,1.51,4.25,3.78,3.27,5.64a5.89,5.89,0,0,1-1.51,1.3c-1.05.78-3.85,2.84-3.09,3.53a5.44,5.44,0,0,0,2.46.41c1.55.06,2.51-1.53,3.35-2.93,1-1.6,2-3.26,4.28-3.91a16.54,16.54,0,0,1,8.58-.51c3.65.95,5,3.4,6.3,5.78.2.37.41.74.62,1.1.82,1.4,1,1.51,1.63,1.85a16.69,16.69,0,0,1,2,1.29,3.73,3.73,0,0,0,1.71.71c1.66.35,2.55.82,2.78,2.38.13.85-1.2,1.85-2.61,2.9a9.74,9.74,0,0,0-1.81,1.55,1.83,1.83,0,0,0-.18,1.84c.5,1.44-.84,1.71-4,1.75-1.5,0-3.54-.63-6.73-1.71-2.66-.9-6.69-2.25-8-2a.68.68,0,0,0-.52.62c-.11.7,1.52,1.3,4.19,2.21,3.21,1.09,7.2,2.45,7.93,4.85,1.4,4.58-5.88,4.87-11.74,5.11-1.05,0-2.1.08-3.09.15-5.42.35-23.71,1.19-31.85-2.47-2.49-1.12-3.82-2.55-3.93-4.25h0c-.15-2.22,3.55-3.93,6.68-5,.34-.11,1.14-.28,3.16-.69,1.5-.31,3.91-.8,4.67-1,.43-.78.25-1.14.08-1.23-1-.54-6.37.26-8.38.57-1.45.22-2.71.41-3.6.46-4.55.26-7.33,0-9-.94-2.28-1.25-1.59-3.14-.71-5.52l.15-.4a2.78,2.78,0,0,0-.05-1.6,2.65,2.65,0,0,1,.83-3.09A4.11,4.11,0,0,1,211.73,14.31Zm39.91,3.37a5.71,5.71,0,0,1-3.06.63c-2.54-.1-4.25-.53-5.09-1.3-1.67-1.52,1.08-3.55,3.09-5a10,10,0,0,0,1.18-.94c.71-1.36-.24-3-2.38-4.12a10.64,10.64,0,0,0-6.34-1c-4.47.61-8.15,2.62-11.71,4.56a55.92,55.92,0,0,1-5.44,2.72,22.89,22.89,0,0,1-3.95,1c-1.79.36-3.63.72-4.42,1.38s-.7,1.4-.51,2.26a3.45,3.45,0,0,1,0,2l-.15.41c-.67,1.81-1.3,3.52-.16,4.14.58.32,2.15.64,6.35.4.67,0,1.89-.22,3.18-.42,4.22-.63,9-1.35,11.39-.1a1.84,1.84,0,0,1,.68,2.95c-.23.38-.65.51-5.89,1.58-1.12.23-2.52.52-2.78.59C222,30.7,220,32.13,220,33.39h0c.09,1.25,1,2.24,2.77,3,5.65,2.55,19.38,2.7,29.42,2.06,1-.07,2.12-.11,3.21-.15,6.59-.26,10.57-.58,9.63-3.68C264.56,33,261.55,32,258.64,31s-6-2-5.72-3.72c.13-.84.78-1.39,1.93-1.62,2.6-.53,6.68.84,10.62,2.17a32.79,32.79,0,0,0,5,1.43,18.29,18.29,0,0,0,1.86-.09l-.06-.2a2.57,2.57,0,0,1,.26-2.51,9.71,9.71,0,0,1,2.1-1.85c.85-.63,2.26-1.69,2.21-2.08-.1-.69-.3-.85-.32-.86l-.35-.07a7.87,7.87,0,0,1-3.24-1.35,13.94,13.94,0,0,0-1.71-1.1,5.15,5.15,0,0,1-2.4-2.53c-.22-.37-.42-.75-.63-1.13-1.05-1.92-2.25-4.09-4.53-4.68a12.34,12.34,0,0,0-6,.54c-1.52.43-2.42,1.92-3.21,3.24A7.81,7.81,0,0,1,251.64,17.68Z"/></g></g><g id="_Groupe_8" data-name="&lt;Groupe&gt;"><g id="_Groupe_9" data-name="&lt;Groupe&gt;"><path id="_Tracé_transparent_9" data-name="&lt;Tracé transparent&gt;" class="cls-1" d="M28.12,48.39c9.74,2,27,1.46,36.46,1,5.55-.29,12-.29,15.24-2.69,2.92-2.14,1.2-5.79,3.06-8.21,1.15-1.49,3-2,3.71-3.95,1.37-3.57,2.3-7.75-.86-11.52C80.38,16.59,75.07,9.34,60.45,7.62c-7.56-.89-8.5-2.34-15.36-4C37.12,1.76,32.52,5.09,26.88,7c-6.61,2.19-18.46,6.51-23,10C1.22,19,.66,22.85,0,25.43-1,29.49,1.83,29.6,5.41,33c3.34,3.22,2,6.07,6.7,9.13C15.7,44.52,22.79,47.28,28.12,48.39ZM16.94,36.3c-.13-1.93,3.39-3.52,6.17-4.44.73-.25,8-1.58,8.2-1.86,2.87-4.72-9.94-1.61-13.53-1.4-10.57.61-9.22-2-7.8-5.91.57-1.55-1.15-3,.63-4.48s6.26-1.58,8.62-2.55C24.6,13.44,29.64,9.24,36.8,8.27c6.69-.91,12.24,3,10.63,6.07-.5.95-10,5.89-.66,6.25,4.65.18,4.15-5.74,8.32-6.91,9.75-2.72,11.18,2.12,13.35,5.83,1.43,2.44,1.34,1.52,3.88,3.39,2.28,1.68,3.85.37,4.19,2.69.16,1.06-3.66,3.09-4.36,4.19C70.54,32.25,74.42,32.88,69,33c-3.2,0-15.77-6.29-16.37-2.52-.41,2.57,11,3.39,12.13,7.23,1.42,4.63-7.28,4.12-13.84,4.54S17.45,43.78,16.94,36.3Z"/><path id="_Tracé_transparent_10" data-name="&lt;Tracé transparent&gt;" class="cls-2" d="M5.63,14.6C11.89,11.13,22.46,7.5,26,6.33c1.21-.4,2.41-.89,3.57-1.36,4.2-1.7,9-3.63,15.94-2a60.8,60.8,0,0,1,6.39,1.9,34.79,34.79,0,0,0,8.66,2c14.7,1.74,20.52,8.73,25.65,14.9l.82,1c3.36,4,2.37,8.29,1,12a6.16,6.16,0,0,1-2.32,2.71,7.58,7.58,0,0,0-1.46,1.34,6.45,6.45,0,0,0-1,3.44C83,44,82.85,45.79,81,47.14c-3.19,2.34-9,2.6-14.11,2.83l-2,.1c-11.74.62-27.72,1-37.16-1h0c-5.57-1.16-12.92-4-16.73-6.5A10.54,10.54,0,0,1,6.62,37.1a10.35,10.35,0,0,0-2.42-3.8A25.23,25.23,0,0,0,1.43,31C-.68,29.5-2.2,28.39-1.39,25.22c.09-.34.17-.71.26-1.09.61-2.58,1.36-5.78,3.85-7.69A24,24,0,0,1,5.63,14.6ZM78,46.61a6.27,6.27,0,0,0,.67-.43c1.45-1.07,1.61-2.61,1.78-4.25a7.1,7.1,0,0,1,1.16-3.84,8.67,8.67,0,0,1,1.68-1.56,5.2,5.2,0,0,0,2-2.28c1.33-3.45,2.27-7.47-.75-11.08l-.82-1c-5-6.06-10.25-12.33-23.28-13.87A40,40,0,0,1,50.6,6.06,55.75,55.75,0,0,0,44.68,4.3c-5.41-1.28-9,.18-13.18,1.87-1.2.49-2.44,1-3.74,1.42C23.69,8.94,10,13.64,5.13,17.38,2.95,19,2.23,22.09,1.66,24.53c-.09.39-.18.76-.27,1.1-.66,2.59.31,3.3,2.25,4.72a27.45,27.45,0,0,1,3,2.44A11.51,11.51,0,0,1,9.35,37a9.12,9.12,0,0,0,3.8,4.77,53.48,53.48,0,0,0,15.3,5.94h0c6.91,1.44,19.61,1.76,35.76.9l2-.1C70.65,48.33,75.24,48.12,78,46.61ZM10,17.31a18.23,18.23,0,0,1,4.86-1.41,20.41,20.41,0,0,0,3.36-.84,54.25,54.25,0,0,0,5.21-2.61c3.78-2.06,7.68-4.19,12.78-4.88A16,16,0,0,1,45.51,9c2.93,1.51,4.25,3.78,3.27,5.64a5.89,5.89,0,0,1-1.51,1.3c-1.05.78-3.85,2.84-3.09,3.53a5.44,5.44,0,0,0,2.46.41c1.55.06,2.51-1.53,3.35-2.93,1-1.6,2-3.26,4.28-3.91a16.54,16.54,0,0,1,8.58-.51c3.65.95,5,3.4,6.3,5.78.2.37.41.74.62,1.1.82,1.4,1,1.51,1.63,1.85a16.69,16.69,0,0,1,2,1.29,3.73,3.73,0,0,0,1.71.71c1.66.35,2.55.82,2.78,2.38.13.85-1.2,1.85-2.61,2.9a9.74,9.74,0,0,0-1.81,1.55,1.83,1.83,0,0,0-.18,1.84c.5,1.44-.84,1.71-4,1.75-1.5,0-3.54-.63-6.73-1.71-2.66-.9-6.69-2.25-8-2a.68.68,0,0,0-.52.62c-.11.7,1.52,1.3,4.19,2.21,3.21,1.09,7.2,2.45,7.93,4.85,1.4,4.58-5.88,4.87-11.74,5.11-1.05,0-2.1.08-3.09.15-5.42.35-23.71,1.19-31.85-2.47C17,39.33,15.65,37.9,15.53,36.2h0c-.15-2.22,3.55-3.93,6.68-5,.34-.11,1.14-.28,3.16-.69,1.5-.31,3.91-.8,4.67-1,.43-.78.25-1.14.08-1.23-1-.54-6.37.26-8.38.57-1.45.22-2.71.41-3.6.46-4.55.26-7.33,0-9-.94-2.28-1.25-1.59-3.14-.71-5.52l.15-.4a2.78,2.78,0,0,0-.05-1.6,2.65,2.65,0,0,1,.83-3.09A4.11,4.11,0,0,1,10,17.31Zm39.91,3.37a5.71,5.71,0,0,1-3.06.63c-2.54-.1-4.25-.53-5.09-1.3-1.67-1.52,1.08-3.55,3.09-5A10,10,0,0,0,46.07,14c.71-1.36-.24-3-2.38-4.12a10.64,10.64,0,0,0-6.34-1c-4.47.61-8.15,2.62-11.71,4.56a55.92,55.92,0,0,1-5.44,2.72,22.89,22.89,0,0,1-3.95,1c-1.79.36-3.63.72-4.42,1.38s-.7,1.4-.51,2.26a3.45,3.45,0,0,1,0,2l-.15.41c-.67,1.81-1.3,3.52-.16,4.14.58.32,2.15.64,6.35.4.67,0,1.89-.22,3.18-.42,4.22-.63,9-1.35,11.39-.1a1.84,1.84,0,0,1,.68,2.95c-.23.38-.65.51-5.89,1.58-1.12.23-2.52.52-2.78.59-3.67,1.22-5.73,2.65-5.65,3.91h0c.09,1.25,1,2.24,2.77,3,5.65,2.55,19.38,2.7,29.42,2.06,1-.07,2.12-.11,3.21-.15,6.59-.26,10.57-.58,9.63-3.68C62.86,36,59.86,35,56.95,34s-6-2-5.72-3.72c.13-.84.78-1.39,1.93-1.62,2.6-.53,6.68.84,10.62,2.17a32.79,32.79,0,0,0,5,1.43,18.29,18.29,0,0,0,1.86-.09l-.06-.2a2.57,2.57,0,0,1,.26-2.51,9.71,9.71,0,0,1,2.1-1.85c.85-.63,2.26-1.69,2.21-2.08-.1-.69-.3-.85-.32-.86l-.35-.07a7.87,7.87,0,0,1-3.24-1.35,13.94,13.94,0,0,0-1.71-1.1,5.15,5.15,0,0,1-2.4-2.53c-.22-.37-.42-.75-.63-1.13-1.05-1.92-2.25-4.09-4.53-4.68a12.34,12.34,0,0,0-6,.54c-1.52.43-2.42,1.92-3.21,3.24A7.81,7.81,0,0,1,49.95,20.68Z"/></g><g id="_Groupe_10" data-name="&lt;Groupe&gt;"><path id="_Tracé_transparent_11" data-name="&lt;Tracé transparent&gt;" class="cls-3" d="M28.12,45.39c9.74,2,27,1.46,36.46,1,5.55-.29,12-.29,15.24-2.69,2.92-2.14,1.2-5.79,3.06-8.21,1.15-1.49,3-2,3.71-3.95,1.37-3.57,2.3-7.75-.86-11.52C80.38,13.59,75.07,6.34,60.45,4.62c-7.56-.89-8.5-2.34-15.36-4C37.12-1.24,32.52,2.09,26.88,4c-6.61,2.19-18.46,6.51-23,10C1.22,16,.66,19.85,0,22.43-1,26.49,1.83,26.6,5.41,30c3.34,3.22,2,6.07,6.7,9.13C15.7,41.52,22.79,44.28,28.12,45.39ZM16.94,33.3c-.13-1.93,3.39-3.52,6.17-4.44.73-.25,8-1.58,8.2-1.86,2.87-4.72-9.94-1.61-13.53-1.4-10.57.61-9.22-2-7.8-5.91.57-1.55-1.15-3,.63-4.48s6.26-1.58,8.62-2.55C24.6,10.44,29.64,6.24,36.8,5.27c6.69-.91,12.24,3,10.63,6.07-.5.95-10,5.89-.66,6.25,4.65.18,4.15-5.74,8.32-6.91C64.82,8,66.26,12.81,68.42,16.51c1.43,2.44,1.34,1.52,3.88,3.39,2.28,1.68,3.85.37,4.19,2.69.16,1.06-3.66,3.09-4.36,4.19C70.54,29.25,74.42,29.88,69,30c-3.2,0-15.77-6.29-16.37-2.52-.41,2.57,11,3.39,12.13,7.23,1.42,4.63-7.28,4.12-13.84,4.54S17.45,40.78,16.94,33.3Z"/><path id="_Tracé_transparent_12" data-name="&lt;Tracé transparent&gt;" class="cls-2" d="M5.63,11.6C11.89,8.13,22.46,4.5,26,3.33c1.21-.4,2.41-.89,3.57-1.36,4.2-1.7,9-3.63,15.94-2a60.8,60.8,0,0,1,6.39,1.9,34.79,34.79,0,0,0,8.66,2c14.7,1.74,20.52,8.73,25.65,14.9l.82,1c3.36,4,2.37,8.29,1,12a6.16,6.16,0,0,1-2.32,2.71,7.58,7.58,0,0,0-1.46,1.34,6.45,6.45,0,0,0-1,3.44C83,41,82.85,42.79,81,44.14c-3.19,2.34-9,2.6-14.11,2.83l-2,.1c-11.74.62-27.72,1-37.16-1h0c-5.57-1.16-12.92-4-16.73-6.5A10.54,10.54,0,0,1,6.62,34.1a10.35,10.35,0,0,0-2.42-3.8A25.23,25.23,0,0,0,1.43,28C-.68,26.5-2.2,25.39-1.39,22.22c.09-.34.17-.71.26-1.09.61-2.58,1.36-5.78,3.85-7.69A24,24,0,0,1,5.63,11.6ZM78,43.61a6.27,6.27,0,0,0,.67-.43c1.45-1.07,1.61-2.61,1.78-4.25a7.1,7.1,0,0,1,1.16-3.84,8.67,8.67,0,0,1,1.68-1.56,5.2,5.2,0,0,0,2-2.28c1.33-3.45,2.27-7.47-.75-11.08l-.82-1c-5-6.06-10.25-12.33-23.28-13.87A40,40,0,0,1,50.6,3.06,55.75,55.75,0,0,0,44.68,1.3c-5.41-1.28-9,.18-13.18,1.87-1.2.49-2.44,1-3.74,1.42C23.69,5.94,10,10.64,5.13,14.38,2.95,16,2.23,19.09,1.66,21.53c-.09.39-.18.76-.27,1.1-.66,2.59.31,3.3,2.25,4.72a27.45,27.45,0,0,1,3,2.44A11.51,11.51,0,0,1,9.35,34a9.12,9.12,0,0,0,3.8,4.77,53.48,53.48,0,0,0,15.3,5.94h0c6.91,1.44,19.61,1.76,35.76.9l2-.1C70.65,45.33,75.24,45.12,78,43.61ZM10,14.31a18.23,18.23,0,0,1,4.86-1.41,20.41,20.41,0,0,0,3.36-.84,54.25,54.25,0,0,0,5.21-2.61c3.78-2.06,7.68-4.19,12.78-4.88A16,16,0,0,1,45.51,6c2.93,1.51,4.25,3.78,3.27,5.64a5.89,5.89,0,0,1-1.51,1.3c-1.05.78-3.85,2.84-3.09,3.53a5.44,5.44,0,0,0,2.46.41c1.55.06,2.51-1.53,3.35-2.93,1-1.6,2-3.26,4.28-3.91a16.54,16.54,0,0,1,8.58-.51c3.65.95,5,3.4,6.3,5.78.2.37.41.74.62,1.1.82,1.4,1,1.51,1.63,1.85a16.69,16.69,0,0,1,2,1.29,3.73,3.73,0,0,0,1.71.71c1.66.35,2.55.82,2.78,2.38.13.85-1.2,1.85-2.61,2.9a9.74,9.74,0,0,0-1.81,1.55,1.83,1.83,0,0,0-.18,1.84c.5,1.44-.84,1.71-4,1.75-1.5,0-3.54-.63-6.73-1.71-2.66-.9-6.69-2.25-8-2a.68.68,0,0,0-.52.62c-.11.7,1.52,1.3,4.19,2.21,3.21,1.09,7.2,2.45,7.93,4.85,1.4,4.58-5.88,4.87-11.74,5.11-1.05,0-2.1.08-3.09.15-5.42.35-23.71,1.19-31.85-2.47C17,36.33,15.65,34.9,15.53,33.2h0c-.15-2.22,3.55-3.93,6.68-5,.34-.11,1.14-.28,3.16-.69,1.5-.31,3.91-.8,4.67-1,.43-.78.25-1.14.08-1.23-1-.54-6.37.26-8.38.57-1.45.22-2.71.41-3.6.46-4.55.26-7.33,0-9-.94-2.28-1.25-1.59-3.14-.71-5.52l.15-.4a2.78,2.78,0,0,0-.05-1.6,2.65,2.65,0,0,1,.83-3.09A4.11,4.11,0,0,1,10,14.31Zm39.91,3.37a5.71,5.71,0,0,1-3.06.63c-2.54-.1-4.25-.53-5.09-1.3-1.67-1.52,1.08-3.55,3.09-5A10,10,0,0,0,46.07,11c.71-1.36-.24-3-2.38-4.12a10.64,10.64,0,0,0-6.34-1c-4.47.61-8.15,2.62-11.71,4.56a55.92,55.92,0,0,1-5.44,2.72,22.89,22.89,0,0,1-3.95,1c-1.79.36-3.63.72-4.42,1.38s-.7,1.4-.51,2.26a3.45,3.45,0,0,1,0,2l-.15.41c-.67,1.81-1.3,3.52-.16,4.14.58.32,2.15.64,6.35.4.67,0,1.89-.22,3.18-.42,4.22-.63,9-1.35,11.39-.1a1.84,1.84,0,0,1,.68,2.95c-.23.38-.65.51-5.89,1.58-1.12.23-2.52.52-2.78.59-3.67,1.22-5.73,2.65-5.65,3.91h0c.09,1.25,1,2.24,2.77,3,5.65,2.55,19.38,2.7,29.42,2.06,1-.07,2.12-.11,3.21-.15,6.59-.26,10.57-.58,9.63-3.68C62.86,33,59.86,32,56.95,31s-6-2-5.72-3.72c.13-.84.78-1.39,1.93-1.62,2.6-.53,6.68.84,10.62,2.17a32.79,32.79,0,0,0,5,1.43,18.29,18.29,0,0,0,1.86-.09l-.06-.2a2.57,2.57,0,0,1,.26-2.51,9.71,9.71,0,0,1,2.1-1.85c.85-.63,2.26-1.69,2.21-2.08-.1-.69-.3-.85-.32-.86l-.35-.07a7.87,7.87,0,0,1-3.24-1.35,13.94,13.94,0,0,0-1.71-1.1,5.15,5.15,0,0,1-2.4-2.53c-.22-.37-.42-.75-.63-1.13-1.05-1.92-2.25-4.09-4.53-4.68a12.34,12.34,0,0,0-6,.54c-1.52.43-2.42,1.92-3.21,3.24A7.81,7.81,0,0,1,49.95,17.68Z"/></g></g></g></svg>