<svg id="Calque_1" data-name="Calque 1" xmlns="http://www.w3.org/2000/svg" viewBox="0 0 289.36 49.92"><defs><style>.cls-1{fill:#306852;}.cls-2{fill:#262626;}.cls-3{fill:#5acc95;}.cls-4{fill:#f17346;}.cls-5{fill:#75efb0;}</style></defs><title>cond-5</title><g id="_Groupe_" data-name="&lt;Groupe&gt;"><g id="_Groupe_2" data-name="&lt;Groupe&gt;"><g id="_Groupe_3" data-name="&lt;Groupe&gt;"><ellipse id="_Ellipse_" data-name="&lt;Ellipse&gt;" class="cls-1" cx="250.32" cy="26.6" rx="24.26" ry="10.99" transform="translate(4.14 79.16) rotate(-18.12)"/><path id="_Tracé_transparent_" data-name="&lt;Tracé transparent&gt;" class="cls-2" d="M236.32,40.34c-5.43-.59-9-2.68-10-5.88h0c-1-3.2.59-7,4.62-10.68a43.83,43.83,0,0,1,15.68-8.61c13.48-4.41,25.68-2.85,27.78,3.56S267.54,33.61,254.06,38a47.42,47.42,0,0,1-14.44,2.5A30.41,30.41,0,0,1,236.32,40.34Zm10.91-23.2a41.75,41.75,0,0,0-14.93,8.17c-3.34,3.06-4.82,6.16-4.05,8.51h0c.77,2.35,3.79,4,8.3,4.47a41.75,41.75,0,0,0,16.87-2.23c12-3.92,20.66-11.56,19-16.68-1-3-5.4-4.62-11.3-4.62A45.68,45.68,0,0,0,247.23,17.14Z"/></g><g id="_Groupe_4" data-name="&lt;Groupe&gt;"><ellipse id="_Ellipse_2" data-name="&lt;Ellipse&gt;" class="cls-3" cx="249.55" cy="23.32" rx="24.26" ry="10.99" transform="translate(5.12 78.76) rotate(-18.12)"/><path id="_Tracé_transparent_2" data-name="&lt;Tracé transparent&gt;" class="cls-2" d="M235.55,37.06c-5.43-.59-9-2.68-10-5.88s.59-7,4.62-10.68a43.83,43.83,0,0,1,15.68-8.61,43.81,43.81,0,0,1,17.74-2.32c5.43.59,9,2.68,10,5.88,2.1,6.4-6.82,14.88-20.31,19.29a47.42,47.42,0,0,1-14.44,2.5A30.42,30.42,0,0,1,235.55,37.06Zm10.91-23.2A41.75,41.75,0,0,0,231.52,22c-3.34,3.06-4.82,6.16-4.05,8.51h0c.77,2.35,3.79,4,8.3,4.47a41.78,41.78,0,0,0,16.87-2.23c12-3.92,20.66-11.56,19-16.68-.77-2.35-3.79-4-8.3-4.47a28.47,28.47,0,0,0-3.09-.16A45.33,45.33,0,0,0,246.45,13.86Z"/></g><polygon id="_Tracé_" data-name="&lt;Tracé&gt;" class="cls-4" points="225.83 24.69 225.83 24.69 225.83 24.69 225.83 24.69"/><polygon id="_Tracé_2" data-name="&lt;Tracé&gt;" class="cls-4" points="225.83 24.69 225.83 24.69 225.83 24.69 225.83 24.69"/><g id="_Groupe_5" data-name="&lt;Groupe&gt;"><g id="_Groupe_6" data-name="&lt;Groupe&gt;"><path id="_Tracé_3" data-name="&lt;Tracé&gt;" class="cls-5" d="M230.74,27.57a6.48,6.48,0,0,1,1.77-3.49,5.23,5.23,0,0,1,3.68-1.34l6,.47c1.75.14,1,1.59-1.16,2.3L233.55,28C232,28.46,230.68,28.28,230.74,27.57Z"/><path id="_Tracé_4" data-name="&lt;Tracé&gt;" class="cls-5" d="M237,20.25a33.06,33.06,0,0,1,6-3.16c1.45-.59,3-.55,3.16.08l1,3.11c.3.91-2.19,2.22-3.94,2.09l-6-.47C236,21.81,235.85,21,237,20.25Z"/><path id="_Tracé_5" data-name="&lt;Tracé&gt;" class="cls-5" d="M251.19,14.39a33,33,0,0,1,6.68-1c1.35,0,1.72.66.8,1.45l-4.58,3.94c-1.33,1.14-4.11,1.55-4.41.65l-1-3.11C248.45,15.71,249.66,14.77,251.19,14.39Z"/><path id="_Tracé_6" data-name="&lt;Tracé&gt;" class="cls-5" d="M263.74,13.87a6.42,6.42,0,0,1,3.48,1.77c.47.53-.53,1.48-2,2l-7.49,2.45c-2.18.71-3.63,0-2.3-1.17L260,15A5.24,5.24,0,0,1,263.74,13.87Z"/><path id="_Tracé_7" data-name="&lt;Tracé&gt;" class="cls-5" d="M268.33,19.07a6.48,6.48,0,0,1-1.77,3.49,5.23,5.23,0,0,1-3.68,1.34l-6-.47c-1.75-.14-1-1.59,1.16-2.3l7.49-2.45C267,18.18,268.39,18.37,268.33,19.07Z"/><path id="_Tracé_8" data-name="&lt;Tracé&gt;" class="cls-5" d="M262.1,26.4a33.06,33.06,0,0,1-6,3.16c-1.45.59-3,.55-3.16-.08l-1-3.11c-.3-.91,2.19-2.22,3.94-2.09l6,.47C263.12,24.84,263.22,25.63,262.1,26.4Z"/><path id="_Tracé_9" data-name="&lt;Tracé&gt;" class="cls-5" d="M247.88,32.25a33,33,0,0,1-6.68,1c-1.35,0-1.72-.66-.8-1.45L245,27.84c1.33-1.14,4.11-1.55,4.41-.65l1,3.11C250.62,30.94,249.41,31.88,247.88,32.25Z"/><path id="_Tracé_10" data-name="&lt;Tracé&gt;" class="cls-5" d="M235.33,32.77A6.42,6.42,0,0,1,231.86,31c-.47-.53.53-1.48,2-2l7.49-2.45c2.18-.71,3.63,0,2.3,1.17l-4.58,3.94A5.24,5.24,0,0,1,235.33,32.77Z"/></g><ellipse id="_Ellipse_3" data-name="&lt;Ellipse&gt;" class="cls-5" cx="249.54" cy="23.32" rx="3.2" ry="1.13" transform="translate(5.12 78.76) rotate(-18.12)"/></g></g><g id="_Groupe_7" data-name="&lt;Groupe&gt;"><g id="_Groupe_8" data-name="&lt;Groupe&gt;"><ellipse id="_Ellipse_4" data-name="&lt;Ellipse&gt;" class="cls-1" cx="214.86" cy="26.6" rx="24.26" ry="10.99" transform="translate(2.38 68.13) rotate(-18.12)"/><path id="_Tracé_transparent_3" data-name="&lt;Tracé transparent&gt;" class="cls-2" d="M200.85,40.34c-5.43-.59-9-2.68-10-5.88h0c-1-3.2.59-7,4.62-10.68a43.83,43.83,0,0,1,15.68-8.61c13.48-4.41,25.68-2.85,27.78,3.56S232.08,33.61,218.59,38a47.42,47.42,0,0,1-14.44,2.5A30.41,30.41,0,0,1,200.85,40.34Zm10.91-23.2a41.75,41.75,0,0,0-14.93,8.17c-3.34,3.06-4.82,6.16-4.05,8.51h0c.77,2.35,3.79,4,8.3,4.47A41.75,41.75,0,0,0,218,36.06c12-3.92,20.66-11.56,19-16.68-1-3-5.4-4.62-11.3-4.62A45.68,45.68,0,0,0,211.76,17.14Z"/></g><g id="_Groupe_9" data-name="&lt;Groupe&gt;"><ellipse id="_Ellipse_5" data-name="&lt;Ellipse&gt;" class="cls-3" cx="214.08" cy="23.32" rx="24.26" ry="10.99" transform="translate(3.36 67.73) rotate(-18.12)"/><path id="_Tracé_transparent_4" data-name="&lt;Tracé transparent&gt;" class="cls-2" d="M200.08,37.06c-5.43-.59-9-2.68-10-5.88s.59-7,4.62-10.68a43.83,43.83,0,0,1,15.68-8.61,43.81,43.81,0,0,1,17.74-2.32c5.43.59,9,2.68,10,5.88,2.1,6.4-6.82,14.88-20.31,19.29a47.42,47.42,0,0,1-14.44,2.5A30.42,30.42,0,0,1,200.08,37.06ZM211,13.86A41.75,41.75,0,0,0,196.06,22c-3.34,3.06-4.82,6.16-4.05,8.51h0c.77,2.35,3.79,4,8.3,4.47a41.77,41.77,0,0,0,16.87-2.23c12-3.92,20.66-11.56,19-16.68-.77-2.35-3.79-4-8.3-4.47a28.47,28.47,0,0,0-3.09-.16A45.33,45.33,0,0,0,211,13.86Z"/></g><polygon id="_Tracé_11" data-name="&lt;Tracé&gt;" class="cls-4" points="190.36 24.69 190.36 24.69 190.36 24.69 190.36 24.69"/><polygon id="_Tracé_12" data-name="&lt;Tracé&gt;" class="cls-4" points="190.36 24.69 190.36 24.69 190.36 24.69 190.36 24.69"/><g id="_Groupe_10" data-name="&lt;Groupe&gt;"><g id="_Groupe_11" data-name="&lt;Groupe&gt;"><path id="_Tracé_13" data-name="&lt;Tracé&gt;" class="cls-5" d="M195.27,27.57A6.48,6.48,0,0,1,197,24.08a5.23,5.23,0,0,1,3.68-1.34l6,.47c1.75.14,1,1.59-1.16,2.3L198.08,28C196.57,28.46,195.21,28.28,195.27,27.57Z"/><path id="_Tracé_14" data-name="&lt;Tracé&gt;" class="cls-5" d="M201.51,20.25a33.06,33.06,0,0,1,6-3.16c1.45-.59,3-.55,3.16.08l1,3.11c.3.91-2.19,2.22-3.94,2.09l-6-.47C200.49,21.81,200.38,21,201.51,20.25Z"/><path id="_Tracé_15" data-name="&lt;Tracé&gt;" class="cls-5" d="M215.72,14.39a33,33,0,0,1,6.68-1c1.35,0,1.72.66.8,1.45l-4.58,3.94c-1.33,1.14-4.11,1.55-4.41.65l-1-3.11C213,15.71,214.2,14.77,215.72,14.39Z"/><path id="_Tracé_16" data-name="&lt;Tracé&gt;" class="cls-5" d="M228.27,13.87a6.42,6.42,0,0,1,3.48,1.77c.47.53-.53,1.48-2,2l-7.49,2.45c-2.18.71-3.63,0-2.3-1.17L224.49,15A5.24,5.24,0,0,1,228.27,13.87Z"/><path id="_Tracé_17" data-name="&lt;Tracé&gt;" class="cls-5" d="M232.86,19.07a6.48,6.48,0,0,1-1.77,3.49,5.23,5.23,0,0,1-3.68,1.34l-6-.47c-1.75-.14-1-1.59,1.16-2.3l7.49-2.45C231.57,18.18,232.93,18.37,232.86,19.07Z"/><path id="_Tracé_18" data-name="&lt;Tracé&gt;" class="cls-5" d="M226.63,26.4a33.06,33.06,0,0,1-6,3.16c-1.45.59-3,.55-3.16-.08l-1-3.11c-.3-.91,2.19-2.22,3.94-2.09l6,.47C227.65,24.84,227.76,25.63,226.63,26.4Z"/><path id="_Tracé_19" data-name="&lt;Tracé&gt;" class="cls-5" d="M212.41,32.25a33,33,0,0,1-6.68,1c-1.35,0-1.72-.66-.8-1.45l4.58-3.94c1.33-1.14,4.11-1.55,4.41-.65l1,3.11C215.15,30.94,213.94,31.88,212.41,32.25Z"/><path id="_Tracé_20" data-name="&lt;Tracé&gt;" class="cls-5" d="M199.87,32.77A6.42,6.42,0,0,1,196.39,31c-.47-.53.53-1.48,2-2l7.49-2.45c2.18-.71,3.63,0,2.3,1.17l-4.58,3.94A5.24,5.24,0,0,1,199.87,32.77Z"/></g><ellipse id="_Ellipse_6" data-name="&lt;Ellipse&gt;" class="cls-5" cx="214.07" cy="23.32" rx="3.2" ry="1.13" transform="translate(3.36 67.73) rotate(-18.12)"/></g></g><g id="_Groupe_12" data-name="&lt;Groupe&gt;"><g id="_Groupe_13" data-name="&lt;Groupe&gt;"><ellipse id="_Ellipse_7" data-name="&lt;Ellipse&gt;" class="cls-1" cx="179.39" cy="26.6" rx="24.26" ry="10.99" transform="translate(0.62 57.11) rotate(-18.12)"/><path id="_Tracé_transparent_5" data-name="&lt;Tracé transparent&gt;" class="cls-2" d="M165.39,40.34c-5.43-.59-9-2.68-10-5.88h0c-1-3.2.59-7,4.62-10.68a43.83,43.83,0,0,1,15.68-8.61c13.48-4.41,25.68-2.85,27.78,3.56S196.61,33.61,183.13,38a47.42,47.42,0,0,1-14.44,2.5A30.41,30.41,0,0,1,165.39,40.34Zm10.91-23.2a41.75,41.75,0,0,0-14.93,8.17c-3.34,3.06-4.82,6.16-4.05,8.51h0c.77,2.35,3.79,4,8.3,4.47a41.75,41.75,0,0,0,16.87-2.23c12-3.92,20.66-11.56,19-16.68-1-3-5.4-4.62-11.3-4.62A45.68,45.68,0,0,0,176.29,17.14Z"/></g><g id="_Groupe_14" data-name="&lt;Groupe&gt;"><ellipse id="_Ellipse_8" data-name="&lt;Ellipse&gt;" class="cls-3" cx="178.62" cy="23.32" rx="24.26" ry="10.99" transform="translate(1.6 56.7) rotate(-18.12)"/><path id="_Tracé_transparent_6" data-name="&lt;Tracé transparent&gt;" class="cls-2" d="M164.61,37.06c-5.43-.59-9-2.68-10-5.88s.59-7,4.62-10.68a43.83,43.83,0,0,1,15.68-8.61,43.81,43.81,0,0,1,17.74-2.32c5.43.59,9,2.68,10,5.88,2.1,6.4-6.82,14.88-20.31,19.29a47.42,47.42,0,0,1-14.44,2.5A30.42,30.42,0,0,1,164.61,37.06Zm10.91-23.2A41.75,41.75,0,0,0,160.59,22c-3.34,3.06-4.82,6.16-4.05,8.51h0c.77,2.35,3.79,4,8.3,4.47a41.78,41.78,0,0,0,16.87-2.23c12-3.92,20.66-11.56,19-16.68-.77-2.35-3.79-4-8.3-4.47a28.47,28.47,0,0,0-3.09-.16A45.33,45.33,0,0,0,175.52,13.86Z"/></g><polygon id="_Tracé_21" data-name="&lt;Tracé&gt;" class="cls-4" points="154.89 24.69 154.89 24.69 154.89 24.69 154.89 24.69"/><polygon id="_Tracé_22" data-name="&lt;Tracé&gt;" class="cls-4" points="154.89 24.69 154.89 24.69 154.89 24.69 154.89 24.69"/><g id="_Groupe_15" data-name="&lt;Groupe&gt;"><g id="_Groupe_16" data-name="&lt;Groupe&gt;"><path id="_Tracé_23" data-name="&lt;Tracé&gt;" class="cls-5" d="M159.81,27.57a6.48,6.48,0,0,1,1.77-3.49,5.23,5.23,0,0,1,3.68-1.34l6,.47c1.75.14,1,1.59-1.16,2.3L162.61,28C161.1,28.46,159.74,28.28,159.81,27.57Z"/><path id="_Tracé_24" data-name="&lt;Tracé&gt;" class="cls-5" d="M166,20.25a33.06,33.06,0,0,1,6-3.16c1.45-.59,3-.55,3.16.08l1,3.11c.3.91-2.19,2.22-3.94,2.09l-6-.47C165,21.81,164.91,21,166,20.25Z"/><path id="_Tracé_25" data-name="&lt;Tracé&gt;" class="cls-5" d="M180.26,14.39a33,33,0,0,1,6.68-1c1.35,0,1.72.66.8,1.45l-4.58,3.94c-1.33,1.14-4.11,1.55-4.41.65l-1-3.11C177.52,15.71,178.73,14.77,180.26,14.39Z"/><path id="_Tracé_26" data-name="&lt;Tracé&gt;" class="cls-5" d="M192.8,13.87a6.42,6.42,0,0,1,3.48,1.77c.47.53-.53,1.48-2,2l-7.49,2.45c-2.18.71-3.63,0-2.3-1.17L189,15A5.24,5.24,0,0,1,192.8,13.87Z"/><path id="_Tracé_27" data-name="&lt;Tracé&gt;" class="cls-5" d="M197.4,19.07a6.48,6.48,0,0,1-1.77,3.49A5.23,5.23,0,0,1,192,23.9l-6-.47c-1.75-.14-1-1.59,1.16-2.3l7.49-2.45C196.1,18.18,197.46,18.37,197.4,19.07Z"/><path id="_Tracé_28" data-name="&lt;Tracé&gt;" class="cls-5" d="M191.16,26.4a33.06,33.06,0,0,1-6,3.16c-1.45.59-3,.55-3.16-.08l-1-3.11c-.3-.91,2.19-2.22,3.94-2.09l6,.47C192.18,24.84,192.29,25.63,191.16,26.4Z"/><path id="_Tracé_29" data-name="&lt;Tracé&gt;" class="cls-5" d="M176.95,32.25a33,33,0,0,1-6.68,1c-1.35,0-1.72-.66-.8-1.45L174,27.84c1.33-1.14,4.11-1.55,4.41-.65l1,3.11C179.68,30.94,178.47,31.88,176.95,32.25Z"/><path id="_Tracé_30" data-name="&lt;Tracé&gt;" class="cls-5" d="M164.4,32.77A6.42,6.42,0,0,1,160.92,31c-.47-.53.53-1.48,2-2l7.49-2.45c2.18-.71,3.63,0,2.3,1.17l-4.58,3.94A5.24,5.24,0,0,1,164.4,32.77Z"/></g><ellipse id="_Ellipse_9" data-name="&lt;Ellipse&gt;" class="cls-5" cx="178.6" cy="23.32" rx="3.2" ry="1.13" transform="translate(1.6 56.7) rotate(-18.12)"/></g></g><g id="_Groupe_17" data-name="&lt;Groupe&gt;"><g id="_Groupe_18" data-name="&lt;Groupe&gt;"><ellipse id="_Ellipse_10" data-name="&lt;Ellipse&gt;" class="cls-1" cx="143.92" cy="26.6" rx="24.26" ry="10.99" transform="translate(-1.14 46.08) rotate(-18.12)"/><path id="_Tracé_transparent_7" data-name="&lt;Tracé transparent&gt;" class="cls-2" d="M129.92,40.34c-5.43-.59-9-2.68-10-5.88h0c-1-3.2.59-7,4.62-10.68a43.83,43.83,0,0,1,15.68-8.61c13.48-4.41,25.68-2.85,27.78,3.56S161.14,33.61,147.66,38a47.42,47.42,0,0,1-14.44,2.5A30.41,30.41,0,0,1,129.92,40.34Zm10.91-23.2a41.75,41.75,0,0,0-14.93,8.17c-3.34,3.06-4.82,6.16-4.05,8.51h0c.77,2.35,3.79,4,8.3,4.47A41.75,41.75,0,0,0,147,36.06c12-3.92,20.66-11.56,19-16.68-1-3-5.4-4.62-11.3-4.62A45.68,45.68,0,0,0,140.83,17.14Z"/></g><g id="_Groupe_19" data-name="&lt;Groupe&gt;"><ellipse id="_Ellipse_11" data-name="&lt;Ellipse&gt;" class="cls-3" cx="143.15" cy="23.32" rx="24.26" ry="10.99" transform="translate(-0.15 45.67) rotate(-18.12)"/><path id="_Tracé_transparent_8" data-name="&lt;Tracé transparent&gt;" class="cls-2" d="M129.14,37.06c-5.43-.59-9-2.68-10-5.88s.59-7,4.62-10.68a43.83,43.83,0,0,1,15.68-8.61,43.81,43.81,0,0,1,17.74-2.32c5.43.59,9,2.68,10,5.88,2.1,6.4-6.82,14.88-20.31,19.29a47.42,47.42,0,0,1-14.44,2.5A30.42,30.42,0,0,1,129.14,37.06Zm10.91-23.2A41.75,41.75,0,0,0,125.12,22c-3.34,3.06-4.82,6.16-4.05,8.51h0c.77,2.35,3.79,4,8.3,4.47a41.78,41.78,0,0,0,16.87-2.23c12-3.92,20.66-11.56,19-16.68-.77-2.35-3.79-4-8.3-4.47a28.47,28.47,0,0,0-3.09-.16A45.33,45.33,0,0,0,140.05,13.86Z"/></g><polygon id="_Tracé_31" data-name="&lt;Tracé&gt;" class="cls-4" points="119.43 24.69 119.42 24.69 119.43 24.69 119.43 24.69"/><polygon id="_Tracé_32" data-name="&lt;Tracé&gt;" class="cls-4" points="119.43 24.69 119.42 24.69 119.43 24.69 119.43 24.69"/><g id="_Groupe_20" data-name="&lt;Groupe&gt;"><g id="_Groupe_21" data-name="&lt;Groupe&gt;"><path id="_Tracé_33" data-name="&lt;Tracé&gt;" class="cls-5" d="M124.34,27.57a6.48,6.48,0,0,1,1.77-3.49,5.23,5.23,0,0,1,3.68-1.34l6,.47c1.75.14,1,1.59-1.16,2.3L127.15,28C125.63,28.46,124.27,28.28,124.34,27.57Z"/><path id="_Tracé_34" data-name="&lt;Tracé&gt;" class="cls-5" d="M130.57,20.25a33.06,33.06,0,0,1,6-3.16c1.45-.59,3-.55,3.16.08l1,3.11c.3.91-2.19,2.22-3.94,2.09l-6-.47C129.55,21.81,129.45,21,130.57,20.25Z"/><path id="_Tracé_35" data-name="&lt;Tracé&gt;" class="cls-5" d="M144.79,14.39a33,33,0,0,1,6.68-1c1.35,0,1.72.66.8,1.45l-4.58,3.94c-1.33,1.14-4.11,1.55-4.41.65l-1-3.11C142.05,15.71,143.26,14.77,144.79,14.39Z"/><path id="_Tracé_36" data-name="&lt;Tracé&gt;" class="cls-5" d="M157.33,13.87a6.42,6.42,0,0,1,3.48,1.77c.47.53-.53,1.48-2,2l-7.49,2.45c-2.18.71-3.63,0-2.3-1.17L153.56,15A5.24,5.24,0,0,1,157.33,13.87Z"/><path id="_Tracé_37" data-name="&lt;Tracé&gt;" class="cls-5" d="M161.93,19.07a6.48,6.48,0,0,1-1.77,3.49,5.23,5.23,0,0,1-3.68,1.34l-6-.47c-1.75-.14-1-1.59,1.16-2.3l7.49-2.45C160.63,18.18,162,18.37,161.93,19.07Z"/><path id="_Tracé_38" data-name="&lt;Tracé&gt;" class="cls-5" d="M155.7,26.4a33.06,33.06,0,0,1-6,3.16c-1.45.59-3,.55-3.16-.08l-1-3.11c-.3-.91,2.19-2.22,3.94-2.09l6,.47C156.72,24.84,156.82,25.63,155.7,26.4Z"/><path id="_Tracé_39" data-name="&lt;Tracé&gt;" class="cls-5" d="M141.48,32.25a33,33,0,0,1-6.68,1c-1.35,0-1.72-.66-.8-1.45l4.58-3.94c1.33-1.14,4.11-1.55,4.41-.65l1,3.11C144.21,30.94,143,31.88,141.48,32.25Z"/><path id="_Tracé_40" data-name="&lt;Tracé&gt;" class="cls-5" d="M128.93,32.77A6.42,6.42,0,0,1,125.46,31c-.47-.53.53-1.48,2-2L135,26.57c2.18-.71,3.63,0,2.3,1.17l-4.58,3.94A5.24,5.24,0,0,1,128.93,32.77Z"/></g><ellipse id="_Ellipse_12" data-name="&lt;Ellipse&gt;" class="cls-5" cx="143.13" cy="23.32" rx="3.2" ry="1.13" transform="translate(-0.16 45.67) rotate(-18.12)"/></g></g><g id="_Groupe_22" data-name="&lt;Groupe&gt;"><g id="_Groupe_23" data-name="&lt;Groupe&gt;"><ellipse id="_Ellipse_13" data-name="&lt;Ellipse&gt;" class="cls-1" cx="108.46" cy="26.6" rx="24.26" ry="10.99" transform="translate(-2.89 35.05) rotate(-18.12)"/><path id="_Tracé_transparent_9" data-name="&lt;Tracé transparent&gt;" class="cls-2" d="M94.45,40.34c-5.43-.59-9-2.68-10-5.88h0c-1-3.2.59-7,4.62-10.68a43.83,43.83,0,0,1,15.68-8.61c13.48-4.41,25.68-2.85,27.78,3.56S125.67,33.61,112.19,38a47.42,47.42,0,0,1-14.44,2.5A30.41,30.41,0,0,1,94.45,40.34Zm10.91-23.2a41.75,41.75,0,0,0-14.93,8.17c-3.34,3.06-4.82,6.16-4.05,8.51h0c.77,2.35,3.79,4,8.3,4.47a41.75,41.75,0,0,0,16.87-2.23c12-3.92,20.66-11.56,19-16.68-1-3-5.4-4.62-11.3-4.62A45.68,45.68,0,0,0,105.36,17.14Z"/></g><g id="_Groupe_24" data-name="&lt;Groupe&gt;"><ellipse id="_Ellipse_14" data-name="&lt;Ellipse&gt;" class="cls-3" cx="107.68" cy="23.32" rx="24.26" ry="10.99" transform="translate(-1.91 34.64) rotate(-18.12)"/><path id="_Tracé_transparent_10" data-name="&lt;Tracé transparent&gt;" class="cls-2" d="M93.68,37.06c-5.43-.59-9-2.68-10-5.88s.59-7,4.62-10.68a43.83,43.83,0,0,1,15.68-8.61,43.81,43.81,0,0,1,17.74-2.32c5.43.59,9,2.68,10,5.88,2.1,6.4-6.82,14.88-20.31,19.29A47.42,47.42,0,0,1,97,37.24,30.42,30.42,0,0,1,93.68,37.06Zm10.91-23.2A41.75,41.75,0,0,0,89.66,22c-3.34,3.06-4.82,6.16-4.05,8.51h0c.77,2.35,3.79,4,8.3,4.47a41.78,41.78,0,0,0,16.87-2.23c12-3.92,20.66-11.56,19-16.68-.77-2.35-3.79-4-8.3-4.47a28.47,28.47,0,0,0-3.09-.16A45.33,45.33,0,0,0,104.59,13.86Z"/></g><polygon id="_Tracé_41" data-name="&lt;Tracé&gt;" class="cls-4" points="83.96 24.69 83.96 24.69 83.96 24.69 83.96 24.69"/><polygon id="_Tracé_42" data-name="&lt;Tracé&gt;" class="cls-4" points="83.96 24.69 83.96 24.69 83.96 24.69 83.96 24.69"/><g id="_Groupe_25" data-name="&lt;Groupe&gt;"><g id="_Groupe_26" data-name="&lt;Groupe&gt;"><path id="_Tracé_43" data-name="&lt;Tracé&gt;" class="cls-5" d="M88.87,27.57a6.48,6.48,0,0,1,1.77-3.49,5.23,5.23,0,0,1,3.68-1.34l6,.47c1.75.14,1,1.59-1.16,2.3L91.68,28C90.17,28.46,88.81,28.28,88.87,27.57Z"/><path id="_Tracé_44" data-name="&lt;Tracé&gt;" class="cls-5" d="M95.1,20.25a33.06,33.06,0,0,1,6-3.16c1.45-.59,3-.55,3.16.08l1,3.11c.3.91-2.19,2.22-3.94,2.09l-6-.47C94.08,21.81,94,21,95.1,20.25Z"/><path id="_Tracé_45" data-name="&lt;Tracé&gt;" class="cls-5" d="M109.32,14.39a33,33,0,0,1,6.68-1c1.35,0,1.72.66.8,1.45l-4.58,3.94c-1.33,1.14-4.11,1.55-4.41.65l-1-3.11C106.59,15.71,107.79,14.77,109.32,14.39Z"/><path id="_Tracé_46" data-name="&lt;Tracé&gt;" class="cls-5" d="M121.87,13.87a6.42,6.42,0,0,1,3.48,1.77c.47.53-.53,1.48-2,2l-7.49,2.45c-2.18.71-3.63,0-2.3-1.17L118.09,15A5.24,5.24,0,0,1,121.87,13.87Z"/><path id="_Tracé_47" data-name="&lt;Tracé&gt;" class="cls-5" d="M126.46,19.07a6.48,6.48,0,0,1-1.77,3.49A5.23,5.23,0,0,1,121,23.9l-6-.47c-1.75-.14-1-1.59,1.16-2.3l7.49-2.45C125.17,18.18,126.53,18.37,126.46,19.07Z"/><path id="_Tracé_48" data-name="&lt;Tracé&gt;" class="cls-5" d="M120.23,26.4a33.06,33.06,0,0,1-6,3.16c-1.45.59-3,.55-3.16-.08l-1-3.11c-.3-.91,2.19-2.22,3.94-2.09l6,.47C121.25,24.84,121.35,25.63,120.23,26.4Z"/><path id="_Tracé_49" data-name="&lt;Tracé&gt;" class="cls-5" d="M106,32.25a33,33,0,0,1-6.68,1c-1.35,0-1.72-.66-.8-1.45l4.58-3.94c1.33-1.14,4.11-1.55,4.41-.65l1,3.11C108.75,30.94,107.54,31.88,106,32.25Z"/><path id="_Tracé_50" data-name="&lt;Tracé&gt;" class="cls-5" d="M93.46,32.77A6.42,6.42,0,0,1,90,31c-.47-.53.53-1.48,2-2l7.49-2.45c2.18-.71,3.63,0,2.3,1.17l-4.58,3.94A5.24,5.24,0,0,1,93.46,32.77Z"/></g><ellipse id="_Ellipse_15" data-name="&lt;Ellipse&gt;" class="cls-5" cx="107.67" cy="23.32" rx="3.2" ry="1.13" transform="translate(-1.91 34.64) rotate(-18.12)"/></g></g><g id="_Groupe_27" data-name="&lt;Groupe&gt;"><g id="_Groupe_28" data-name="&lt;Groupe&gt;"><ellipse id="_Ellipse_16" data-name="&lt;Ellipse&gt;" class="cls-1" cx="75.28" cy="26.6" rx="24.26" ry="10.99" transform="matrix(0.95, -0.31, 0.31, 0.95, -4.54, 24.73)"/><path id="_Tracé_transparent_11" data-name="&lt;Tracé transparent&gt;" class="cls-2" d="M61.28,40.34c-5.43-.59-9-2.68-10-5.88h0c-1-3.2.59-7,4.62-10.68a43.83,43.83,0,0,1,15.68-8.61C85,10.77,97.23,12.33,99.33,18.73S92.5,33.61,79,38a47.42,47.42,0,0,1-14.44,2.5A30.41,30.41,0,0,1,61.28,40.34Zm10.91-23.2a41.75,41.75,0,0,0-14.93,8.17c-3.34,3.06-4.82,6.16-4.05,8.51h0c.77,2.35,3.79,4,8.3,4.47a41.75,41.75,0,0,0,16.87-2.23c12-3.92,20.66-11.56,19-16.68-1-3-5.4-4.62-11.3-4.62A45.68,45.68,0,0,0,72.19,17.14Z"/></g><g id="_Groupe_29" data-name="&lt;Groupe&gt;"><ellipse id="_Ellipse_17" data-name="&lt;Ellipse&gt;" class="cls-3" cx="74.51" cy="23.32" rx="24.26" ry="10.99" transform="translate(-3.56 24.33) rotate(-18.12)"/><path id="_Tracé_transparent_12" data-name="&lt;Tracé transparent&gt;" class="cls-2" d="M60.51,37.06c-5.43-.59-9-2.68-10-5.88s.59-7,4.62-10.68A43.83,43.83,0,0,1,70.77,11.9,43.81,43.81,0,0,1,88.51,9.57c5.43.59,9,2.68,10,5.88,2.1,6.4-6.82,14.88-20.31,19.29a47.42,47.42,0,0,1-14.44,2.5A30.42,30.42,0,0,1,60.51,37.06Zm10.91-23.2A41.75,41.75,0,0,0,56.48,22c-3.34,3.06-4.82,6.16-4.05,8.51h0c.77,2.35,3.79,4,8.3,4.47A41.78,41.78,0,0,0,77.6,32.78c12-3.92,20.66-11.56,19-16.68-.77-2.35-3.79-4-8.3-4.47a28.47,28.47,0,0,0-3.09-.16A45.33,45.33,0,0,0,71.41,13.86Z"/></g><polygon id="_Tracé_51" data-name="&lt;Tracé&gt;" class="cls-4" points="50.79 24.69 50.79 24.69 50.79 24.69 50.79 24.69"/><polygon id="_Tracé_52" data-name="&lt;Tracé&gt;" class="cls-4" points="50.79 24.69 50.79 24.69 50.79 24.69 50.79 24.69"/><g id="_Groupe_30" data-name="&lt;Groupe&gt;"><g id="_Groupe_31" data-name="&lt;Groupe&gt;"><path id="_Tracé_53" data-name="&lt;Tracé&gt;" class="cls-5" d="M55.7,27.57a6.48,6.48,0,0,1,1.77-3.49,5.23,5.23,0,0,1,3.68-1.34l6,.47c1.75.14,1,1.59-1.16,2.3L58.51,28C57,28.46,55.64,28.28,55.7,27.57Z"/><path id="_Tracé_54" data-name="&lt;Tracé&gt;" class="cls-5" d="M61.93,20.25a33.06,33.06,0,0,1,6-3.16c1.45-.59,3-.55,3.16.08l1,3.11c.3.91-2.19,2.22-3.94,2.09l-6-.47C60.91,21.81,60.81,21,61.93,20.25Z"/><path id="_Tracé_55" data-name="&lt;Tracé&gt;" class="cls-5" d="M76.15,14.39a33,33,0,0,1,6.68-1c1.35,0,1.72.66.8,1.45L79,18.8c-1.33,1.14-4.11,1.55-4.41.65l-1-3.11C73.41,15.71,74.62,14.77,76.15,14.39Z"/><path id="_Tracé_56" data-name="&lt;Tracé&gt;" class="cls-5" d="M88.7,13.87a6.42,6.42,0,0,1,3.48,1.77c.47.53-.53,1.48-2,2l-7.49,2.45c-2.18.71-3.63,0-2.3-1.17L84.92,15A5.24,5.24,0,0,1,88.7,13.87Z"/><path id="_Tracé_57" data-name="&lt;Tracé&gt;" class="cls-5" d="M93.29,19.07a6.48,6.48,0,0,1-1.77,3.49,5.23,5.23,0,0,1-3.68,1.34l-6-.47c-1.75-.14-1-1.59,1.16-2.3l7.49-2.45C92,18.18,93.35,18.37,93.29,19.07Z"/><path id="_Tracé_58" data-name="&lt;Tracé&gt;" class="cls-5" d="M87.06,26.4a33.06,33.06,0,0,1-6,3.16c-1.45.59-3,.55-3.16-.08l-1-3.11c-.3-.91,2.19-2.22,3.94-2.09l6,.47C88.08,24.84,88.18,25.63,87.06,26.4Z"/><path id="_Tracé_59" data-name="&lt;Tracé&gt;" class="cls-5" d="M72.84,32.25a33,33,0,0,1-6.68,1c-1.35,0-1.72-.66-.8-1.45l4.58-3.94c1.33-1.14,4.11-1.55,4.41-.65l1,3.11C75.58,30.94,74.37,31.88,72.84,32.25Z"/><path id="_Tracé_60" data-name="&lt;Tracé&gt;" class="cls-5" d="M60.29,32.77A6.42,6.42,0,0,1,56.82,31c-.47-.53.53-1.48,2-2l7.49-2.45c2.18-.71,3.63,0,2.3,1.17l-4.58,3.94A5.24,5.24,0,0,1,60.29,32.77Z"/></g><ellipse id="_Ellipse_18" data-name="&lt;Ellipse&gt;" class="cls-5" cx="74.49" cy="23.32" rx="3.2" ry="1.13" transform="translate(-3.56 24.32) rotate(-18.12)"/></g></g><g id="_Groupe_32" data-name="&lt;Groupe&gt;"><g id="_Groupe_33" data-name="&lt;Groupe&gt;"><ellipse id="_Ellipse_19" data-name="&lt;Ellipse&gt;" class="cls-1" cx="39.82" cy="26.6" rx="24.26" ry="10.99" transform="translate(-6.3 13.7) rotate(-18.12)"/><path id="_Tracé_transparent_13" data-name="&lt;Tracé transparent&gt;" class="cls-2" d="M25.81,40.34c-5.43-.59-9-2.68-10-5.88h0c-1-3.2.59-7,4.62-10.68a43.83,43.83,0,0,1,15.68-8.61c13.48-4.41,25.68-2.85,27.78,3.56S57,33.61,43.55,38a47.42,47.42,0,0,1-14.44,2.5A30.41,30.41,0,0,1,25.81,40.34Zm10.91-23.2a41.75,41.75,0,0,0-14.93,8.17c-3.34,3.06-4.82,6.16-4.05,8.51h0c.77,2.35,3.79,4,8.3,4.47a41.75,41.75,0,0,0,16.87-2.23c12-3.92,20.66-11.56,19-16.68-1-3-5.4-4.62-11.3-4.62A45.68,45.68,0,0,0,36.72,17.14Z"/></g><g id="_Groupe_34" data-name="&lt;Groupe&gt;"><ellipse id="_Ellipse_20" data-name="&lt;Ellipse&gt;" class="cls-3" cx="39.04" cy="23.32" rx="24.26" ry="10.99" transform="translate(-5.32 13.3) rotate(-18.12)"/><path id="_Tracé_transparent_14" data-name="&lt;Tracé transparent&gt;" class="cls-2" d="M25,37.06c-5.43-.59-9-2.68-10-5.88s.59-7,4.62-10.68A43.83,43.83,0,0,1,35.3,11.9,43.81,43.81,0,0,1,53,9.57c5.43.59,9,2.68,10,5.88,2.1,6.4-6.82,14.88-20.31,19.29a47.42,47.42,0,0,1-14.44,2.5A30.42,30.42,0,0,1,25,37.06Zm10.91-23.2A41.75,41.75,0,0,0,21,22c-3.34,3.06-4.82,6.16-4.05,8.51h0c.77,2.35,3.79,4,8.3,4.47a41.78,41.78,0,0,0,16.87-2.23c12-3.92,20.66-11.56,19-16.68-.77-2.35-3.79-4-8.3-4.47a28.47,28.47,0,0,0-3.09-.16A45.33,45.33,0,0,0,35.95,13.86Z"/></g><polygon id="_Tracé_61" data-name="&lt;Tracé&gt;" class="cls-4" points="15.32 24.69 15.32 24.69 15.32 24.69 15.32 24.69"/><polygon id="_Tracé_62" data-name="&lt;Tracé&gt;" class="cls-4" points="15.32 24.69 15.32 24.69 15.32 24.69 15.32 24.69"/><g id="_Groupe_35" data-name="&lt;Groupe&gt;"><g id="_Groupe_36" data-name="&lt;Groupe&gt;"><path id="_Tracé_63" data-name="&lt;Tracé&gt;" class="cls-5" d="M20.23,27.57A6.48,6.48,0,0,1,22,24.08a5.23,5.23,0,0,1,3.68-1.34l6,.47c1.75.14,1,1.59-1.16,2.3L23,28C21.53,28.46,20.17,28.28,20.23,27.57Z"/><path id="_Tracé_64" data-name="&lt;Tracé&gt;" class="cls-5" d="M26.46,20.25a33.06,33.06,0,0,1,6-3.16c1.45-.59,3-.55,3.16.08l1,3.11c.3.91-2.19,2.22-3.94,2.09l-6-.47C25.45,21.81,25.34,21,26.46,20.25Z"/><path id="_Tracé_65" data-name="&lt;Tracé&gt;" class="cls-5" d="M40.68,14.39a33,33,0,0,1,6.68-1c1.35,0,1.72.66.8,1.45L43.58,18.8c-1.33,1.14-4.11,1.55-4.41.65l-1-3.11C37.95,15.71,39.15,14.77,40.68,14.39Z"/><path id="_Tracé_66" data-name="&lt;Tracé&gt;" class="cls-5" d="M53.23,13.87a6.42,6.42,0,0,1,3.48,1.77c.47.53-.53,1.48-2,2l-7.49,2.45c-2.18.71-3.63,0-2.3-1.17L49.45,15A5.24,5.24,0,0,1,53.23,13.87Z"/><path id="_Tracé_67" data-name="&lt;Tracé&gt;" class="cls-5" d="M57.82,19.07a6.48,6.48,0,0,1-1.77,3.49,5.23,5.23,0,0,1-3.68,1.34l-6-.47c-1.75-.14-1-1.59,1.16-2.3L55,18.68C56.53,18.18,57.89,18.37,57.82,19.07Z"/><path id="_Tracé_68" data-name="&lt;Tracé&gt;" class="cls-5" d="M51.59,26.4a33.06,33.06,0,0,1-6,3.16c-1.45.59-3,.55-3.16-.08l-1-3.11c-.3-.91,2.19-2.22,3.94-2.09l6,.47C52.61,24.84,52.72,25.63,51.59,26.4Z"/><path id="_Tracé_69" data-name="&lt;Tracé&gt;" class="cls-5" d="M37.37,32.25a33,33,0,0,1-6.68,1c-1.35,0-1.72-.66-.8-1.45l4.58-3.94c1.33-1.14,4.11-1.55,4.41-.65l1,3.11C40.11,30.94,38.9,31.88,37.37,32.25Z"/><path id="_Tracé_70" data-name="&lt;Tracé&gt;" class="cls-5" d="M24.83,32.77A6.42,6.42,0,0,1,21.35,31c-.47-.53.53-1.48,2-2l7.49-2.45c2.18-.71,3.63,0,2.3,1.17L28.6,31.68A5.24,5.24,0,0,1,24.83,32.77Z"/></g><ellipse id="_Ellipse_21" data-name="&lt;Ellipse&gt;" class="cls-5" cx="39.03" cy="23.32" rx="3.2" ry="1.13" transform="translate(-5.32 13.29) rotate(-18.12)"/></g></g></g></svg>