<svg id="Calque_1" data-name="Calque 1" xmlns="http://www.w3.org/2000/svg" viewBox="0 0 289.36 49.92"><defs><style>.cls-1{fill:#fff;}.cls-1,.cls-2{stroke:#262626;stroke-linecap:round;stroke-miterlimit:10;stroke-width:2px;}.cls-2{fill:#fff310;}</style></defs><title>cond-3</title><g id="_Groupe_" data-name="&lt;Groupe&gt;"><g id="_Groupe_2" data-name="&lt;Groupe&gt;"><path id="_Tracé_" data-name="&lt;Tracé&gt;" class="cls-1" d="M107.49,17.46c0,8.62-15.36,15.61-34.3,15.61s-34.3-7-34.3-15.61,15.36,4.39,34.3,4.39S107.49,8.84,107.49,17.46Z"/><ellipse id="_Tracé_2" data-name="&lt;Tracé&gt;" class="cls-1" cx="73.18" cy="17.18" rx="34.3" ry="9.33"/><ellipse id="_Tracé_3" data-name="&lt;Tracé&gt;" class="cls-2" cx="83.43" cy="16.49" rx="12.56" ry="4.65"/></g><g id="_Groupe_3" data-name="&lt;Groupe&gt;"><path id="_Tracé_4" data-name="&lt;Tracé&gt;" class="cls-1" d="M180.49,27.46c0,8.62-15.36,15.61-34.3,15.61s-34.3-7-34.3-15.61,15.36,4.39,34.3,4.39S180.49,18.84,180.49,27.46Z"/><ellipse id="_Tracé_5" data-name="&lt;Tracé&gt;" class="cls-1" cx="146.18" cy="27.18" rx="34.3" ry="9.33"/><ellipse id="_Tracé_6" data-name="&lt;Tracé&gt;" class="cls-2" cx="156.43" cy="26.49" rx="12.56" ry="4.65"/></g><g id="_Groupe_4" data-name="&lt;Groupe&gt;"><path id="_Tracé_7" data-name="&lt;Tracé&gt;" class="cls-1" d="M250.49,16.46c0,8.62-15.36,15.61-34.3,15.61s-34.3-7-34.3-15.61,15.36,4.39,34.3,4.39S250.49,7.84,250.49,16.46Z"/><ellipse id="_Tracé_8" data-name="&lt;Tracé&gt;" class="cls-1" cx="216.18" cy="16.18" rx="34.3" ry="9.33"/><ellipse id="_Tracé_9" data-name="&lt;Tracé&gt;" class="cls-2" cx="226.43" cy="15.49" rx="12.56" ry="4.65"/></g></g></svg>