<svg id="Calque_1" data-name="Calque 1" xmlns="http://www.w3.org/2000/svg" viewBox="0 0 289.36 49.92"><defs><style>.cls-1{fill:#664468;}.cls-1,.cls-2{stroke:#262626;stroke-linecap:round;stroke-linejoin:round;stroke-width:2.39px;}.cls-2{fill:#e1a8ef;}.cls-3{fill:#f17346;}.cls-4{fill:#e8d3ef;}</style></defs><title>cond-7</title><g id="_Groupe_" data-name="&lt;Groupe&gt;"><g id="_Groupe_2" data-name="&lt;Groupe&gt;"><ellipse id="_Ellipse_" data-name="&lt;Ellipse&gt;" class="cls-1" cx="62" cy="26.85" rx="12.7" ry="28.05" transform="translate(17.2 77.43) rotate(-71.88)"/><ellipse id="_Ellipse_2" data-name="&lt;Ellipse&gt;" class="cls-2" cx="62.89" cy="23.06" rx="12.7" ry="28.05" transform="translate(21.42 75.67) rotate(-71.88)"/><polygon id="_Tracé_" data-name="&lt;Tracé&gt;" class="cls-3" points="90.32 24.65 90.32 24.65 90.32 24.65 90.32 24.65"/><polygon id="_Tracé_2" data-name="&lt;Tracé&gt;" class="cls-3" points="90.32 24.65 90.32 24.65 90.32 24.65 90.32 24.65"/><g id="_Groupe_3" data-name="&lt;Groupe&gt;"><g id="_Groupe_4" data-name="&lt;Groupe&gt;"><path id="_Tracé_3" data-name="&lt;Tracé&gt;" class="cls-4" d="M84.64,28a7.49,7.49,0,0,0-2-4,6,6,0,0,0-4.25-1.55l-7,.54c-2,.16-1.18,1.84,1.34,2.66l8.66,2.83C83.14,29,84.71,28.8,84.64,28Z"/><path id="_Tracé_4" data-name="&lt;Tracé&gt;" class="cls-4" d="M77.43,19.51a38.21,38.21,0,0,0-6.91-3.65c-1.67-.69-3.42-.63-3.66.09l-1.18,3.6c-.34,1,2.53,2.57,4.56,2.41l7-.54C78.61,21.31,78.73,20.4,77.43,19.51Z"/><path id="_Tracé_5" data-name="&lt;Tracé&gt;" class="cls-4" d="M61,12.75a38.09,38.09,0,0,0-7.72-1.13c-1.56-.05-2,.76-.92,1.67l5.29,4.55c1.54,1.32,4.76,1.8,5.1.75L63.92,15C64.16,14.26,62.76,13.18,61,12.75Z"/><path id="_Tracé_6" data-name="&lt;Tracé&gt;" class="cls-4" d="M46.49,12.14a7.42,7.42,0,0,0-4,2.05c-.54.61.61,1.71,2.35,2.28l8.66,2.83c2.52.82,4.19,0,2.66-1.35l-5.29-4.55A6.05,6.05,0,0,0,46.49,12.14Z"/><path id="_Tracé_7" data-name="&lt;Tracé&gt;" class="cls-4" d="M41.18,18.16a7.49,7.49,0,0,0,2,4,6,6,0,0,0,4.25,1.55l7-.54c2-.16,1.18-1.84-1.34-2.66L44.43,17.7C42.68,17.13,41.11,17.34,41.18,18.16Z"/><path id="_Tracé_8" data-name="&lt;Tracé&gt;" class="cls-4" d="M48.39,26.62a38.21,38.21,0,0,0,6.91,3.65c1.67.69,3.42.63,3.66-.09l1.18-3.6c.34-1-2.53-2.57-4.56-2.41l-7,.54C47.21,24.82,47.09,25.74,48.39,26.62Z"/><path id="_Tracé_9" data-name="&lt;Tracé&gt;" class="cls-4" d="M64.82,33.39a38.09,38.09,0,0,0,7.72,1.13c1.56.05,2-.76.92-1.67l-5.29-4.55c-1.54-1.32-4.76-1.8-5.1-.75l-1.18,3.6C61.66,31.87,63.06,33,64.82,33.39Z"/><path id="_Tracé_10" data-name="&lt;Tracé&gt;" class="cls-4" d="M79.33,34a7.42,7.42,0,0,0,4-2.05c.54-.61-.61-1.71-2.35-2.28l-8.66-2.83c-2.52-.82-4.19,0-2.66,1.35L75,32.73A6.05,6.05,0,0,0,79.33,34Z"/></g><ellipse id="_Ellipse_3" data-name="&lt;Ellipse&gt;" class="cls-4" cx="62.91" cy="23.07" rx="1.31" ry="3.7" transform="translate(21.42 75.69) rotate(-71.88)"/></g></g><g id="_Groupe_5" data-name="&lt;Groupe&gt;"><ellipse id="_Ellipse_4" data-name="&lt;Ellipse&gt;" class="cls-1" cx="103" cy="26.85" rx="12.7" ry="28.05" transform="translate(45.45 116.4) rotate(-71.88)"/><ellipse id="_Ellipse_5" data-name="&lt;Ellipse&gt;" class="cls-2" cx="103.89" cy="23.06" rx="12.7" ry="28.05" transform="translate(49.67 114.63) rotate(-71.88)"/><polygon id="_Tracé_11" data-name="&lt;Tracé&gt;" class="cls-3" points="131.32 24.65 131.32 24.65 131.32 24.65 131.32 24.65"/><polygon id="_Tracé_12" data-name="&lt;Tracé&gt;" class="cls-3" points="131.32 24.65 131.32 24.65 131.32 24.65 131.32 24.65"/><g id="_Groupe_6" data-name="&lt;Groupe&gt;"><g id="_Groupe_7" data-name="&lt;Groupe&gt;"><path id="_Tracé_13" data-name="&lt;Tracé&gt;" class="cls-4" d="M125.64,28a7.49,7.49,0,0,0-2-4,6,6,0,0,0-4.25-1.55l-7,.54c-2,.16-1.18,1.84,1.34,2.66l8.66,2.83C124.14,29,125.71,28.8,125.64,28Z"/><path id="_Tracé_14" data-name="&lt;Tracé&gt;" class="cls-4" d="M118.43,19.51a38.21,38.21,0,0,0-6.91-3.65c-1.67-.69-3.42-.63-3.66.09l-1.18,3.6c-.34,1,2.53,2.57,4.56,2.41l7-.54C119.61,21.31,119.73,20.4,118.43,19.51Z"/><path id="_Tracé_15" data-name="&lt;Tracé&gt;" class="cls-4" d="M102,12.75a38.09,38.09,0,0,0-7.72-1.13c-1.56-.05-2,.76-.92,1.67l5.29,4.55c1.54,1.32,4.76,1.8,5.1.75l1.18-3.6C105.16,14.26,103.76,13.18,102,12.75Z"/><path id="_Tracé_16" data-name="&lt;Tracé&gt;" class="cls-4" d="M87.49,12.14a7.42,7.42,0,0,0-4,2.05c-.54.61.61,1.71,2.35,2.28l8.66,2.83c2.52.82,4.19,0,2.66-1.35l-5.29-4.55A6.05,6.05,0,0,0,87.49,12.14Z"/><path id="_Tracé_17" data-name="&lt;Tracé&gt;" class="cls-4" d="M82.18,18.16a7.49,7.49,0,0,0,2,4,6,6,0,0,0,4.25,1.55l7-.54c2-.16,1.18-1.84-1.34-2.66L85.43,17.7C83.68,17.13,82.11,17.34,82.18,18.16Z"/><path id="_Tracé_18" data-name="&lt;Tracé&gt;" class="cls-4" d="M89.39,26.62a38.21,38.21,0,0,0,6.91,3.65c1.67.69,3.42.63,3.66-.09l1.18-3.6c.34-1-2.53-2.57-4.56-2.41l-7,.54C88.21,24.82,88.09,25.74,89.39,26.62Z"/><path id="_Tracé_19" data-name="&lt;Tracé&gt;" class="cls-4" d="M105.82,33.39a38.09,38.09,0,0,0,7.72,1.13c1.56.05,2-.76.92-1.67l-5.29-4.55c-1.54-1.32-4.76-1.8-5.1-.75l-1.18,3.6C102.66,31.87,104.06,33,105.82,33.39Z"/><path id="_Tracé_20" data-name="&lt;Tracé&gt;" class="cls-4" d="M120.33,34a7.42,7.42,0,0,0,4-2.05c.54-.61-.61-1.71-2.35-2.28l-8.66-2.83c-2.52-.82-4.19,0-2.66,1.35L116,32.73A6.05,6.05,0,0,0,120.33,34Z"/></g><ellipse id="_Ellipse_6" data-name="&lt;Ellipse&gt;" class="cls-4" cx="103.91" cy="23.07" rx="1.31" ry="3.7" transform="translate(49.67 114.65) rotate(-71.88)"/></g></g><g id="_Groupe_8" data-name="&lt;Groupe&gt;"><ellipse id="_Ellipse_7" data-name="&lt;Ellipse&gt;" class="cls-1" cx="144" cy="26.85" rx="12.7" ry="28.05" transform="translate(73.7 155.36) rotate(-71.88)"/><ellipse id="_Ellipse_8" data-name="&lt;Ellipse&gt;" class="cls-2" cx="144.89" cy="23.06" rx="12.7" ry="28.05" transform="translate(77.92 153.6) rotate(-71.88)"/><polygon id="_Tracé_21" data-name="&lt;Tracé&gt;" class="cls-3" points="172.32 24.65 172.32 24.65 172.32 24.65 172.32 24.65"/><polygon id="_Tracé_22" data-name="&lt;Tracé&gt;" class="cls-3" points="172.32 24.65 172.32 24.65 172.32 24.65 172.32 24.65"/><g id="_Groupe_9" data-name="&lt;Groupe&gt;"><g id="_Groupe_10" data-name="&lt;Groupe&gt;"><path id="_Tracé_23" data-name="&lt;Tracé&gt;" class="cls-4" d="M166.64,28a7.49,7.49,0,0,0-2-4,6,6,0,0,0-4.25-1.55l-7,.54c-2,.16-1.18,1.84,1.34,2.66l8.66,2.83C165.14,29,166.71,28.8,166.64,28Z"/><path id="_Tracé_24" data-name="&lt;Tracé&gt;" class="cls-4" d="M159.43,19.51a38.21,38.21,0,0,0-6.91-3.65c-1.67-.69-3.42-.63-3.66.09l-1.18,3.6c-.34,1,2.53,2.57,4.56,2.41l7-.54C160.61,21.31,160.73,20.4,159.43,19.51Z"/><path id="_Tracé_25" data-name="&lt;Tracé&gt;" class="cls-4" d="M143,12.75a38.09,38.09,0,0,0-7.72-1.13c-1.56-.05-2,.76-.92,1.67l5.29,4.55c1.54,1.32,4.76,1.8,5.1.75l1.18-3.6C146.16,14.26,144.76,13.18,143,12.75Z"/><path id="_Tracé_26" data-name="&lt;Tracé&gt;" class="cls-4" d="M128.49,12.14a7.42,7.42,0,0,0-4,2.05c-.54.61.61,1.71,2.35,2.28l8.66,2.83c2.52.82,4.19,0,2.66-1.35l-5.29-4.55A6.05,6.05,0,0,0,128.49,12.14Z"/><path id="_Tracé_27" data-name="&lt;Tracé&gt;" class="cls-4" d="M123.18,18.16a7.49,7.49,0,0,0,2,4,6,6,0,0,0,4.25,1.55l7-.54c2-.16,1.18-1.84-1.34-2.66l-8.66-2.83C124.68,17.13,123.11,17.34,123.18,18.16Z"/><path id="_Tracé_28" data-name="&lt;Tracé&gt;" class="cls-4" d="M130.39,26.62a38.21,38.21,0,0,0,6.91,3.65c1.67.69,3.42.63,3.66-.09l1.18-3.6c.34-1-2.53-2.57-4.56-2.41l-7,.54C129.21,24.82,129.09,25.74,130.39,26.62Z"/><path id="_Tracé_29" data-name="&lt;Tracé&gt;" class="cls-4" d="M146.82,33.39a38.09,38.09,0,0,0,7.72,1.13c1.56.05,2-.76.92-1.67l-5.29-4.55c-1.54-1.32-4.76-1.8-5.1-.75l-1.18,3.6C143.66,31.87,145.06,33,146.82,33.39Z"/><path id="_Tracé_30" data-name="&lt;Tracé&gt;" class="cls-4" d="M161.33,34a7.42,7.42,0,0,0,4-2.05c.54-.61-.61-1.71-2.35-2.28l-8.66-2.83c-2.52-.82-4.19,0-2.66,1.35L157,32.73A6.05,6.05,0,0,0,161.33,34Z"/></g><ellipse id="_Ellipse_9" data-name="&lt;Ellipse&gt;" class="cls-4" cx="144.91" cy="23.07" rx="1.31" ry="3.7" transform="translate(77.92 153.62) rotate(-71.88)"/></g></g><g id="_Groupe_11" data-name="&lt;Groupe&gt;"><ellipse id="_Ellipse_10" data-name="&lt;Ellipse&gt;" class="cls-1" cx="185" cy="26.85" rx="12.7" ry="28.05" transform="translate(101.95 194.33) rotate(-71.88)"/><ellipse id="_Ellipse_11" data-name="&lt;Ellipse&gt;" class="cls-2" cx="185.89" cy="23.06" rx="12.7" ry="28.05" transform="translate(106.17 192.57) rotate(-71.88)"/><polygon id="_Tracé_31" data-name="&lt;Tracé&gt;" class="cls-3" points="213.32 24.65 213.32 24.65 213.32 24.65 213.32 24.65"/><polygon id="_Tracé_32" data-name="&lt;Tracé&gt;" class="cls-3" points="213.32 24.65 213.32 24.65 213.32 24.65 213.32 24.65"/><g id="_Groupe_12" data-name="&lt;Groupe&gt;"><g id="_Groupe_13" data-name="&lt;Groupe&gt;"><path id="_Tracé_33" data-name="&lt;Tracé&gt;" class="cls-4" d="M207.64,28a7.49,7.49,0,0,0-2-4,6,6,0,0,0-4.25-1.55l-7,.54c-2,.16-1.18,1.84,1.34,2.66l8.66,2.83C206.14,29,207.71,28.8,207.64,28Z"/><path id="_Tracé_34" data-name="&lt;Tracé&gt;" class="cls-4" d="M200.43,19.51a38.21,38.21,0,0,0-6.91-3.65c-1.67-.69-3.42-.63-3.66.09l-1.18,3.6c-.34,1,2.53,2.57,4.56,2.41l7-.54C201.61,21.31,201.73,20.4,200.43,19.51Z"/><path id="_Tracé_35" data-name="&lt;Tracé&gt;" class="cls-4" d="M184,12.75a38.09,38.09,0,0,0-7.72-1.13c-1.56-.05-2,.76-.92,1.67l5.29,4.55c1.54,1.32,4.76,1.8,5.1.75l1.18-3.6C187.16,14.26,185.76,13.18,184,12.75Z"/><path id="_Tracé_36" data-name="&lt;Tracé&gt;" class="cls-4" d="M169.49,12.14a7.42,7.42,0,0,0-4,2.05c-.54.61.61,1.71,2.35,2.28l8.66,2.83c2.52.82,4.19,0,2.66-1.35l-5.29-4.55A6.05,6.05,0,0,0,169.49,12.14Z"/><path id="_Tracé_37" data-name="&lt;Tracé&gt;" class="cls-4" d="M164.18,18.16a7.49,7.49,0,0,0,2,4,6,6,0,0,0,4.25,1.55l7-.54c2-.16,1.18-1.84-1.34-2.66l-8.66-2.83C165.68,17.13,164.11,17.34,164.18,18.16Z"/><path id="_Tracé_38" data-name="&lt;Tracé&gt;" class="cls-4" d="M171.39,26.62a38.21,38.21,0,0,0,6.91,3.65c1.67.69,3.42.63,3.66-.09l1.18-3.6c.34-1-2.53-2.57-4.56-2.41l-7,.54C170.21,24.82,170.09,25.74,171.39,26.62Z"/><path id="_Tracé_39" data-name="&lt;Tracé&gt;" class="cls-4" d="M187.82,33.39a38.09,38.09,0,0,0,7.72,1.13c1.56.05,2-.76.92-1.67l-5.29-4.55c-1.54-1.32-4.76-1.8-5.1-.75l-1.18,3.6C184.66,31.87,186.06,33,187.82,33.39Z"/><path id="_Tracé_40" data-name="&lt;Tracé&gt;" class="cls-4" d="M202.33,34a7.42,7.42,0,0,0,4-2.05c.54-.61-.61-1.71-2.35-2.28l-8.66-2.83c-2.52-.82-4.19,0-2.66,1.35L198,32.73A6.05,6.05,0,0,0,202.33,34Z"/></g><ellipse id="_Ellipse_12" data-name="&lt;Ellipse&gt;" class="cls-4" cx="185.91" cy="23.07" rx="1.31" ry="3.7" transform="translate(106.17 192.59) rotate(-71.88)"/></g></g><g id="_Groupe_14" data-name="&lt;Groupe&gt;"><ellipse id="_Ellipse_13" data-name="&lt;Ellipse&gt;" class="cls-1" cx="226" cy="26.85" rx="12.7" ry="28.05" transform="translate(130.2 233.3) rotate(-71.88)"/><ellipse id="_Ellipse_14" data-name="&lt;Ellipse&gt;" class="cls-2" cx="226.89" cy="23.06" rx="12.7" ry="28.05" transform="translate(134.42 231.53) rotate(-71.88)"/><polygon id="_Tracé_41" data-name="&lt;Tracé&gt;" class="cls-3" points="254.32 24.65 254.32 24.65 254.32 24.65 254.32 24.65"/><polygon id="_Tracé_42" data-name="&lt;Tracé&gt;" class="cls-3" points="254.32 24.65 254.32 24.65 254.32 24.65 254.32 24.65"/><g id="_Groupe_15" data-name="&lt;Groupe&gt;"><g id="_Groupe_16" data-name="&lt;Groupe&gt;"><path id="_Tracé_43" data-name="&lt;Tracé&gt;" class="cls-4" d="M248.64,28a7.49,7.49,0,0,0-2-4,6,6,0,0,0-4.25-1.55l-7,.54c-2,.16-1.18,1.84,1.34,2.66l8.66,2.83C247.14,29,248.71,28.8,248.64,28Z"/><path id="_Tracé_44" data-name="&lt;Tracé&gt;" class="cls-4" d="M241.43,19.51a38.21,38.21,0,0,0-6.91-3.65c-1.67-.69-3.42-.63-3.66.09l-1.18,3.6c-.34,1,2.53,2.57,4.56,2.41l7-.54C242.61,21.31,242.73,20.4,241.43,19.51Z"/><path id="_Tracé_45" data-name="&lt;Tracé&gt;" class="cls-4" d="M225,12.75a38.09,38.09,0,0,0-7.72-1.13c-1.56-.05-2,.76-.92,1.67l5.29,4.55c1.54,1.32,4.76,1.8,5.1.75l1.18-3.6C228.16,14.26,226.76,13.18,225,12.75Z"/><path id="_Tracé_46" data-name="&lt;Tracé&gt;" class="cls-4" d="M210.49,12.14a7.42,7.42,0,0,0-4,2.05c-.54.61.61,1.71,2.35,2.28l8.66,2.83c2.52.82,4.19,0,2.66-1.35l-5.29-4.55A6.05,6.05,0,0,0,210.49,12.14Z"/><path id="_Tracé_47" data-name="&lt;Tracé&gt;" class="cls-4" d="M205.18,18.16a7.49,7.49,0,0,0,2,4,6,6,0,0,0,4.25,1.55l7-.54c2-.16,1.18-1.84-1.34-2.66l-8.66-2.83C206.68,17.13,205.11,17.34,205.18,18.16Z"/><path id="_Tracé_48" data-name="&lt;Tracé&gt;" class="cls-4" d="M212.39,26.62a38.21,38.21,0,0,0,6.91,3.65c1.67.69,3.42.63,3.66-.09l1.18-3.6c.34-1-2.53-2.57-4.56-2.41l-7,.54C211.21,24.82,211.09,25.74,212.39,26.62Z"/><path id="_Tracé_49" data-name="&lt;Tracé&gt;" class="cls-4" d="M228.82,33.39a38.09,38.09,0,0,0,7.72,1.13c1.56.05,2-.76.92-1.67l-5.29-4.55c-1.54-1.32-4.76-1.8-5.1-.75l-1.18,3.6C225.66,31.87,227.06,33,228.82,33.39Z"/><path id="_Tracé_50" data-name="&lt;Tracé&gt;" class="cls-4" d="M243.33,34a7.42,7.42,0,0,0,4-2.05c.54-.61-.61-1.71-2.35-2.28l-8.66-2.83c-2.52-.82-4.19,0-2.66,1.35L239,32.73A6.05,6.05,0,0,0,243.33,34Z"/></g><ellipse id="_Ellipse_15" data-name="&lt;Ellipse&gt;" class="cls-4" cx="226.91" cy="23.07" rx="1.31" ry="3.7" transform="translate(134.42 231.55) rotate(-71.88)"/></g></g></g></svg>