<svg id="Calque_1" data-name="Calque 1" xmlns="http://www.w3.org/2000/svg" viewBox="0 0 289.36 49.92"><defs><style>.cls-1{fill:#ff3636;}.cls-1,.cls-2{stroke:#262626;stroke-linecap:round;stroke-miterlimit:10;stroke-width:2px;}.cls-2{fill:#ff5943;}.cls-3{fill:#ff9c9c;}</style></defs><title>viande-3</title><g id="_Groupe_" data-name="&lt;Groupe&gt;"><g id="_Groupe_2" data-name="&lt;Groupe&gt;"><path id="_Tracé_" data-name="&lt;Tracé&gt;" class="cls-1" d="M40,33.52S78.53,2.25,123.19,7.06s19.23,22.46,1.6,22.9S75,34.64,65,40.89,35.14,41.4,40,33.52Z"/><path id="_Tracé_2" data-name="&lt;Tracé&gt;" class="cls-2" d="M39.05,29.78S78,1.6,122.82,5.54,142,25.41,124.24,25.94s-50,4.56-60.12,10.22S34.11,36.84,39.05,29.78Z"/><path id="_Tracé_3" data-name="&lt;Tracé&gt;" class="cls-3" d="M80.28,26.88s4-4.82.58-8-13.07-.41-13.07-.41S84.08,15.59,80.28,26.88Z"/><path id="_Tracé_4" data-name="&lt;Tracé&gt;" class="cls-3" d="M94.27,22.87s6.36-2.34,5.26-7.23S87.75,12,87.75,12,106.07,12.51,94.27,22.87Z"/><path id="_Tracé_5" data-name="&lt;Tracé&gt;" class="cls-3" d="M121.17,22.38s7.66-1.35,11.29-6.14-7.1-6.89-7.1-6.89S139.66,16.25,121.17,22.38Z"/><path id="_Tracé_6" data-name="&lt;Tracé&gt;" class="cls-3" d="M109,21.84s5.65-3,6.29-7.31-6-5.37-6-5.37S120.27,12.84,109,21.84Z"/><path id="_Tracé_7" data-name="&lt;Tracé&gt;" class="cls-3" d="M65.41,30.75s2.46-4.18-.43-6.18-8.5-.21-8.5-.21S67.12,22.27,65.41,30.75Z"/></g><g id="_Groupe_3" data-name="&lt;Groupe&gt;"><path id="_Tracé_8" data-name="&lt;Tracé&gt;" class="cls-1" d="M142.07,33.68s40.62-28.5,84.84-20.58,17.61,23.75,0,23-50,1.19-60.39,6.73S136.68,41.2,142.07,33.68Z"/><path id="_Tracé_9" data-name="&lt;Tracé&gt;" class="cls-2" d="M141.39,29.89s40.82-25.39,85.25-18.34,17.7,21.16,0,20.46S176.43,33.06,166,38,136,36.59,141.39,29.89Z"/><path id="_Tracé_10" data-name="&lt;Tracé&gt;" class="cls-3" d="M182.73,29.87s4.34-4.53,1.13-7.92-13-1.32-13-1.32S187.3,18.87,182.73,29.87Z"/><path id="_Tracé_11" data-name="&lt;Tracé&gt;" class="cls-3" d="M197,26.85S203.47,25,202.71,20s-11.5-4.46-11.5-4.46S209.46,17.33,197,26.85Z"/><path id="_Tracé_12" data-name="&lt;Tracé&gt;" class="cls-3" d="M223.83,28.23s7.73-.82,11.69-5.34-6.6-7.37-6.6-7.37S242.7,23.41,223.83,28.23Z"/><path id="_Tracé_13" data-name="&lt;Tracé&gt;" class="cls-3" d="M211.76,26.85s5.85-2.64,6.79-6.85-5.66-5.78-5.66-5.78S223.6,18.65,211.76,26.85Z"/><path id="_Tracé_14" data-name="&lt;Tracé&gt;" class="cls-3" d="M167.62,32.7s2.74-4,0-6.19-8.46-.8-8.46-.8S169.92,24.36,167.62,32.7Z"/></g></g></svg>