<svg id="Calque_1" data-name="Calque 1" xmlns="http://www.w3.org/2000/svg" viewBox="0 0 289.36 49.92"><defs><style>.cls-1{fill:#56592e;}.cls-1,.cls-2,.cls-3,.cls-4{stroke:#262626;stroke-linecap:round;stroke-miterlimit:10;}.cls-1,.cls-2{stroke-width:2px;}.cls-2{fill:#58632b;}.cls-3{fill:#700000;}.cls-3,.cls-4{stroke-width:1.5px;}.cls-4{fill:none;}</style></defs><title>viande-5</title><g id="_Groupe_" data-name="&lt;Groupe&gt;"><g id="_Groupe_2" data-name="&lt;Groupe&gt;"><g id="_Groupe_3" data-name="&lt;Groupe&gt;"><path id="_Tracé_" data-name="&lt;Tracé&gt;" class="cls-1" d="M28.47,18.57s-1.7,9.33,1,12.6c8.41,10.34,94.72,13.26,109.89,0,4.16-3.63,4.65-3.89,5-12.6Z"/><path id="_Tracé_2" data-name="&lt;Tracé&gt;" class="cls-2" d="M144.36,18.57c-1.45,4.81-28.56,8.72-60.56,8.72S27,23.39,28.47,18.57,57,9.86,89,9.86,145.81,13.76,144.36,18.57Z"/><line id="_Tracé_3" data-name="&lt;Tracé&gt;" class="cls-3" x1="59.95" y1="11" x2="43.11" y2="18.57"/><line id="_Tracé_4" data-name="&lt;Tracé&gt;" class="cls-3" x1="78.93" y1="10.63" x2="57.71" y2="20.33"/><line id="_Tracé_5" data-name="&lt;Tracé&gt;" class="cls-3" x1="96.25" y1="10.63" x2="74.45" y2="21"/><line id="_Tracé_6" data-name="&lt;Tracé&gt;" class="cls-3" x1="113.57" y1="10.63" x2="91.98" y2="21"/><line id="_Tracé_7" data-name="&lt;Tracé&gt;" class="cls-3" x1="127.52" y1="12.15" x2="110.04" y2="22.39"/><path id="_Tracé_8" data-name="&lt;Tracé&gt;" class="cls-4" d="M33.52,15.33s58.2-5.47,96.59,1.24"/><path id="_Tracé_9" data-name="&lt;Tracé&gt;" class="cls-4" d="M28.47,18.57S101.8,15.68,122.37,21"/></g></g><g id="_Groupe_4" data-name="&lt;Groupe&gt;"><g id="_Groupe_5" data-name="&lt;Groupe&gt;"><path id="_Tracé_10" data-name="&lt;Tracé&gt;" class="cls-1" d="M145.47,18.57s-1.7,9.33,1,12.6c8.41,10.34,94.72,13.26,109.89,0,4.16-3.63,4.65-3.89,5-12.6Z"/><path id="_Tracé_11" data-name="&lt;Tracé&gt;" class="cls-2" d="M261.36,18.57c-1.45,4.81-28.56,8.72-60.56,8.72s-56.77-3.9-55.33-8.72S174,9.86,206,9.86,262.81,13.76,261.36,18.57Z"/><line id="_Tracé_12" data-name="&lt;Tracé&gt;" class="cls-3" x1="176.95" y1="11" x2="160.11" y2="18.57"/><line id="_Tracé_13" data-name="&lt;Tracé&gt;" class="cls-3" x1="195.93" y1="10.63" x2="174.71" y2="20.33"/><line id="_Tracé_14" data-name="&lt;Tracé&gt;" class="cls-3" x1="213.25" y1="10.63" x2="191.45" y2="21"/><line id="_Tracé_15" data-name="&lt;Tracé&gt;" class="cls-3" x1="230.57" y1="10.63" x2="208.98" y2="21"/><line id="_Tracé_16" data-name="&lt;Tracé&gt;" class="cls-3" x1="244.52" y1="12.15" x2="227.04" y2="22.39"/><path id="_Tracé_17" data-name="&lt;Tracé&gt;" class="cls-4" d="M150.52,15.33s58.2-5.47,96.59,1.24"/><path id="_Tracé_18" data-name="&lt;Tracé&gt;" class="cls-4" d="M145.47,18.57S218.8,15.68,239.37,21"/></g></g></g></svg>