<svg id="Calque_1" data-name="Calque 1" xmlns="http://www.w3.org/2000/svg" viewBox="0 0 289.36 49.92"><defs><style>.cls-1{fill:#fc0000;stroke:#262626;stroke-linecap:round;stroke-linejoin:round;stroke-width:2.39px;}</style></defs><title>sauce-3</title><path id="_Tracé_" data-name="&lt;Tracé&gt;" class="cls-1" d="M235.39,12.15v26.2c0,2.51-2.39,4.56-5.33,4.56h0c-2.94,0-5.33-2-5.33-4.56V35.82c0-2.51-2.39-4.56-5.33-4.56h0c-2.94,0-5.33,2-5.33,4.56v.4c0,2.51-2.39,4.56-5.33,4.56h0c-2.94,0-5.33-2-5.33-4.56V29.47c0-2.51-2.39-4.56-5.33-4.56h0c-2.94,0-5.33,2-5.33,4.56v3c0,2.51-2.39,4.56-5.33,4.56h0c-2.94,0-5.33-2-5.33-4.56V19.94c0-2.51-2.39-4.56-5.33-4.56h0c-2.94,0-5.33,2-5.33,4.56V38.31c0,2.51-2.39,4.56-5.33,4.56h0c-2.94,0-5.33-2-5.33-4.56v-.9c0-2.51-2.39-4.56-5.33-4.56h0c-2.94,0-5.33,2-5.33,4.56v1.94c0,2.51-2.39,4.56-5.33,4.56h0c-2.94,0-5.33-2-5.33-4.56v-6.7c0-2.51-2.39-4.56-5.33-4.56h0c-2.94,0-5.33,2-5.33,4.56v3c0,2.51-2.39,4.56-5.33,4.56h0c-2.94,0-5.33-2-5.33-4.56V29.47c0-2.51-2.39-4.56-5.33-4.56h0c-2.94,0-5.33,2-5.33,4.56v5.62c0,2.51-2.39,4.56-5.33,4.56h0c-2.94,0-5.33-2-5.33-4.56v-.85c0-2.51-2.39-4.56-5.33-4.56h0c-2.94,0-5.33,2-5.33,4.56v3.48c0,2.51-2.39,4.56-5.33,4.56h0c-2.94,0-5.33-1-5.33-3.51v-7.7c0-2.51-2.39-4.56-5.33-4.56h0c-2.94,0-5.33,2-5.33,4.56v4.53c0,2.51-2.39,4.56-5.33,4.56h0c-2.94,0-5.33-2-5.33-4.56V12.15Z"/></svg>