<svg xmlns="http://www.w3.org/2000/svg" viewBox="0 0 240.16 27.76"><defs><style>.cls-1{fill:#ce9541;}.cls-2{fill:#262626;}</style></defs><title>pain-3-bottom</title><g id="Calque_3" data-name="Calque 3"><g id="_Groupe_" data-name="&lt;Groupe&gt;"><path id="_Tracé_" data-name="&lt;Tracé&gt;" class="cls-1" d="M237.11,3.05v12.6c0,5-4.75,9.06-10.62,9.06H13.67c-5.86,0-10.62-4.06-10.62-9.06V3.05Z"/><path id="_Tracé_transparent_" data-name="&lt;Tracé transparent&gt;" class="cls-2" d="M237.11,3.05v12.6c0,5-4.75,9.06-10.62,9.06H13.67C7.8,24.71,3,20.65,3,15.65V3.05H237.11m0-3.05H3A3.05,3.05,0,0,0,0,3.05v12.6c0,6.68,6.13,12.11,13.67,12.11H226.49c7.54,0,13.67-5.43,13.67-12.11V3.05a3.05,3.05,0,0,0-3-3.05Z"/></g></g></svg>