<svg xmlns="http://www.w3.org/2000/svg" viewBox="0 0 252.5 48"><defs><style>.cls-1{fill:#f2d041;}.cls-2{fill:#262626;}.cls-3{fill:none;stroke:#262626;stroke-linecap:round;stroke-miterlimit:10;stroke-width:3.05px;}</style></defs><title>pain-2-top</title><g id="Calque_2" data-name="Calque 2"><g id="_Groupe_" data-name="&lt;Groupe&gt;"><g id="_Groupe_2" data-name="&lt;Groupe&gt;"><path id="_Rectangle_" data-name="&lt;Rectangle&gt;" class="cls-1" d="M39.88,7.22H212.62a34,34,0,0,1,34,34v1.53a0,0,0,0,1,0,0H5.84a0,0,0,0,1,0,0V41.25A34,34,0,0,1,39.88,7.22Z"/><path id="_Tracé_transparent_" data-name="&lt;Tracé transparent&gt;" class="cls-2" d="M212.62,7.22a34,34,0,0,1,34,34v1.53H5.84V41.25a34,34,0,0,1,34-34H212.62m0-3.05H39.88A37.13,37.13,0,0,0,2.79,41.25v1.53a3.05,3.05,0,0,0,3.05,3.05H246.66a3.05,3.05,0,0,0,3.05-3.05V41.25A37.13,37.13,0,0,0,212.62,4.17Z"/></g><path id="_Tracé_" data-name="&lt;Tracé&gt;" class="cls-3" d="M41.76,5.94S39.71,16.88,52.24,21.66"/><path id="_Tracé_2" data-name="&lt;Tracé&gt;" class="cls-3" d="M82.76,5.94S80.71,16.88,93.24,21.66"/><path id="_Tracé_3" data-name="&lt;Tracé&gt;" class="cls-3" d="M123.76,5.94s-2.05,10.94,10.48,15.72"/><path id="_Tracé_4" data-name="&lt;Tracé&gt;" class="cls-3" d="M164.76,5.94s-2.05,10.94,10.48,15.72"/><path id="_Tracé_5" data-name="&lt;Tracé&gt;" class="cls-3" d="M205.76,5.94s-2.05,10.94,10.48,15.72"/></g></g></svg>