<svg xmlns="http://www.w3.org/2000/svg" viewBox="0 0 252.5 48"><defs><style>.cls-1{fill:#ffcd5c;}.cls-2{fill:#262626;}.cls-3{fill:#ff9750;}</style></defs><title>pain-5-top</title><g id="Calque_5" data-name="Calque 5"><g id="_Groupe_" data-name="&lt;Groupe&gt;"><g id="_Groupe_2" data-name="&lt;Groupe&gt;"><path id="_Rectangle_" data-name="&lt;Rectangle&gt;" class="cls-1" d="M39.88,6.22H212.62a34,34,0,0,1,34,34v1.53a0,0,0,0,1,0,0H5.84a0,0,0,0,1,0,0V40.25a34,34,0,0,1,34-34Z"/><path id="_Tracé_transparent_" data-name="&lt;Tracé transparent&gt;" class="cls-2" d="M212.62,6.22a34,34,0,0,1,34,34v1.53H5.84V40.25a34,34,0,0,1,34-34H212.62m0-3.05H39.88A37.13,37.13,0,0,0,2.79,40.25v1.53a3.05,3.05,0,0,0,3.05,3.05H246.66a3.05,3.05,0,0,0,3.05-3.05V40.25A37.13,37.13,0,0,0,212.62,3.17Z"/></g><g id="_Groupe_3" data-name="&lt;Groupe&gt;"><g id="_Groupe_4" data-name="&lt;Groupe&gt;"><line id="_Tracé_" data-name="&lt;Tracé&gt;" class="cls-3" x1="70.63" y1="6.22" x2="87.33" y2="24"/><path id="_Tracé_2" data-name="&lt;Tracé&gt;" class="cls-2" d="M87.33,25.77A1.77,1.77,0,0,1,86,25.21L69.34,7.43A1.77,1.77,0,0,1,71.92,5l16.7,17.78a1.77,1.77,0,0,1-1.29,3Z"/></g><g id="_Groupe_5" data-name="&lt;Groupe&gt;"><line id="_Tracé_3" data-name="&lt;Tracé&gt;" class="cls-3" x1="117.9" y1="6.22" x2="134.6" y2="24"/><path id="_Tracé_4" data-name="&lt;Tracé&gt;" class="cls-2" d="M134.6,25.77a1.77,1.77,0,0,1-1.29-.56L116.61,7.43A1.77,1.77,0,1,1,119.19,5l16.7,17.78a1.77,1.77,0,0,1-1.29,3Z"/></g><g id="_Groupe_6" data-name="&lt;Groupe&gt;"><line id="_Tracé_5" data-name="&lt;Tracé&gt;" class="cls-3" x1="165.17" y1="6.22" x2="181.87" y2="24"/><path id="_Tracé_6" data-name="&lt;Tracé&gt;" class="cls-2" d="M181.87,25.77a1.77,1.77,0,0,1-1.29-.56L163.88,7.43A1.77,1.77,0,0,1,166.46,5l16.7,17.78a1.77,1.77,0,0,1-1.29,3Z"/></g></g></g></g></svg>