<svg xmlns="http://www.w3.org/2000/svg" viewBox="0 0 252.5 48"><defs><style>.cls-1{fill:#f4de3b;}.cls-2{fill:#262626;}.cls-3{fill:#ff9750;}</style></defs><title>pain-1-top</title><g id="Calque_1" data-name="Calque 1"><g id="_Groupe_" data-name="&lt;Groupe&gt;"><g id="_Groupe_2" data-name="&lt;Groupe&gt;"><path id="_Rectangle_" data-name="&lt;Rectangle&gt;" class="cls-1" d="M39.88,6.22H212.62a34,34,0,0,1,34,34v1.53a0,0,0,0,1,0,0H5.84a0,0,0,0,1,0,0V40.25A34,34,0,0,1,39.88,6.22Z"/><path id="_Tracé_transparent_" data-name="&lt;Tracé transparent&gt;" class="cls-2" d="M212.62,6.22a34,34,0,0,1,34,34v1.53H5.84V40.25a34,34,0,0,1,34-34H212.62m0-3.05H39.88A37.13,37.13,0,0,0,2.79,40.25v1.53a3.05,3.05,0,0,0,3.05,3.05H246.66a3.05,3.05,0,0,0,3.05-3.05V40.25A37.13,37.13,0,0,0,212.62,3.17Z"/></g><g id="_Groupe_3" data-name="&lt;Groupe&gt;"><g id="_Groupe_4" data-name="&lt;Groupe&gt;"><line id="_Tracé_" data-name="&lt;Tracé&gt;" class="cls-3" x1="50.23" y1="6.22" x2="60.46" y2="24"/><path id="_Tracé_2" data-name="&lt;Tracé&gt;" class="cls-2" d="M59.81,25.77a1.2,1.2,0,0,1-1.09-.56L48.5,7.43a2.1,2.1,0,0,1,1-2.51c1-.67,2.07-.63,2.48.08L62.19,22.79a2.1,2.1,0,0,1-1,2.51A2.48,2.48,0,0,1,59.81,25.77Z"/></g><g id="_Groupe_5" data-name="&lt;Groupe&gt;"><line id="_Tracé_3" data-name="&lt;Tracé&gt;" class="cls-3" x1="97.5" y1="6.22" x2="107.73" y2="24"/><path id="_Tracé_4" data-name="&lt;Tracé&gt;" class="cls-2" d="M107.08,25.77a1.2,1.2,0,0,1-1.09-.56L95.77,7.43a2.1,2.1,0,0,1,1-2.51c1-.67,2.07-.63,2.48.08l10.22,17.78a2.1,2.1,0,0,1-1,2.51A2.48,2.48,0,0,1,107.08,25.77Z"/></g><g id="_Groupe_6" data-name="&lt;Groupe&gt;"><line id="_Tracé_5" data-name="&lt;Tracé&gt;" class="cls-3" x1="144.77" y1="6.22" x2="155" y2="24"/><path id="_Tracé_6" data-name="&lt;Tracé&gt;" class="cls-2" d="M154.35,25.77a1.2,1.2,0,0,1-1.09-.56L143,7.43a2.1,2.1,0,0,1,1-2.51c1-.67,2.07-.63,2.48.08l10.22,17.78a2.1,2.1,0,0,1-1,2.51A2.48,2.48,0,0,1,154.35,25.77Z"/></g><g id="_Groupe_7" data-name="&lt;Groupe&gt;"><line id="_Tracé_7" data-name="&lt;Tracé&gt;" class="cls-3" x1="192.04" y1="6.22" x2="202.27" y2="24"/><path id="_Tracé_8" data-name="&lt;Tracé&gt;" class="cls-2" d="M201.62,25.77a1.2,1.2,0,0,1-1.09-.56L190.31,7.43a2.1,2.1,0,0,1,1-2.51c1-.67,2.07-.63,2.48.08L204,22.79a2.1,2.1,0,0,1-1,2.51A2.48,2.48,0,0,1,201.62,25.77Z"/></g></g></g></g></svg>