<svg xmlns="http://www.w3.org/2000/svg" viewBox="0 0 252.5 48"><defs><style>.cls-1{fill:#f2ae40;}.cls-2{fill:#262626;}</style></defs><title>pain-4-top</title><g id="Calque_4" data-name="Calque 4"><g id="_Groupe_" data-name="&lt;Groupe&gt;"><g id="_Groupe_2" data-name="&lt;Groupe&gt;"><path id="_Rectangle_" data-name="&lt;Rectangle&gt;" class="cls-1" d="M39.88,7.22H212.62a34,34,0,0,1,34,34v1.53a0,0,0,0,1,0,0H5.84a0,0,0,0,1,0,0V41.25A34,34,0,0,1,39.88,7.22Z"/><path id="_Tracé_transparent_" data-name="&lt;Tracé transparent&gt;" class="cls-2" d="M212.62,7.22a34,34,0,0,1,34,34v1.53H5.84V41.25a34,34,0,0,1,34-34H212.62m0-3.05H39.88A37.13,37.13,0,0,0,2.79,41.25v1.53a3.05,3.05,0,0,0,3.05,3.05H246.66a3.05,3.05,0,0,0,3.05-3.05V41.25A37.13,37.13,0,0,0,212.62,4.17Z"/></g><g id="_Groupe_3" data-name="&lt;Groupe&gt;"><ellipse id="_Tracé_" data-name="&lt;Tracé&gt;" class="cls-2" cx="40.82" cy="11.92" rx="4.33" ry="1.27"/><ellipse id="_Tracé_2" data-name="&lt;Tracé&gt;" class="cls-2" cx="61.82" cy="11.92" rx="4.33" ry="1.27"/><ellipse id="_Tracé_3" data-name="&lt;Tracé&gt;" class="cls-2" cx="82.82" cy="11.92" rx="4.33" ry="1.27"/><ellipse id="_Tracé_4" data-name="&lt;Tracé&gt;" class="cls-2" cx="103.82" cy="11.92" rx="4.33" ry="1.27"/><ellipse id="_Tracé_5" data-name="&lt;Tracé&gt;" class="cls-2" cx="124.82" cy="11.92" rx="4.33" ry="1.27"/><ellipse id="_Tracé_6" data-name="&lt;Tracé&gt;" class="cls-2" cx="145.82" cy="11.92" rx="4.33" ry="1.27"/><ellipse id="_Tracé_7" data-name="&lt;Tracé&gt;" class="cls-2" cx="166.82" cy="11.92" rx="4.33" ry="1.27"/><ellipse id="_Tracé_8" data-name="&lt;Tracé&gt;" class="cls-2" cx="187.82" cy="11.92" rx="4.33" ry="1.27"/><ellipse id="_Tracé_9" data-name="&lt;Tracé&gt;" class="cls-2" cx="208.82" cy="11.92" rx="4.33" ry="1.27"/></g><g id="_Groupe_4" data-name="&lt;Groupe&gt;"><ellipse id="_Tracé_10" data-name="&lt;Tracé&gt;" class="cls-2" cx="29.82" cy="16.92" rx="4.33" ry="1.27"/><ellipse id="_Tracé_11" data-name="&lt;Tracé&gt;" class="cls-2" cx="50.82" cy="16.92" rx="4.33" ry="1.27"/><ellipse id="_Tracé_12" data-name="&lt;Tracé&gt;" class="cls-2" cx="71.82" cy="16.92" rx="4.33" ry="1.27"/><ellipse id="_Tracé_13" data-name="&lt;Tracé&gt;" class="cls-2" cx="92.82" cy="16.92" rx="4.33" ry="1.27"/><ellipse id="_Tracé_14" data-name="&lt;Tracé&gt;" class="cls-2" cx="113.82" cy="16.92" rx="4.33" ry="1.27"/><ellipse id="_Tracé_15" data-name="&lt;Tracé&gt;" class="cls-2" cx="134.82" cy="16.92" rx="4.33" ry="1.27"/><ellipse id="_Tracé_16" data-name="&lt;Tracé&gt;" class="cls-2" cx="155.82" cy="16.92" rx="4.33" ry="1.27"/><ellipse id="_Tracé_17" data-name="&lt;Tracé&gt;" class="cls-2" cx="176.82" cy="16.92" rx="4.33" ry="1.27"/><ellipse id="_Tracé_18" data-name="&lt;Tracé&gt;" class="cls-2" cx="197.82" cy="16.92" rx="4.33" ry="1.27"/><ellipse id="_Tracé_19" data-name="&lt;Tracé&gt;" class="cls-2" cx="218.82" cy="16.92" rx="4.33" ry="1.27"/></g></g></g></svg>