<svg id="Calque_1" data-name="Calque 1" xmlns="http://www.w3.org/2000/svg" viewBox="0 0 289.36 49.92"><defs><style>.cls-1{fill:#fff422;stroke:#262626;stroke-linecap:round;stroke-miterlimit:10;stroke-width:1.5px;}</style></defs><title>fromage-1</title><g id="_Groupe_" data-name="&lt;Groupe&gt;"><path id="_Tracé_transparent_" data-name="&lt;Tracé transparent&gt;" class="cls-1" d="M27.21,10.57,21.84,39.35H39l1.38-8.59a5.05,5.05,0,0,1,4.92-4,3.49,3.49,0,0,1,3.7,4l-1.27,8.59H79.81l.9-9.14A5.32,5.32,0,0,1,86,25.69a4.27,4.27,0,0,1,4.49,4.51l-.76,9.14h61.67l-.06-6.21a2.26,2.26,0,0,1,2.34-2.2,2.34,2.34,0,0,1,2.4,2.2l.11,6.21h22.21l-.31-6.07a3,3,0,0,1,3.12-3,3.42,3.42,0,0,1,3.46,3l.37,6.07h20.48l-.89-9.64a3.07,3.07,0,0,1,3.24-3.28,3.89,3.89,0,0,1,3.88,3.28l1,9.64h34l-.66-4.27a2.53,2.53,0,0,1,2.67-2.92h0a3.72,3.72,0,0,1,3.61,2.92l.7,4.27h14.39l-5.37-28.78Zm6.43,19.66h-1a3,3,0,0,1-3.19-3.52,4.54,4.54,0,0,1,4.39-3.48h1A3,3,0,0,1,38,26.71,4.52,4.52,0,0,1,33.64,30.23Zm36.2-3.8H69A2.91,2.91,0,0,1,66,23.23a3.86,3.86,0,0,1,3.84-3.16h.79a2.91,2.91,0,0,1,3.1,3.16A3.85,3.85,0,0,1,69.84,26.42Zm38.28-.84a3.37,3.37,0,0,1-3.43,3,2.91,2.91,0,0,1-3.06-3L101.8,23a3.36,3.36,0,0,1,3.41-2.95,2.9,2.9,0,0,1,3,2.95Zm11.38,3.14a3.78,3.78,0,0,1-3.86,3.44,3.4,3.4,0,0,1-3.55-3.44l.11-2.1A3.77,3.77,0,0,1,116,23.23a3.38,3.38,0,0,1,3.54,3.39Zm37.63-2.29H141a2.58,2.58,0,0,1-2.68-2.48,2.62,2.62,0,0,1,2.71-2.46h16a2.66,2.66,0,0,1,2.74,2.46A2.54,2.54,0,0,1,157.13,26.42Zm14,6.33a2.45,2.45,0,0,1-2.55,2.47,2.68,2.68,0,0,1-2.73-2.47l-.12-3.62a2.44,2.44,0,0,1,2.54-2.42A2.66,2.66,0,0,1,171,29.13Zm21.46-13.54a3.88,3.88,0,0,1-4.11,4,4.57,4.57,0,0,1-4.65-4l0-.62a3.88,3.88,0,0,1,4.11-4,4.58,4.58,0,0,1,4.65,4Zm41.61,16H233a4.09,4.09,0,0,1-4-3.34,3,3,0,0,1,3.13-3.3h1.19a4.1,4.1,0,0,1,4,3.3A3,3,0,0,1,234.19,35.22Zm28.64-5.45a3.52,3.52,0,0,1-3.72,4.15h0a5.35,5.35,0,0,1-5.18-4.15l-.23-1.39a3.51,3.51,0,0,1,3.73-4.08h0a5.34,5.34,0,0,1,5.16,4.08Z"/></g></svg>