<svg id="Calque_1" data-name="Calque 1" xmlns="http://www.w3.org/2000/svg" viewBox="0 0 289.36 49.92"><defs><style>.cls-1{fill:#19404f;}.cls-1,.cls-2{stroke:#262626;stroke-linecap:round;stroke-miterlimit:10;stroke-width:1.5px;}.cls-2{fill:#fff;}</style></defs><title>fromage-2</title><polygon id="_Tracé_" data-name="&lt;Tracé&gt;" class="cls-1" points="272.35 39.35 265.46 10.57 23.91 10.57 17.01 39.35 272.35 39.35"/><path id="_Tracé_transparent_" data-name="&lt;Tracé transparent&gt;" class="cls-2" d="M265.46,10.57H248.57l1.65,8c.44,2.11-1.18,3.86-3.6,3.86a5.26,5.26,0,0,1-5.12-3.86l-1.51-8H208.46l1.08,8.53c.31,2.42-1.7,4.41-4.46,4.41s-5.23-2-5.49-4.41l-.91-8.53H138.06L138,16.31a2.3,2.3,0,0,1-2.41,2.09,2.2,2.2,0,0,1-2.34-2.09l.13-5.74H111.52l-.37,5.61a3.41,3.41,0,0,1-3.51,2.9,2.86,2.86,0,0,1-3.09-2.9l.44-5.61H84.85l-1.07,9a4,4,0,0,1-4,3.2,3,3,0,0,1-3.21-3.2l1.2-9H44.28l-.78,3.92a3.81,3.81,0,0,1-3.7,2.75h0c-1.73,0-2.89-1.24-2.57-2.75l.83-3.92H23.91L17,39.35H48.89a2.28,2.28,0,0,1-2.36-2.16V34.31a2.38,2.38,0,0,1,4.73,0v2.88a2.28,2.28,0,0,1-2.36,2.16H252.29a3,3,0,0,1-3.12-2.85v-.18a3.13,3.13,0,0,1,6.24,0v.18a3,3,0,0,1-3.12,2.85h20.07Zm-231.7,9-.29,1.35a5.67,5.67,0,0,1-5.44,4h0c-2.51,0-4.14-1.82-3.63-4l.32-1.35a5.67,5.67,0,0,1,5.41-3.95h0C32.59,15.57,34.23,17.34,33.75,19.52Zm20.59,1.15c-2,0-3.36-1.44-3-3.18a4.24,4.24,0,0,1,4.15-3.14h1.19c2,0,3.35,1.41,3.06,3.14a4.22,4.22,0,0,1-4.15,3.18ZM69.5,34.92H62a4.71,4.71,0,0,1-4.89-4.47A4.71,4.71,0,0,1,62,26H69.5a4.71,4.71,0,0,1,4.89,4.47A4.71,4.71,0,0,1,69.5,34.92Zm33.9-4.19a4.91,4.91,0,0,1-5,4.19,4,4,0,0,1-4.25-4.19l.06-.64a4.92,4.92,0,0,1,5-4.11,4,4,0,0,1,4.25,4.11Zm19.88-10.59a2.69,2.69,0,0,1-2.79,2.37,2.4,2.4,0,0,1-2.56-2.37l.18-3.46a2.67,2.67,0,0,1,2.77-2.32,2.38,2.38,0,0,1,2.55,2.32Zm25.18,7.62H131.77a2.58,2.58,0,0,1-2.73-2.5,2.74,2.74,0,0,1,2.85-2.47h16.53a2.68,2.68,0,0,1,2.81,2.47A2.63,2.63,0,0,1,148.46,27.75Zm26-1.78a3.86,3.86,0,0,1-4-3.38l-.1-2.06a3.35,3.35,0,0,1,3.59-3.31,3.85,3.85,0,0,1,4,3.31l.13,2.06A3.36,3.36,0,0,1,174.43,26Zm11.7,3.23a3.52,3.52,0,0,1-3.6-3l-.19-2.57a2.9,2.9,0,0,1,3.11-2.95A3.51,3.51,0,0,1,189,23.62l.22,2.57A2.91,2.91,0,0,1,186.13,29.2Zm37.2,0h-.83A4.11,4.11,0,0,1,218.43,26a2.88,2.88,0,0,1,3.12-3.19h.82A4.13,4.13,0,0,1,226.45,26,2.87,2.87,0,0,1,223.34,29.2Zm21,4.42a3.13,3.13,0,0,1-6.24,0V33.3a3.13,3.13,0,0,1,6.24,0ZM259.78,26h-1a4.85,4.85,0,0,1-4.66-3.47c-.4-1.89,1-3.42,3.14-3.42h1a4.87,4.87,0,0,1,4.65,3.42C263.34,24.41,261.94,26,259.78,26Z"/></svg>