<svg id="Calque_1" data-name="Calque 1" xmlns="http://www.w3.org/2000/svg" viewBox="0 0 289.36 49.92"><defs><style>.cls-1{fill:#ffded9;}.cls-1,.cls-2{stroke:#262626;stroke-linecap:round;stroke-miterlimit:10;stroke-width:2px;}.cls-2{fill:#ffd9d9;}</style></defs><title>viande-4</title><g id="_Groupe_" data-name="&lt;Groupe&gt;"><g id="_Groupe_2" data-name="&lt;Groupe&gt;"><path id="_Tracé_" data-name="&lt;Tracé&gt;" class="cls-1" d="M70.8,33.2c-6.21,3-29.87,4.48-29.84-.15S74,16,74,16,80,28.7,70.8,33.2Z"/><path id="_Tracé_2" data-name="&lt;Tracé&gt;" class="cls-2" d="M41,33.06s-7.77-10.17,4-15.39,30.73-4.86,29.62,0S73.88,33.51,41,33.06Z"/></g><g id="_Groupe_3" data-name="&lt;Groupe&gt;"><path id="_Tracé_3" data-name="&lt;Tracé&gt;" class="cls-1" d="M99.8,33.2c-6.21,3-29.87,4.48-29.84-.15S103,16,103,16,109,28.7,99.8,33.2Z"/><path id="_Tracé_4" data-name="&lt;Tracé&gt;" class="cls-2" d="M70,33.06s-7.77-10.17,4-15.39,30.73-4.86,29.62,0S102.88,33.51,70,33.06Z"/></g><g id="_Groupe_4" data-name="&lt;Groupe&gt;"><path id="_Tracé_5" data-name="&lt;Tracé&gt;" class="cls-1" d="M128.8,33.2c-6.21,3-29.87,4.48-29.84-.15S132,16,132,16,138,28.7,128.8,33.2Z"/><path id="_Tracé_6" data-name="&lt;Tracé&gt;" class="cls-2" d="M99,33.06s-7.77-10.17,4-15.39,30.73-4.86,29.62,0S131.88,33.51,99,33.06Z"/></g><g id="_Groupe_5" data-name="&lt;Groupe&gt;"><path id="_Tracé_7" data-name="&lt;Tracé&gt;" class="cls-1" d="M157.8,33.2c-6.21,3-29.87,4.48-29.84-.15S161,16,161,16,167,28.7,157.8,33.2Z"/><path id="_Tracé_8" data-name="&lt;Tracé&gt;" class="cls-2" d="M128,33.06s-7.77-10.17,4-15.39,30.73-4.86,29.62,0S160.88,33.51,128,33.06Z"/></g><g id="_Groupe_6" data-name="&lt;Groupe&gt;"><path id="_Tracé_9" data-name="&lt;Tracé&gt;" class="cls-1" d="M186.8,33.2c-6.21,3-29.87,4.48-29.84-.15S190,16,190,16,196,28.7,186.8,33.2Z"/><path id="_Tracé_10" data-name="&lt;Tracé&gt;" class="cls-2" d="M157,33.06s-7.77-10.17,4-15.39,30.73-4.86,29.62,0S189.88,33.51,157,33.06Z"/></g><g id="_Groupe_7" data-name="&lt;Groupe&gt;"><path id="_Tracé_11" data-name="&lt;Tracé&gt;" class="cls-1" d="M215.8,33.2c-6.21,3-29.87,4.48-29.84-.15S219,16,219,16,225,28.7,215.8,33.2Z"/><path id="_Tracé_12" data-name="&lt;Tracé&gt;" class="cls-2" d="M186,33.06s-7.77-10.17,4-15.39,30.73-4.86,29.62,0S218.88,33.51,186,33.06Z"/></g><g id="_Groupe_8" data-name="&lt;Groupe&gt;"><path id="_Tracé_13" data-name="&lt;Tracé&gt;" class="cls-1" d="M245.8,33.2c-6.21,3-29.87,4.48-29.84-.15S249,16,249,16,255,28.7,245.8,33.2Z"/><path id="_Tracé_14" data-name="&lt;Tracé&gt;" class="cls-2" d="M216,33.06s-7.77-10.17,4-15.39,30.73-4.86,29.62,0S248.88,33.51,216,33.06Z"/></g></g></svg>