<svg id="Calque_1" data-name="Calque 1" xmlns="http://www.w3.org/2000/svg" viewBox="0 0 289.36 49.92"><defs><style>.cls-1{fill:#0c1e07;}.cls-2{fill:#14350c;}</style></defs><title>cond-6</title><g id="_Groupe_" data-name="&lt;Groupe&gt;"><g id="_Groupe_2" data-name="&lt;Groupe&gt;"><g id="_Groupe_3" data-name="&lt;Groupe&gt;"><ellipse id="_Tracé_" data-name="&lt;Tracé&gt;" class="cls-1" cx="61.18" cy="19.96" rx="15.51" ry="6.89"/><path id="_Tracé_transparent_" data-name="&lt;Tracé transparent&gt;" d="M61.18,27.85c-9.26,0-16.51-3.47-16.51-7.89s7.25-7.89,16.51-7.89S77.69,15.53,77.69,20,70.44,27.85,61.18,27.85Zm0-13.78c-8.55,0-14.51,3.1-14.51,5.89s6,5.89,14.51,5.89S75.69,22.74,75.69,20,69.73,14.07,61.18,14.07Z"/></g><g id="_Groupe_4" data-name="&lt;Groupe&gt;"><ellipse id="_Tracé_2" data-name="&lt;Tracé&gt;" class="cls-2" cx="61.18" cy="17.08" rx="15.51" ry="4.01"/><path id="_Tracé_transparent_2" data-name="&lt;Tracé transparent&gt;" d="M61.18,22.09c-8,0-16.51-1.57-16.51-5s8.56-5,16.51-5,16.51,1.57,16.51,5S69.13,22.09,61.18,22.09Zm0-8c-9.57,0-14.51,2.11-14.51,3s4.94,3,14.51,3,14.51-2.11,14.51-3S70.75,14.07,61.18,14.07Z"/></g><ellipse id="_Tracé_3" data-name="&lt;Tracé&gt;" cx="66.27" cy="16.97" rx="3.51" ry="1.06"/><ellipse id="_Tracé_4" data-name="&lt;Tracé&gt;" cx="63.27" cy="15.97" rx="3.51" ry="1.06"/><ellipse id="_Tracé_5" data-name="&lt;Tracé&gt;" cx="56.27" cy="17.53" rx="3.51" ry="1.06"/></g><g id="_Groupe_5" data-name="&lt;Groupe&gt;"><g id="_Groupe_6" data-name="&lt;Groupe&gt;"><ellipse id="_Tracé_6" data-name="&lt;Tracé&gt;" class="cls-1" cx="92.18" cy="29.96" rx="15.51" ry="6.89"/><path id="_Tracé_transparent_3" data-name="&lt;Tracé transparent&gt;" d="M92.18,37.85c-9.26,0-16.51-3.47-16.51-7.89s7.25-7.89,16.51-7.89,16.51,3.47,16.51,7.89S101.44,37.85,92.18,37.85Zm0-13.78c-8.55,0-14.51,3.1-14.51,5.89s6,5.89,14.51,5.89,14.51-3.1,14.51-5.89S100.73,24.07,92.18,24.07Z"/></g><g id="_Groupe_7" data-name="&lt;Groupe&gt;"><ellipse id="_Tracé_7" data-name="&lt;Tracé&gt;" class="cls-2" cx="92.18" cy="27.08" rx="15.51" ry="4.01"/><path id="_Tracé_transparent_4" data-name="&lt;Tracé transparent&gt;" d="M92.18,32.09c-8,0-16.51-1.57-16.51-5s8.56-5,16.51-5,16.51,1.57,16.51,5S100.13,32.09,92.18,32.09Zm0-8c-9.57,0-14.51,2.11-14.51,3s4.94,3,14.51,3,14.51-2.11,14.51-3S101.75,24.07,92.18,24.07Z"/></g><ellipse id="_Tracé_8" data-name="&lt;Tracé&gt;" cx="97.27" cy="26.97" rx="3.51" ry="1.06"/><ellipse id="_Tracé_9" data-name="&lt;Tracé&gt;" cx="94.27" cy="25.97" rx="3.51" ry="1.06"/><ellipse id="_Tracé_10" data-name="&lt;Tracé&gt;" cx="87.27" cy="27.53" rx="3.51" ry="1.06"/></g><g id="_Groupe_8" data-name="&lt;Groupe&gt;"><g id="_Groupe_9" data-name="&lt;Groupe&gt;"><ellipse id="_Tracé_11" data-name="&lt;Tracé&gt;" class="cls-1" cx="134.18" cy="29.96" rx="15.51" ry="6.89"/><path id="_Tracé_transparent_5" data-name="&lt;Tracé transparent&gt;" d="M134.18,37.85c-9.26,0-16.51-3.47-16.51-7.89s7.25-7.89,16.51-7.89,16.51,3.47,16.51,7.89S143.44,37.85,134.18,37.85Zm0-13.78c-8.55,0-14.51,3.1-14.51,5.89s6,5.89,14.51,5.89,14.51-3.1,14.51-5.89S142.73,24.07,134.18,24.07Z"/></g><g id="_Groupe_10" data-name="&lt;Groupe&gt;"><ellipse id="_Tracé_12" data-name="&lt;Tracé&gt;" class="cls-2" cx="134.18" cy="27.08" rx="15.51" ry="4.01"/><path id="_Tracé_transparent_6" data-name="&lt;Tracé transparent&gt;" d="M134.18,32.09c-8,0-16.51-1.57-16.51-5s8.56-5,16.51-5,16.51,1.57,16.51,5S142.13,32.09,134.18,32.09Zm0-8c-9.57,0-14.51,2.11-14.51,3s4.94,3,14.51,3,14.51-2.11,14.51-3S143.75,24.07,134.18,24.07Z"/></g><ellipse id="_Tracé_13" data-name="&lt;Tracé&gt;" cx="139.27" cy="26.97" rx="3.51" ry="1.06"/><ellipse id="_Tracé_14" data-name="&lt;Tracé&gt;" cx="136.27" cy="25.97" rx="3.51" ry="1.06"/><ellipse id="_Tracé_15" data-name="&lt;Tracé&gt;" cx="129.27" cy="27.53" rx="3.51" ry="1.06"/></g><g id="_Groupe_11" data-name="&lt;Groupe&gt;"><g id="_Groupe_12" data-name="&lt;Groupe&gt;"><ellipse id="_Tracé_16" data-name="&lt;Tracé&gt;" class="cls-1" cx="166.18" cy="19.96" rx="15.51" ry="6.89"/><path id="_Tracé_transparent_7" data-name="&lt;Tracé transparent&gt;" d="M166.18,27.85c-9.26,0-16.51-3.47-16.51-7.89s7.25-7.89,16.51-7.89,16.51,3.47,16.51,7.89S175.44,27.85,166.18,27.85Zm0-13.78c-8.55,0-14.51,3.1-14.51,5.89s6,5.89,14.51,5.89,14.51-3.1,14.51-5.89S174.73,14.07,166.18,14.07Z"/></g><g id="_Groupe_13" data-name="&lt;Groupe&gt;"><ellipse id="_Tracé_17" data-name="&lt;Tracé&gt;" class="cls-2" cx="166.18" cy="17.08" rx="15.51" ry="4.01"/><path id="_Tracé_transparent_8" data-name="&lt;Tracé transparent&gt;" d="M166.18,22.09c-8,0-16.51-1.57-16.51-5s8.56-5,16.51-5,16.51,1.57,16.51,5S174.13,22.09,166.18,22.09Zm0-8c-9.57,0-14.51,2.11-14.51,3s4.94,3,14.51,3,14.51-2.11,14.51-3S175.75,14.07,166.18,14.07Z"/></g><ellipse id="_Tracé_18" data-name="&lt;Tracé&gt;" cx="171.27" cy="16.97" rx="3.51" ry="1.06"/><ellipse id="_Tracé_19" data-name="&lt;Tracé&gt;" cx="168.27" cy="15.97" rx="3.51" ry="1.06"/><ellipse id="_Tracé_20" data-name="&lt;Tracé&gt;" cx="161.27" cy="17.53" rx="3.51" ry="1.06"/></g><g id="_Groupe_14" data-name="&lt;Groupe&gt;"><g id="_Groupe_15" data-name="&lt;Groupe&gt;"><ellipse id="_Tracé_21" data-name="&lt;Tracé&gt;" class="cls-1" cx="197.18" cy="29.96" rx="15.51" ry="6.89"/><path id="_Tracé_transparent_9" data-name="&lt;Tracé transparent&gt;" d="M197.18,37.85c-9.26,0-16.51-3.47-16.51-7.89s7.25-7.89,16.51-7.89,16.51,3.47,16.51,7.89S206.44,37.85,197.18,37.85Zm0-13.78c-8.55,0-14.51,3.1-14.51,5.89s6,5.89,14.51,5.89,14.51-3.1,14.51-5.89S205.73,24.07,197.18,24.07Z"/></g><g id="_Groupe_16" data-name="&lt;Groupe&gt;"><ellipse id="_Tracé_22" data-name="&lt;Tracé&gt;" class="cls-2" cx="197.18" cy="27.08" rx="15.51" ry="4.01"/><path id="_Tracé_transparent_10" data-name="&lt;Tracé transparent&gt;" d="M197.18,32.09c-8,0-16.51-1.57-16.51-5s8.56-5,16.51-5,16.51,1.57,16.51,5S205.13,32.09,197.18,32.09Zm0-8c-9.57,0-14.51,2.11-14.51,3s4.94,3,14.51,3,14.51-2.11,14.51-3S206.75,24.07,197.18,24.07Z"/></g><ellipse id="_Tracé_23" data-name="&lt;Tracé&gt;" cx="202.27" cy="26.97" rx="3.51" ry="1.06"/><ellipse id="_Tracé_24" data-name="&lt;Tracé&gt;" cx="199.27" cy="25.97" rx="3.51" ry="1.06"/><ellipse id="_Tracé_25" data-name="&lt;Tracé&gt;" cx="192.27" cy="27.53" rx="3.51" ry="1.06"/></g><g id="_Groupe_17" data-name="&lt;Groupe&gt;"><g id="_Groupe_18" data-name="&lt;Groupe&gt;"><ellipse id="_Tracé_26" data-name="&lt;Tracé&gt;" class="cls-1" cx="228.18" cy="19.96" rx="15.51" ry="6.89"/><path id="_Tracé_transparent_11" data-name="&lt;Tracé transparent&gt;" d="M228.18,27.85c-9.26,0-16.51-3.47-16.51-7.89s7.25-7.89,16.51-7.89,16.51,3.47,16.51,7.89S237.44,27.85,228.18,27.85Zm0-13.78c-8.55,0-14.51,3.1-14.51,5.89s6,5.89,14.51,5.89,14.51-3.1,14.51-5.89S236.73,14.07,228.18,14.07Z"/></g><g id="_Groupe_19" data-name="&lt;Groupe&gt;"><ellipse id="_Tracé_27" data-name="&lt;Tracé&gt;" class="cls-2" cx="228.18" cy="17.08" rx="15.51" ry="4.01"/><path id="_Tracé_transparent_12" data-name="&lt;Tracé transparent&gt;" d="M228.18,22.09c-8,0-16.51-1.57-16.51-5s8.56-5,16.51-5,16.51,1.57,16.51,5S236.13,22.09,228.18,22.09Zm0-8c-9.57,0-14.51,2.11-14.51,3s4.94,3,14.51,3,14.51-2.11,14.51-3S237.75,14.07,228.18,14.07Z"/></g><ellipse id="_Tracé_28" data-name="&lt;Tracé&gt;" cx="233.27" cy="16.97" rx="3.51" ry="1.06"/><ellipse id="_Tracé_29" data-name="&lt;Tracé&gt;" cx="230.27" cy="15.97" rx="3.51" ry="1.06"/><ellipse id="_Tracé_30" data-name="&lt;Tracé&gt;" cx="223.27" cy="17.53" rx="3.51" ry="1.06"/></g></g></svg>