<svg id="Calque_1" data-name="Calque 1" xmlns="http://www.w3.org/2000/svg" viewBox="0 0 289.36 49.92"><defs><style>.cls-1{fill:#297219;stroke:#262626;stroke-linecap:round;stroke-linejoin:round;stroke-width:2px;}.cls-2{fill:#143d14;}</style></defs><title>cond-2</title><g id="_Groupe_" data-name="&lt;Groupe&gt;"><g id="_Groupe_2" data-name="&lt;Groupe&gt;"><ellipse id="_Tracé_" data-name="&lt;Tracé&gt;" class="cls-1" cx="47.68" cy="20.46" rx="15.51" ry="5.51"/><ellipse id="_Tracé_2" data-name="&lt;Tracé&gt;" class="cls-1" cx="47.68" cy="18.96" rx="15.51" ry="4.01"/><ellipse id="_Tracé_3" data-name="&lt;Tracé&gt;" class="cls-2" cx="52.77" cy="18.85" rx="3.51" ry="1.06"/><ellipse id="_Tracé_4" data-name="&lt;Tracé&gt;" class="cls-2" cx="49.77" cy="17.85" rx="3.51" ry="1.06"/><ellipse id="_Tracé_5" data-name="&lt;Tracé&gt;" class="cls-2" cx="42.77" cy="19.41" rx="3.51" ry="1.06"/></g><g id="_Groupe_3" data-name="&lt;Groupe&gt;"><ellipse id="_Tracé_6" data-name="&lt;Tracé&gt;" class="cls-1" cx="78.68" cy="28.46" rx="15.51" ry="5.51"/><ellipse id="_Tracé_7" data-name="&lt;Tracé&gt;" class="cls-1" cx="78.68" cy="26.96" rx="15.51" ry="4.01"/><ellipse id="_Tracé_8" data-name="&lt;Tracé&gt;" class="cls-2" cx="83.77" cy="26.85" rx="3.51" ry="1.06"/><ellipse id="_Tracé_9" data-name="&lt;Tracé&gt;" class="cls-2" cx="80.77" cy="25.85" rx="3.51" ry="1.06"/><ellipse id="_Tracé_10" data-name="&lt;Tracé&gt;" class="cls-2" cx="73.77" cy="27.41" rx="3.51" ry="1.06"/></g><g id="_Groupe_4" data-name="&lt;Groupe&gt;"><ellipse id="_Tracé_11" data-name="&lt;Tracé&gt;" class="cls-1" cx="110.68" cy="20.46" rx="15.51" ry="5.51"/><ellipse id="_Tracé_12" data-name="&lt;Tracé&gt;" class="cls-1" cx="110.68" cy="18.96" rx="15.51" ry="4.01"/><ellipse id="_Tracé_13" data-name="&lt;Tracé&gt;" class="cls-2" cx="115.77" cy="18.85" rx="3.51" ry="1.06"/><ellipse id="_Tracé_14" data-name="&lt;Tracé&gt;" class="cls-2" cx="112.77" cy="17.85" rx="3.51" ry="1.06"/><ellipse id="_Tracé_15" data-name="&lt;Tracé&gt;" class="cls-2" cx="105.77" cy="19.41" rx="3.51" ry="1.06"/></g><g id="_Groupe_5" data-name="&lt;Groupe&gt;"><ellipse id="_Tracé_16" data-name="&lt;Tracé&gt;" class="cls-1" cx="149.68" cy="20.46" rx="15.51" ry="5.51"/><ellipse id="_Tracé_17" data-name="&lt;Tracé&gt;" class="cls-1" cx="149.68" cy="18.96" rx="15.51" ry="4.01"/><ellipse id="_Tracé_18" data-name="&lt;Tracé&gt;" class="cls-2" cx="154.77" cy="18.85" rx="3.51" ry="1.06"/><ellipse id="_Tracé_19" data-name="&lt;Tracé&gt;" class="cls-2" cx="151.77" cy="17.85" rx="3.51" ry="1.06"/><ellipse id="_Tracé_20" data-name="&lt;Tracé&gt;" class="cls-2" cx="144.77" cy="19.41" rx="3.51" ry="1.06"/></g><g id="_Groupe_6" data-name="&lt;Groupe&gt;"><ellipse id="_Tracé_21" data-name="&lt;Tracé&gt;" class="cls-1" cx="180.68" cy="28.46" rx="15.51" ry="5.51"/><ellipse id="_Tracé_22" data-name="&lt;Tracé&gt;" class="cls-1" cx="180.68" cy="26.96" rx="15.51" ry="4.01"/><ellipse id="_Tracé_23" data-name="&lt;Tracé&gt;" class="cls-2" cx="185.77" cy="26.85" rx="3.51" ry="1.06"/><ellipse id="_Tracé_24" data-name="&lt;Tracé&gt;" class="cls-2" cx="182.77" cy="25.85" rx="3.51" ry="1.06"/><ellipse id="_Tracé_25" data-name="&lt;Tracé&gt;" class="cls-2" cx="175.77" cy="27.41" rx="3.51" ry="1.06"/></g><g id="_Groupe_7" data-name="&lt;Groupe&gt;"><ellipse id="_Tracé_26" data-name="&lt;Tracé&gt;" class="cls-1" cx="212.68" cy="20.46" rx="15.51" ry="5.51"/><ellipse id="_Tracé_27" data-name="&lt;Tracé&gt;" class="cls-1" cx="212.68" cy="18.96" rx="15.51" ry="4.01"/><ellipse id="_Tracé_28" data-name="&lt;Tracé&gt;" class="cls-2" cx="217.77" cy="18.85" rx="3.51" ry="1.06"/><ellipse id="_Tracé_29" data-name="&lt;Tracé&gt;" class="cls-2" cx="214.77" cy="17.85" rx="3.51" ry="1.06"/><ellipse id="_Tracé_30" data-name="&lt;Tracé&gt;" class="cls-2" cx="207.77" cy="19.41" rx="3.51" ry="1.06"/></g><g id="_Groupe_8" data-name="&lt;Groupe&gt;"><ellipse id="_Tracé_31" data-name="&lt;Tracé&gt;" class="cls-1" cx="241.68" cy="29.46" rx="15.51" ry="5.51"/><ellipse id="_Tracé_32" data-name="&lt;Tracé&gt;" class="cls-1" cx="241.68" cy="27.96" rx="15.51" ry="4.01"/><ellipse id="_Tracé_33" data-name="&lt;Tracé&gt;" class="cls-2" cx="246.77" cy="27.85" rx="3.51" ry="1.06"/><ellipse id="_Tracé_34" data-name="&lt;Tracé&gt;" class="cls-2" cx="243.77" cy="26.85" rx="3.51" ry="1.06"/><ellipse id="_Tracé_35" data-name="&lt;Tracé&gt;" class="cls-2" cx="236.77" cy="28.41" rx="3.51" ry="1.06"/></g></g></svg>